<svg xmlns="http://www.w3.org/2000/svg" xmlns:xlink="http://www.w3.org/1999/xlink" width="944" zoomAndPan="magnify" viewBox="0 0 708 566.999966" height="755" preserveAspectRatio="xMidYMid meet" version="1.0"><defs><clipPath id="669a7a2d40"><path d="M 212 294.65625 L 291.355469 294.65625 L 291.355469 341 L 212 341 Z M 212 294.65625 " clip-rule="nonzero"/></clipPath><clipPath id="1d8461f722"><path d="M 249 197 L 268 197 L 268 239 L 249 239 Z M 249 197 " clip-rule="nonzero"/></clipPath><clipPath id="8a14acb5bb"><path d="M 315.601562 297.808594 L 224.304688 341.34375 L 176.582031 241.257812 L 267.875 197.722656 Z M 315.601562 297.808594 " clip-rule="nonzero"/></clipPath><clipPath id="0262035b42"><path d="M 315.601562 297.808594 L 224.304688 341.34375 L 176.582031 241.257812 L 267.875 197.722656 Z M 315.601562 297.808594 " clip-rule="nonzero"/></clipPath><clipPath id="2c17ec1e48"><path d="M 315.601562 297.808594 L 224.304688 341.34375 L 176.582031 241.257812 L 267.875 197.722656 Z M 315.601562 297.808594 " clip-rule="nonzero"/></clipPath><clipPath id="d252c6212e"><path d="M 261 197 L 268 197 L 268 213 L 261 213 Z M 261 197 " clip-rule="nonzero"/></clipPath><clipPath id="374031e873"><path d="M 315.601562 297.808594 L 224.304688 341.34375 L 176.582031 241.257812 L 267.875 197.722656 Z M 315.601562 297.808594 " clip-rule="nonzero"/></clipPath><clipPath id="0d2140eca6"><path d="M 315.601562 297.808594 L 224.304688 341.34375 L 176.582031 241.257812 L 267.875 197.722656 Z M 315.601562 297.808594 " clip-rule="nonzero"/></clipPath><clipPath id="bb5d662740"><path d="M 315.601562 297.808594 L 224.304688 341.34375 L 176.582031 241.257812 L 267.875 197.722656 Z M 315.601562 297.808594 " clip-rule="nonzero"/></clipPath><clipPath id="679d40db0e"><path d="M 249 217 L 267 217 L 267 239 L 249 239 Z M 249 217 " clip-rule="nonzero"/></clipPath><clipPath id="f8a6b2082a"><path d="M 315.601562 297.808594 L 224.304688 341.34375 L 176.582031 241.257812 L 267.875 197.722656 Z M 315.601562 297.808594 " clip-rule="nonzero"/></clipPath><clipPath id="5f041d2302"><path d="M 315.601562 297.808594 L 224.304688 341.34375 L 176.582031 241.257812 L 267.875 197.722656 Z M 315.601562 297.808594 " clip-rule="nonzero"/></clipPath><clipPath id="9ad840a831"><path d="M 315.601562 297.808594 L 224.304688 341.34375 L 176.582031 241.257812 L 267.875 197.722656 Z M 315.601562 297.808594 " clip-rule="nonzero"/></clipPath><clipPath id="b1f84da665"><path d="M 222 236 L 259 236 L 259 340 L 222 340 Z M 222 236 " clip-rule="nonzero"/></clipPath><clipPath id="3e6b4d6c9b"><path d="M 315.601562 297.808594 L 224.304688 341.34375 L 176.582031 241.257812 L 267.875 197.722656 Z M 315.601562 297.808594 " clip-rule="nonzero"/></clipPath><clipPath id="25a6ee3c07"><path d="M 315.601562 297.808594 L 224.304688 341.34375 L 176.582031 241.257812 L 267.875 197.722656 Z M 315.601562 297.808594 " clip-rule="nonzero"/></clipPath><clipPath id="6855a2628d"><path d="M 315.601562 297.808594 L 224.304688 341.34375 L 176.582031 241.257812 L 267.875 197.722656 Z M 315.601562 297.808594 " clip-rule="nonzero"/></clipPath><clipPath id="662566b890"><path d="M 222 235 L 253 235 L 253 339 L 222 339 Z M 222 235 " clip-rule="nonzero"/></clipPath><clipPath id="a0cfe21402"><path d="M 315.601562 297.808594 L 224.304688 341.34375 L 176.582031 241.257812 L 267.875 197.722656 Z M 315.601562 297.808594 " clip-rule="nonzero"/></clipPath><clipPath id="cf0ce764e0"><path d="M 315.601562 297.808594 L 224.304688 341.34375 L 176.582031 241.257812 L 267.875 197.722656 Z M 315.601562 297.808594 " clip-rule="nonzero"/></clipPath><clipPath id="707ba7dcee"><path d="M 315.601562 297.808594 L 224.304688 341.34375 L 176.582031 241.257812 L 267.875 197.722656 Z M 315.601562 297.808594 " clip-rule="nonzero"/></clipPath><clipPath id="cf1015e873"><path d="M 226 237 L 259 237 L 259 340 L 226 340 Z M 226 237 " clip-rule="nonzero"/></clipPath><clipPath id="2c976d4272"><path d="M 315.601562 297.808594 L 224.304688 341.34375 L 176.582031 241.257812 L 267.875 197.722656 Z M 315.601562 297.808594 " clip-rule="nonzero"/></clipPath><clipPath id="1f40977f76"><path d="M 315.601562 297.808594 L 224.304688 341.34375 L 176.582031 241.257812 L 267.875 197.722656 Z M 315.601562 297.808594 " clip-rule="nonzero"/></clipPath><clipPath id="0ca6dd0296"><path d="M 315.601562 297.808594 L 224.304688 341.34375 L 176.582031 241.257812 L 267.875 197.722656 Z M 315.601562 297.808594 " clip-rule="nonzero"/></clipPath><clipPath id="2b69b991a8"><path d="M 239 236 L 259 236 L 259 271 L 239 271 Z M 239 236 " clip-rule="nonzero"/></clipPath><clipPath id="702ef097b0"><path d="M 315.601562 297.808594 L 224.304688 341.34375 L 176.582031 241.257812 L 267.875 197.722656 Z M 315.601562 297.808594 " clip-rule="nonzero"/></clipPath><clipPath id="c12867dede"><path d="M 315.601562 297.808594 L 224.304688 341.34375 L 176.582031 241.257812 L 267.875 197.722656 Z M 315.601562 297.808594 " clip-rule="nonzero"/></clipPath><clipPath id="289d400364"><path d="M 315.601562 297.808594 L 224.304688 341.34375 L 176.582031 241.257812 L 267.875 197.722656 Z M 315.601562 297.808594 " clip-rule="nonzero"/></clipPath><clipPath id="37b7bc89ab"><path d="M 239 236 L 253 236 L 253 270 L 239 270 Z M 239 236 " clip-rule="nonzero"/></clipPath><clipPath id="3aebb2b047"><path d="M 315.601562 297.808594 L 224.304688 341.34375 L 176.582031 241.257812 L 267.875 197.722656 Z M 315.601562 297.808594 " clip-rule="nonzero"/></clipPath><clipPath id="abacebe83c"><path d="M 315.601562 297.808594 L 224.304688 341.34375 L 176.582031 241.257812 L 267.875 197.722656 Z M 315.601562 297.808594 " clip-rule="nonzero"/></clipPath><clipPath id="6dc8f8a835"><path d="M 315.601562 297.808594 L 224.304688 341.34375 L 176.582031 241.257812 L 267.875 197.722656 Z M 315.601562 297.808594 " clip-rule="nonzero"/></clipPath><clipPath id="f7510eacc7"><path d="M 247 237 L 259 237 L 259 271 L 247 271 Z M 247 237 " clip-rule="nonzero"/></clipPath><clipPath id="d16c839511"><path d="M 315.601562 297.808594 L 224.304688 341.34375 L 176.582031 241.257812 L 267.875 197.722656 Z M 315.601562 297.808594 " clip-rule="nonzero"/></clipPath><clipPath id="970dabb910"><path d="M 315.601562 297.808594 L 224.304688 341.34375 L 176.582031 241.257812 L 267.875 197.722656 Z M 315.601562 297.808594 " clip-rule="nonzero"/></clipPath><clipPath id="a8524381b7"><path d="M 315.601562 297.808594 L 224.304688 341.34375 L 176.582031 241.257812 L 267.875 197.722656 Z M 315.601562 297.808594 " clip-rule="nonzero"/></clipPath><clipPath id="f7bcf777a1"><path d="M 248 235 L 259 235 L 259 245 L 248 245 Z M 248 235 " clip-rule="nonzero"/></clipPath><clipPath id="b144043e92"><path d="M 315.601562 297.808594 L 224.304688 341.34375 L 176.582031 241.257812 L 267.875 197.722656 Z M 315.601562 297.808594 " clip-rule="nonzero"/></clipPath><clipPath id="1ab50a25fc"><path d="M 315.601562 297.808594 L 224.304688 341.34375 L 176.582031 241.257812 L 267.875 197.722656 Z M 315.601562 297.808594 " clip-rule="nonzero"/></clipPath><clipPath id="9917b2fa1d"><path d="M 315.601562 297.808594 L 224.304688 341.34375 L 176.582031 241.257812 L 267.875 197.722656 Z M 315.601562 297.808594 " clip-rule="nonzero"/></clipPath><clipPath id="be597e4487"><path d="M 248 239 L 259 239 L 259 245 L 248 245 Z M 248 239 " clip-rule="nonzero"/></clipPath><clipPath id="d089245b0f"><path d="M 315.601562 297.808594 L 224.304688 341.34375 L 176.582031 241.257812 L 267.875 197.722656 Z M 315.601562 297.808594 " clip-rule="nonzero"/></clipPath><clipPath id="17e24d3167"><path d="M 315.601562 297.808594 L 224.304688 341.34375 L 176.582031 241.257812 L 267.875 197.722656 Z M 315.601562 297.808594 " clip-rule="nonzero"/></clipPath><clipPath id="9d85de5a30"><path d="M 315.601562 297.808594 L 224.304688 341.34375 L 176.582031 241.257812 L 267.875 197.722656 Z M 315.601562 297.808594 " clip-rule="nonzero"/></clipPath><clipPath id="6ef521b816"><path d="M 257 204 L 265 204 L 265 238 L 257 238 Z M 257 204 " clip-rule="nonzero"/></clipPath><clipPath id="150a82cd16"><path d="M 315.601562 297.808594 L 224.304688 341.34375 L 176.582031 241.257812 L 267.875 197.722656 Z M 315.601562 297.808594 " clip-rule="nonzero"/></clipPath><clipPath id="c90b8b8058"><path d="M 315.601562 297.808594 L 224.304688 341.34375 L 176.582031 241.257812 L 267.875 197.722656 Z M 315.601562 297.808594 " clip-rule="nonzero"/></clipPath><clipPath id="4abece6544"><path d="M 315.601562 297.808594 L 224.304688 341.34375 L 176.582031 241.257812 L 267.875 197.722656 Z M 315.601562 297.808594 " clip-rule="nonzero"/></clipPath><clipPath id="26e996e5b5"><path d="M 255 217 L 262 217 L 262 237 L 255 237 Z M 255 217 " clip-rule="nonzero"/></clipPath><clipPath id="ad233e404c"><path d="M 315.601562 297.808594 L 224.304688 341.34375 L 176.582031 241.257812 L 267.875 197.722656 Z M 315.601562 297.808594 " clip-rule="nonzero"/></clipPath><clipPath id="6d71859346"><path d="M 315.601562 297.808594 L 224.304688 341.34375 L 176.582031 241.257812 L 267.875 197.722656 Z M 315.601562 297.808594 " clip-rule="nonzero"/></clipPath><clipPath id="ff18188681"><path d="M 315.601562 297.808594 L 224.304688 341.34375 L 176.582031 241.257812 L 267.875 197.722656 Z M 315.601562 297.808594 " clip-rule="nonzero"/></clipPath><clipPath id="363be95872"><path d="M 253 205 L 263 205 L 263 237 L 253 237 Z M 253 205 " clip-rule="nonzero"/></clipPath><clipPath id="f0ccfbcc19"><path d="M 315.601562 297.808594 L 224.304688 341.34375 L 176.582031 241.257812 L 267.875 197.722656 Z M 315.601562 297.808594 " clip-rule="nonzero"/></clipPath><clipPath id="124eca18e7"><path d="M 315.601562 297.808594 L 224.304688 341.34375 L 176.582031 241.257812 L 267.875 197.722656 Z M 315.601562 297.808594 " clip-rule="nonzero"/></clipPath><clipPath id="e42e2064d6"><path d="M 315.601562 297.808594 L 224.304688 341.34375 L 176.582031 241.257812 L 267.875 197.722656 Z M 315.601562 297.808594 " clip-rule="nonzero"/></clipPath><clipPath id="25d48637f0"><path d="M 251 205 L 262 205 L 262 236 L 251 236 Z M 251 205 " clip-rule="nonzero"/></clipPath><clipPath id="4ac260261f"><path d="M 315.601562 297.808594 L 224.304688 341.34375 L 176.582031 241.257812 L 267.875 197.722656 Z M 315.601562 297.808594 " clip-rule="nonzero"/></clipPath><clipPath id="824990dc90"><path d="M 315.601562 297.808594 L 224.304688 341.34375 L 176.582031 241.257812 L 267.875 197.722656 Z M 315.601562 297.808594 " clip-rule="nonzero"/></clipPath><clipPath id="bcc38db123"><path d="M 315.601562 297.808594 L 224.304688 341.34375 L 176.582031 241.257812 L 267.875 197.722656 Z M 315.601562 297.808594 " clip-rule="nonzero"/></clipPath><clipPath id="f2348b3fcc"><path d="M 422 289.675781 L 468 289.675781 L 468 404.304688 L 422 404.304688 Z M 422 289.675781 " clip-rule="nonzero"/></clipPath><clipPath id="769c467fc2"><path d="M 299.464844 383.601562 L 411 383.601562 L 411 495.980469 L 299.464844 495.980469 Z M 299.464844 383.601562 " clip-rule="nonzero"/></clipPath><clipPath id="0b7cbefede"><path d="M 273.640625 214 L 433.96875 214 L 433.96875 396.160156 L 273.640625 396.160156 Z M 273.640625 214 " clip-rule="nonzero"/></clipPath><clipPath id="1f609c3546"><path d="M 311 169.898438 L 336 169.898438 L 336 201 L 311 201 Z M 311 169.898438 " clip-rule="nonzero"/></clipPath><clipPath id="39c8d82822"><path d="M 340 169.898438 L 365 169.898438 L 365 201 L 340 201 Z M 340 169.898438 " clip-rule="nonzero"/></clipPath><clipPath id="df6c2e45b1"><path d="M 369 169.898438 L 395 169.898438 L 395 201 L 369 201 Z M 369 169.898438 " clip-rule="nonzero"/></clipPath><clipPath id="0b5c1277db"><path d="M 359 252 L 409.378906 252 L 409.378906 316 L 359 316 Z M 359 252 " clip-rule="nonzero"/></clipPath><clipPath id="67550de3f6"><path d="M 298.496094 248 L 322 248 L 322 272 L 298.496094 272 Z M 298.496094 248 " clip-rule="nonzero"/></clipPath><clipPath id="3c3424fa35"><path d="M 362 244.632812 L 394 244.632812 L 394 259 L 362 259 Z M 362 244.632812 " clip-rule="nonzero"/></clipPath><clipPath id="52c4e5acee"><path d="M 332.050781 318.5 L 375.898438 318.5 L 375.898438 351.769531 L 332.050781 351.769531 Z M 332.050781 318.5 " clip-rule="nonzero"/></clipPath></defs><g clip-path="url(#669a7a2d40)"><path fill="#000000" d="M 291.273438 304.941406 C 291.140625 306.929688 290.964844 308.925781 290.597656 310.882812 C 289.417969 317.199219 287.457031 323.277344 284.683594 329.089844 C 283.644531 331.269531 282.4375 333.355469 280.859375 335.203125 C 277.226562 339.453125 272.601562 341.066406 267.089844 340.28125 C 263.734375 339.804688 260.554688 338.691406 257.429688 337.433594 C 254.074219 336.082031 250.855469 334.453125 247.789062 332.535156 C 246.609375 331.796875 245.503906 330.957031 244.28125 330.109375 C 243.492188 330.945312 242.699219 331.828125 241.855469 332.660156 C 240.683594 333.820312 239.375 334.804688 237.824219 335.421875 C 236.476562 335.960938 235.109375 336.070312 233.757812 335.445312 C 232.535156 334.886719 231.6875 333.996094 231.363281 332.667969 C 231.304688 332.433594 231.230469 332.207031 231.144531 331.898438 C 230.5625 332.0625 230.027344 332.226562 229.480469 332.355469 C 227.324219 332.863281 225.226562 332.484375 223.160156 331.875 C 219.488281 330.796875 216.515625 328.695312 214.316406 325.589844 C 213.644531 324.644531 213.082031 323.558594 212.722656 322.449219 C 211.949219 320.03125 212.15625 317.761719 214.335938 316.074219 C 213.054688 312.34375 214.144531 310.265625 217.222656 308.898438 C 217.222656 307.976562 217.066406 307.070312 217.246094 306.238281 C 217.8125 303.671875 219.53125 302.179688 222.066406 301.566406 C 222.5 301.464844 222.9375 301.386719 223.316406 301.304688 C 223.453125 300.488281 223.472656 299.734375 223.71875 299.058594 C 224.539062 296.796875 226.257812 295.5 228.582031 295.015625 C 230.050781 294.707031 231.171875 295.21875 232.617188 296.660156 C 233.484375 296.347656 234.339844 295.921875 235.242188 295.734375 C 238.730469 295.015625 241.550781 296.203125 243.757812 298.890625 C 245.269531 300.738281 246.0625 302.929688 246.421875 305.253906 C 246.648438 306.734375 246.699219 308.242188 246.839844 309.820312 C 246.9375 309.835938 247.089844 309.882812 247.234375 309.890625 C 249.175781 309.949219 250.445312 311 250.867188 312.894531 C 251.164062 314.238281 251.101562 315.59375 250.746094 316.890625 C 250.183594 318.925781 249.488281 320.925781 248.816406 323.035156 C 251.542969 325.003906 254.566406 326.714844 257.691406 328.261719 C 260.152344 329.480469 262.652344 330.625 265.355469 331.238281 C 266.035156 331.394531 266.722656 331.53125 267.414062 331.617188 C 270.09375 331.945312 272.351562 331.113281 274.175781 329.128906 C 277.183594 325.847656 279.167969 321.976562 280.765625 317.886719 C 282.015625 314.683594 282.640625 311.308594 283.492188 307.996094 C 283.753906 306.976562 284.09375 305.953125 284.574219 305.019531 C 285.507812 303.207031 287.488281 302.371094 289.476562 302.796875 C 290.589844 303.039062 291.347656 303.800781 291.273438 304.941406 Z M 291.273438 304.941406 " fill-opacity="1" fill-rule="nonzero"/></g><path fill="#000000" d="M 244.941406 329.3125 C 246.121094 327.417969 247.210938 325.660156 248.304688 323.894531 C 252.398438 326.726562 256.726562 329.128906 261.335938 331.015625 C 263.433594 331.871094 265.589844 332.503906 267.871094 332.671875 C 270.535156 332.867188 272.800781 332.027344 274.675781 330.160156 C 277.234375 327.605469 278.972656 324.515625 280.527344 321.308594 C 282.296875 317.648438 283.292969 313.742188 284.214844 309.8125 C 284.539062 308.433594 284.957031 307.0625 285.472656 305.738281 C 285.917969 304.585938 286.90625 303.972656 288.132812 303.824219 C 288.523438 303.777344 288.957031 303.828125 289.339844 303.941406 C 290.140625 304.175781 290.472656 304.6875 290.351562 305.507812 C 289.117188 314.066406 286.894531 322.335938 282.914062 330.078125 C 281.996094 331.863281 280.90625 333.539062 279.53125 335.019531 C 276.457031 338.332031 272.675781 339.765625 268.136719 339.328125 C 265.035156 339.03125 262.117188 338.074219 259.238281 337.003906 C 255.074219 335.457031 251.128906 333.445312 247.386719 331.0625 C 246.566406 330.535156 245.792969 329.925781 244.941406 329.3125 Z M 244.941406 329.3125 " fill-opacity="1" fill-rule="nonzero"/><path fill="#ffffff" d="M 245.554688 313.476562 C 246.367188 313.175781 246.351562 312.609375 246.472656 312.125 C 246.742188 311.050781 247.371094 310.777344 248.375 311.292969 C 249.125 311.683594 249.484375 312.339844 249.691406 313.125 C 250.035156 314.433594 249.875 315.730469 249.554688 316.996094 C 248.117188 322.742188 245.304688 327.742188 241.117188 331.960938 C 239.929688 333.160156 238.585938 334.167969 236.929688 334.679688 C 235.8125 335.023438 234.695312 335.003906 233.75 334.300781 C 233.183594 333.878906 232.6875 333.28125 232.355469 332.65625 C 231.847656 331.695312 231.992188 331.402344 232.835938 330.695312 C 233.242188 330.355469 233.648438 330 233.996094 329.601562 C 234.242188 329.324219 234.390625 328.957031 234.585938 328.628906 C 234.519531 328.574219 234.453125 328.515625 234.386719 328.457031 C 234.199219 328.546875 233.992188 328.617188 233.816406 328.734375 C 233.613281 328.867188 233.425781 329.035156 233.253906 329.207031 C 231.128906 331.363281 228.519531 331.867188 225.648438 331.375 C 221.460938 330.65625 218.039062 328.628906 215.453125 325.273438 C 214.46875 323.996094 213.777344 322.578125 213.527344 320.957031 C 213.117188 318.308594 214.621094 316.449219 217.300781 316.382812 C 219.59375 316.328125 221.628906 316.984375 223.058594 318.859375 C 223.539062 319.488281 223.910156 320.273438 224.085938 321.042969 C 224.460938 322.691406 223.300781 324.035156 221.605469 324.074219 C 220.449219 324.101562 219.441406 323.667969 218.480469 323.09375 C 218.144531 322.890625 217.8125 322.683594 217.382812 322.421875 C 217.195312 323.21875 217.636719 323.554688 218.003906 323.902344 C 219.019531 324.859375 220.292969 325.171875 221.636719 325.136719 C 224.191406 325.074219 225.355469 323.425781 225.164062 320.175781 C 227.09375 318.761719 227.796875 316.769531 227.636719 314.378906 C 230.285156 313.632812 231.285156 311.65625 231.574219 309.078125 C 232.167969 309.011719 232.714844 308.949219 233.238281 308.890625 C 232.898438 310.339844 232.503906 311.703125 232.273438 313.09375 C 232.042969 314.460938 232.351562 315.769531 233.132812 316.945312 C 233.523438 317.535156 233.578125 317.550781 234.398438 317.65625 C 234.410156 317.585938 234.460938 317.480469 234.429688 317.449219 C 232.875 315.78125 232.722656 313.816406 233.199219 311.730469 C 233.316406 311.214844 233.496094 310.710938 233.644531 310.203125 C 233.953125 309.152344 234.480469 308.355469 235.570312 307.859375 C 236.828125 307.289062 237.75 306.273438 238.339844 305.007812 C 238.535156 304.582031 238.804688 304.148438 238.425781 303.460938 C 238.160156 303.820312 237.925781 304.074219 237.769531 304.359375 C 236.753906 306.1875 235.164062 307.265625 233.179688 307.796875 C 231.230469 308.3125 229.988281 307.515625 229.59375 305.542969 C 229 302.5625 230.945312 298.875 233.878906 297.410156 C 236.8125 295.945312 240.257812 296.621094 242.507812 299.140625 C 244.355469 301.203125 245.222656 303.703125 245.453125 306.386719 C 245.617188 308.289062 245.503906 310.210938 245.511719 312.125 C 245.511719 312.539062 245.535156 312.957031 245.554688 313.476562 Z M 242.648438 317.171875 C 242.101562 318.234375 241.597656 319.328125 240.992188 320.359375 C 240.351562 321.445312 239.667969 322.511719 238.914062 323.523438 C 238.207031 324.484375 237.390625 325.371094 236.621094 326.285156 C 237.792969 326.226562 238.28125 325.335938 238.886719 324.648438 C 241.113281 322.132812 242.867188 318.84375 242.648438 317.171875 Z M 230.492188 309.191406 C 230.476562 308.976562 230.375 308.683594 230.214844 308.578125 C 228.808594 307.628906 228.378906 306.230469 228.371094 304.664062 C 228.367188 304.042969 228.117188 303.679688 227.613281 303.398438 C 225.207031 302.046875 222.765625 301.96875 220.367188 303.335938 C 218.921875 304.160156 218.1875 305.523438 218.066406 307.160156 C 217.980469 308.292969 218.320312 308.582031 219.453125 308.554688 C 222.71875 308.484375 225.234375 309.792969 226.925781 312.59375 C 227.050781 312.800781 227.171875 313.003906 227.320312 313.253906 C 229.277344 312.773438 230.597656 311.042969 230.492188 309.191406 Z M 224.667969 319.144531 C 224.824219 319.0625 224.945312 319.027344 225.027344 318.949219 C 226.902344 317.265625 227.15625 314.550781 225.644531 312.425781 C 224.007812 310.125 220.886719 308.992188 218.132812 309.6875 C 215.210938 310.429688 213.988281 312.90625 215.3125 315.507812 C 219.175781 314.765625 222.414062 315.722656 224.667969 319.144531 Z M 229.0625 296.042969 C 226.644531 296.175781 224.046875 298.648438 224.371094 301.15625 C 225.757812 301.605469 227.132812 302.054688 228.5625 302.515625 C 229.113281 300.515625 230.15625 298.804688 231.707031 297.441406 C 230.800781 296.289062 230.207031 295.976562 229.0625 296.042969 Z M 229.0625 296.042969 " fill-opacity="1" fill-rule="nonzero"/><g clip-path="url(#1d8461f722)"><g clip-path="url(#8a14acb5bb)"><g clip-path="url(#0262035b42)"><g clip-path="url(#2c17ec1e48)"><path fill="#6a3622" d="M 251.332031 237.15625 C 249.03125 233.488281 248.710938 228.832031 249.679688 224.609375 C 250.652344 220.390625 252.808594 216.53125 255.199219 212.914062 C 258.832031 207.425781 263.066406 202.332031 267.804688 197.761719 C 265.980469 201.625 265.769531 202.757812 265.320312 205.414062 C 264.855469 208.140625 265.859375 210.863281 266.453125 213.566406 C 267.917969 220.277344 266.757812 227.523438 263.261719 233.449219 C 261.859375 235.832031 259.714844 238.203125 256.949219 238.246094 C 254.515625 238.285156 251.332031 237.15625 251.332031 237.15625 " fill-opacity="1" fill-rule="nonzero"/></g></g></g></g><g clip-path="url(#d252c6212e)"><g clip-path="url(#374031e873)"><g clip-path="url(#0d2140eca6)"><g clip-path="url(#bb5d662740)"><path fill="#7c4029" d="M 262.164062 210.105469 C 262.707031 211.144531 263.535156 212.023438 264.574219 212.546875 C 266.683594 213.605469 265.9375 211.488281 265.683594 210.390625 C 265.300781 208.734375 265.039062 207.074219 265.320312 205.414062 C 265.769531 202.757812 265.980469 201.625 267.804688 197.761719 C 264.804688 200.660156 260.699219 203.628906 261.542969 208.292969 C 261.65625 208.921875 261.867188 209.539062 262.164062 210.105469 " fill-opacity="1" fill-rule="nonzero"/></g></g></g></g><g clip-path="url(#679d40db0e)"><g clip-path="url(#f8a6b2082a)"><g clip-path="url(#5f041d2302)"><g clip-path="url(#9ad840a831)"><path fill="#5c2f1d" d="M 265.632812 225.132812 C 265.25 225.351562 264.679688 225.285156 264.382812 224.949219 C 263.359375 223.78125 262.964844 222.398438 262.441406 221.027344 C 261.882812 222.164062 261.757812 223.78125 261.328125 224.78125 C 260.921875 225.71875 259.683594 225.785156 259.328125 224.757812 C 258.523438 222.421875 258.273438 219.960938 257.769531 217.554688 C 256.847656 219 256.136719 220.597656 255.148438 221.996094 C 254.75 222.558594 253.679688 222.746094 253.359375 221.964844 C 252.703125 220.378906 252.601562 218.769531 252.636719 217.132812 C 251.347656 219.503906 250.285156 221.988281 249.679688 224.609375 C 248.710938 228.832031 249.03125 233.488281 251.332031 237.15625 C 251.332031 237.15625 254.515625 238.285156 256.949219 238.246094 C 259.714844 238.203125 261.859375 235.832031 263.261719 233.449219 C 264.917969 230.644531 266.042969 227.535156 266.621094 224.332031 C 266.332031 224.644531 266.003906 224.917969 265.632812 225.132812 " fill-opacity="1" fill-rule="nonzero"/></g></g></g></g><g clip-path="url(#b1f84da665)"><g clip-path="url(#3e6b4d6c9b)"><g clip-path="url(#25a6ee3c07)"><g clip-path="url(#6855a2628d)"><path fill="#d01e31" d="M 226.886719 339.65625 C 226.71875 339.691406 226.550781 339.730469 226.382812 339.769531 C 225.378906 339.421875 224.609375 339.15625 223.609375 338.804688 C 222.597656 337.546875 222.175781 335.914062 222.457031 334.324219 C 228.417969 300.703125 237.921875 267.792969 250.816406 236.152344 L 250.863281 236.125 L 258.210938 238.199219 L 258.238281 238.242188 C 252.578125 271.792969 243.390625 304.65625 230.832031 336.289062 C 230.15625 337.992188 228.675781 339.25 226.886719 339.65625 " fill-opacity="1" fill-rule="nonzero"/></g></g></g></g><g clip-path="url(#662566b890)"><g clip-path="url(#a0cfe21402)"><g clip-path="url(#cf0ce764e0)"><g clip-path="url(#707ba7dcee)"><path fill="#e6294f" d="M 223.621094 338.824219 L 223.609375 338.804688 C 222.597656 337.546875 222.175781 335.914062 222.457031 334.324219 C 228.425781 300.644531 237.953125 267.683594 250.882812 235.988281 C 252.046875 236.425781 251.511719 236.226562 252.679688 236.664062 C 241.144531 270.082031 231.402344 304.34375 223.621094 338.824219 " fill-opacity="1" fill-rule="nonzero"/></g></g></g></g><g clip-path="url(#cf1015e873)"><g clip-path="url(#2c976d4272)"><g clip-path="url(#1f40977f76)"><g clip-path="url(#0ca6dd0296)"><path fill="#aa1727" d="M 226.742188 339.6875 L 226.710938 339.695312 C 237.613281 306.109375 247.355469 271.863281 255.757812 237.574219 C 257.375 237.90625 256.648438 237.757812 258.265625 238.089844 C 252.617188 271.632812 243.445312 304.488281 230.902344 336.117188 C 230.1875 337.917969 228.632812 339.253906 226.742188 339.6875 " fill-opacity="1" fill-rule="nonzero"/></g></g></g></g><g clip-path="url(#2b69b991a8)"><g clip-path="url(#702ef097b0)"><g clip-path="url(#c12867dede)"><g clip-path="url(#289d400364)"><path fill="#bac3c6" d="M 251.652344 270.523438 C 254.214844 259.835938 256.414062 249.058594 258.246094 238.207031 L 250.832031 236.117188 C 246.628906 246.421875 242.792969 256.863281 239.316406 267.417969 C 242.988281 269.890625 247.402344 271.089844 251.652344 270.523438 " fill-opacity="1" fill-rule="nonzero"/></g></g></g></g><g clip-path="url(#37b7bc89ab)"><g clip-path="url(#3aebb2b047)"><g clip-path="url(#abacebe83c)"><g clip-path="url(#6dc8f8a835)"><path fill="#cde7d3" d="M 252.671875 236.671875 L 250.832031 236.117188 C 246.628906 246.421875 242.792969 256.863281 239.316406 267.417969 C 240.320312 268.09375 241.378906 268.667969 242.472656 269.140625 L 252.671875 236.671875 " fill-opacity="1" fill-rule="nonzero"/></g></g></g></g><g clip-path="url(#f7510eacc7)"><g clip-path="url(#d16c839511)"><g clip-path="url(#970dabb910)"><g clip-path="url(#a8524381b7)"><path fill="#a5acaf" d="M 247.203125 270.492188 C 248.679688 270.699219 250.175781 270.722656 251.652344 270.523438 C 254.214844 259.835938 256.414062 249.058594 258.246094 238.207031 L 255.757812 237.574219 L 247.203125 270.492188 " fill-opacity="1" fill-rule="nonzero"/></g></g></g></g><g clip-path="url(#f7bcf777a1)"><g clip-path="url(#b144043e92)"><g clip-path="url(#1ab50a25fc)"><g clip-path="url(#9917b2fa1d)"><path fill="#6f7275" d="M 258.269531 242.953125 C 258.5 241.621094 258.726562 240.285156 258.945312 238.949219 C 259.054688 238.277344 258.648438 237.632812 258.003906 237.453125 L 251.433594 235.597656 C 250.789062 235.417969 250.105469 235.757812 249.84375 236.386719 C 249.328125 237.636719 248.816406 238.890625 248.308594 240.144531 C 248.007812 240.890625 248.410156 241.722656 249.164062 241.9375 L 256.601562 244.03125 C 257.355469 244.246094 258.136719 243.742188 258.269531 242.953125 " fill-opacity="1" fill-rule="nonzero"/></g></g></g></g><g clip-path="url(#be597e4487)"><g clip-path="url(#d089245b0f)"><g clip-path="url(#17e24d3167)"><g clip-path="url(#9d85de5a30)"><path fill="#616365" d="M 258.269531 242.953125 C 258.484375 241.722656 258.691406 240.488281 258.894531 239.253906 C 256.792969 241.710938 252.21875 241.515625 248.398438 239.929688 C 248.367188 240 248.339844 240.074219 248.308594 240.144531 C 248.007812 240.890625 248.410156 241.722656 249.164062 241.9375 L 256.601562 244.03125 C 257.355469 244.246094 258.136719 243.742188 258.269531 242.953125 " fill-opacity="1" fill-rule="nonzero"/></g></g></g></g><g clip-path="url(#6ef521b816)"><g clip-path="url(#150a82cd16)"><g clip-path="url(#c90b8b8058)"><g clip-path="url(#4abece6544)"><path fill="#964e33" d="M 257.433594 237.289062 C 257.433594 237.289062 257.46875 237.300781 257.523438 237.261719 C 257.578125 237.226562 257.648438 237.15625 257.726562 237.058594 C 257.890625 236.863281 258.089844 236.546875 258.335938 236.140625 C 258.585938 235.734375 258.863281 235.230469 259.183594 234.648438 C 259.34375 234.359375 259.515625 234.050781 259.695312 233.722656 C 259.875 233.398438 260.082031 233.0625 260.253906 232.699219 C 260.441406 232.335938 260.632812 231.957031 260.832031 231.570312 C 261.027344 231.179688 261.207031 230.761719 261.398438 230.339844 C 261.496094 230.125 261.59375 229.910156 261.691406 229.695312 C 261.78125 229.472656 261.871094 229.25 261.964844 229.023438 C 262.054688 228.796875 262.148438 228.566406 262.242188 228.335938 L 262.378906 228 L 262.503906 227.636719 C 262.671875 227.15625 262.835938 226.664062 263.007812 226.167969 C 263.152344 225.667969 263.277344 225.160156 263.417969 224.652344 C 263.570312 224.148438 263.660156 223.617188 263.765625 223.09375 L 263.921875 222.300781 C 263.976562 222.035156 264 221.765625 264.039062 221.5 C 264.109375 220.964844 264.207031 220.433594 264.253906 219.898438 C 264.296875 219.363281 264.34375 218.828125 264.390625 218.300781 C 264.433594 217.238281 264.503906 216.191406 264.484375 215.175781 C 264.5 214.160156 264.460938 213.179688 264.4375 212.25 C 264.402344 211.320312 264.324219 210.441406 264.265625 209.628906 C 264.199219 208.8125 264.164062 208.0625 264.164062 207.398438 C 264.148438 207.066406 264.171875 206.753906 264.179688 206.464844 C 264.179688 206.175781 264.207031 205.914062 264.234375 205.675781 C 264.261719 205.4375 264.273438 205.222656 264.308594 205.042969 C 264.347656 204.859375 264.378906 204.707031 264.402344 204.582031 C 264.457031 204.332031 264.484375 204.199219 264.484375 204.199219 C 264.484375 204.199219 264.464844 204.332031 264.433594 204.585938 C 264.417969 204.710938 264.398438 204.867188 264.375 205.050781 C 264.355469 205.234375 264.359375 205.445312 264.34375 205.683594 C 264.332031 205.917969 264.320312 206.179688 264.335938 206.464844 C 264.347656 206.753906 264.339844 207.058594 264.375 207.390625 C 264.417969 208.046875 264.496094 208.789062 264.582031 209.597656 C 264.671875 210.40625 264.78125 211.289062 264.851562 212.226562 C 264.910156 213.160156 264.988281 214.148438 264.988281 215.171875 C 264.996094 215.683594 265.011719 216.203125 264.988281 216.730469 C 264.972656 217.261719 264.96875 217.792969 264.9375 218.332031 C 264.894531 218.871094 264.851562 219.410156 264.808594 219.953125 C 264.761719 220.5 264.667969 221.039062 264.601562 221.582031 C 264.558594 221.855469 264.535156 222.125 264.476562 222.394531 L 264.3125 223.199219 C 264.199219 223.734375 264.109375 224.269531 263.945312 224.792969 C 263.800781 225.316406 263.664062 225.839844 263.503906 226.34375 C 263.328125 226.835938 263.148438 227.324219 262.972656 227.800781 L 262.84375 228.160156 L 262.691406 228.519531 C 262.589844 228.75 262.488281 228.976562 262.390625 229.203125 C 262.289062 229.429688 262.191406 229.652344 262.09375 229.875 C 261.984375 230.089844 261.878906 230.300781 261.773438 230.511719 C 261.5625 230.933594 261.367188 231.347656 261.15625 231.734375 C 260.941406 232.121094 260.734375 232.496094 260.53125 232.855469 C 260.136719 233.574219 259.714844 234.191406 259.367188 234.757812 C 259.011719 235.316406 258.703125 235.808594 258.429688 236.199219 C 258.160156 236.59375 257.925781 236.890625 257.75 237.078125 C 257.664062 237.171875 257.585938 237.238281 257.527344 237.265625 C 257.46875 237.304688 257.433594 237.289062 257.433594 237.289062 " fill-opacity="1" fill-rule="nonzero"/></g></g></g></g><g clip-path="url(#26e996e5b5)"><g clip-path="url(#ad233e404c)"><g clip-path="url(#6d71859346)"><g clip-path="url(#ff18188681)"><path fill="#964e33" d="M 255.875 236.851562 C 255.875 236.851562 255.949219 236.554688 256.082031 236.03125 C 256.21875 235.511719 256.417969 234.765625 256.652344 233.875 C 256.890625 232.984375 257.1875 231.953125 257.503906 230.84375 C 257.824219 229.738281 258.167969 228.558594 258.511719 227.382812 C 258.863281 226.207031 259.214844 225.03125 259.542969 223.925781 C 259.703125 223.375 259.878906 222.84375 260.019531 222.335938 C 260.167969 221.832031 260.308594 221.355469 260.433594 220.910156 C 260.558594 220.46875 260.703125 220.070312 260.789062 219.707031 C 260.882812 219.34375 260.964844 219.027344 261.03125 218.769531 C 261.167969 218.25 261.25 217.953125 261.25 217.953125 C 261.25 217.953125 261.214844 218.257812 261.140625 218.789062 C 261.097656 219.054688 261.050781 219.382812 260.996094 219.753906 C 260.945312 220.128906 260.847656 220.539062 260.753906 220.988281 C 260.652344 221.441406 260.542969 221.929688 260.429688 222.445312 C 260.316406 222.964844 260.167969 223.5 260.023438 224.058594 C 259.875 224.617188 259.730469 225.195312 259.566406 225.777344 C 259.398438 226.359375 259.226562 226.949219 259.054688 227.542969 C 258.703125 228.71875 258.339844 229.894531 257.980469 230.988281 C 257.625 232.085938 257.273438 233.101562 256.960938 233.972656 C 256.65625 234.84375 256.371094 235.558594 256.1875 236.0625 C 255.992188 236.566406 255.875 236.851562 255.875 236.851562 " fill-opacity="1" fill-rule="nonzero"/></g></g></g></g><g clip-path="url(#363be95872)"><g clip-path="url(#f0ccfbcc19)"><g clip-path="url(#124eca18e7)"><g clip-path="url(#e42e2064d6)"><path fill="#964e33" d="M 253.878906 236.289062 C 253.878906 236.289062 253.875 235.789062 253.910156 234.917969 C 253.957031 234.046875 254.015625 232.796875 254.183594 231.308594 C 254.355469 229.820312 254.585938 228.082031 254.953125 226.242188 C 255.316406 224.402344 255.8125 222.453125 256.449219 220.546875 C 256.773438 219.597656 257.136719 218.660156 257.535156 217.753906 C 257.730469 217.300781 257.945312 216.855469 258.160156 216.421875 C 258.375 215.992188 258.582031 215.566406 258.789062 215.148438 C 259.214844 214.3125 259.582031 213.492188 259.945312 212.722656 C 260.128906 212.335938 260.28125 211.949219 260.445312 211.582031 C 260.605469 211.214844 260.757812 210.855469 260.890625 210.507812 C 261.167969 209.816406 261.410156 209.175781 261.617188 208.605469 C 261.824219 208.035156 261.992188 207.535156 262.125 207.121094 C 262.394531 206.289062 262.546875 205.8125 262.546875 205.8125 C 262.546875 205.8125 262.441406 206.300781 262.230469 207.148438 C 262.125 207.570312 261.988281 208.085938 261.820312 208.671875 C 261.730469 208.964844 261.640625 209.273438 261.539062 209.601562 C 261.433594 209.925781 261.3125 210.265625 261.191406 210.621094 C 261.070312 210.976562 260.929688 211.339844 260.785156 211.71875 C 260.636719 212.09375 260.492188 212.488281 260.328125 212.886719 C 259.988281 213.675781 259.652344 214.527344 259.242188 215.363281 C 259.042969 215.789062 258.839844 216.21875 258.636719 216.65625 C 258.433594 217.089844 258.226562 217.523438 258.035156 217.972656 C 257.652344 218.863281 257.300781 219.792969 256.984375 220.730469 C 256.664062 221.667969 256.382812 222.617188 256.125 223.558594 C 255.875 224.503906 255.636719 225.433594 255.4375 226.34375 C 255.042969 228.160156 254.71875 229.871094 254.5 231.347656 C 254.28125 232.824219 254.109375 234.058594 254.019531 234.925781 C 253.921875 235.792969 253.878906 236.289062 253.878906 236.289062 " fill-opacity="1" fill-rule="nonzero"/></g></g></g></g><g clip-path="url(#25d48637f0)"><g clip-path="url(#4ac260261f)"><g clip-path="url(#824990dc90)"><g clip-path="url(#bcc38db123)"><path fill="#964e33" d="M 251.433594 235.597656 C 251.433594 235.597656 251.40625 235.476562 251.375 235.238281 C 251.339844 235 251.296875 234.652344 251.257812 234.210938 C 251.222656 233.765625 251.183594 233.226562 251.15625 232.601562 C 251.132812 231.980469 251.101562 231.28125 251.125 230.515625 C 251.128906 229.75 251.171875 228.917969 251.230469 228.042969 C 251.265625 227.605469 251.296875 227.152344 251.34375 226.695312 C 251.40625 226.238281 251.46875 225.769531 251.53125 225.292969 C 251.605469 224.820312 251.699219 224.339844 251.785156 223.851562 C 251.867188 223.363281 252.003906 222.878906 252.117188 222.386719 C 252.222656 221.894531 252.386719 221.410156 252.535156 220.917969 C 252.609375 220.671875 252.683594 220.425781 252.761719 220.183594 L 253.039062 219.460938 L 253.316406 218.742188 C 253.40625 218.5 253.535156 218.277344 253.640625 218.042969 L 253.976562 217.347656 L 254.144531 217.003906 L 254.339844 216.675781 C 254.601562 216.242188 254.859375 215.800781 255.125 215.386719 C 255.394531 214.976562 255.664062 214.574219 255.925781 214.175781 C 256.449219 213.378906 256.96875 212.613281 257.457031 211.886719 C 257.703125 211.527344 257.941406 211.171875 258.171875 210.832031 C 258.394531 210.484375 258.609375 210.152344 258.816406 209.832031 C 259.226562 209.1875 259.609375 208.605469 259.953125 208.085938 C 260.300781 207.570312 260.570312 207.101562 260.808594 206.726562 C 261.035156 206.34375 261.234375 206.054688 261.351562 205.84375 C 261.46875 205.636719 261.535156 205.527344 261.535156 205.527344 C 261.535156 205.527344 261.480469 205.644531 261.378906 205.859375 C 261.277344 206.078125 261.113281 206.386719 260.902344 206.78125 C 260.691406 207.171875 260.449219 207.660156 260.132812 208.195312 C 259.828125 208.734375 259.480469 209.34375 259.089844 210 C 258.894531 210.332031 258.691406 210.675781 258.480469 211.03125 C 258.261719 211.378906 258.039062 211.742188 257.808594 212.113281 C 257.34375 212.855469 256.859375 213.640625 256.34375 214.445312 C 256.089844 214.847656 255.832031 215.261719 255.566406 215.675781 C 255.320312 216.09375 255.070312 216.515625 254.820312 216.941406 L 254.628906 217.261719 L 254.46875 217.597656 L 254.148438 218.277344 C 254.046875 218.503906 253.921875 218.722656 253.839844 218.960938 L 253.292969 220.367188 C 253.210938 220.605469 253.140625 220.847656 253.066406 221.085938 C 252.917969 221.566406 252.753906 222.035156 252.648438 222.523438 C 252.535156 223.007812 252.390625 223.480469 252.300781 223.957031 C 252.207031 224.433594 252.105469 224.90625 252.023438 225.371094 C 251.949219 225.839844 251.875 226.300781 251.804688 226.75 C 251.742188 227.203125 251.695312 227.648438 251.640625 228.078125 C 251.546875 228.945312 251.476562 229.765625 251.441406 230.523438 C 251.417969 230.90625 251.40625 231.269531 251.394531 231.613281 C 251.382812 231.960938 251.363281 232.289062 251.367188 232.601562 C 251.355469 233.21875 251.359375 233.757812 251.367188 234.203125 C 251.382812 234.644531 251.390625 234.996094 251.40625 235.234375 C 251.414062 235.472656 251.433594 235.597656 251.433594 235.597656 " fill-opacity="1" fill-rule="nonzero"/></g></g></g></g><g clip-path="url(#f2348b3fcc)"><path fill="#000000" d="M 422.292969 294.328125 C 422.714844 295.683594 423.570312 296.78125 424.554688 297.785156 C 426.015625 299.273438 427.511719 300.738281 428.902344 302.285156 C 439.253906 313.820312 445.609375 327.300781 448.40625 342.503906 C 449.246094 347.070312 449.714844 351.675781 449.957031 356.304688 C 449.980469 356.761719 449.960938 357.222656 449.960938 357.742188 C 449.445312 357.863281 448.964844 357.960938 448.492188 358.085938 C 446.933594 358.484375 445.519531 359.179688 444.367188 360.324219 C 442.792969 361.886719 442.554688 363.105469 443.421875 365.183594 C 442.957031 365.429688 442.496094 365.714844 442.007812 365.925781 C 440.71875 366.46875 440 367.425781 439.738281 368.78125 C 439.457031 370.21875 439.183594 371.660156 438.859375 373.089844 C 438.402344 375.128906 437.5625 376.945312 435.894531 378.328125 C 434.875 379.175781 434.589844 380.707031 435.074219 381.9375 C 435.507812 383.050781 436.515625 383.664062 437.984375 383.554688 C 438.699219 383.5 439.402344 383.238281 440.101562 383.042969 C 440.34375 382.976562 440.558594 382.824219 440.949219 382.628906 C 440.777344 383.140625 440.65625 383.496094 440.539062 383.847656 C 439.394531 387.285156 438.046875 390.664062 437.351562 394.238281 C 437.082031 395.640625 436.769531 397.066406 437.21875 398.480469 C 437.4375 399.167969 437.742188 399.863281 438.164062 400.4375 C 439.289062 401.953125 440.59375 402.097656 442.726562 401.011719 C 442.917969 402.78125 443.894531 403.847656 445.636719 404.070312 C 447.402344 404.292969 448.46875 403.09375 449.589844 401.9375 C 449.921875 402.085938 450.261719 402.25 450.605469 402.382812 C 452.03125 402.933594 453.351562 402.757812 454.472656 401.691406 C 455.171875 401.027344 455.804688 400.304688 456.507812 399.570312 C 456.652344 399.582031 456.847656 399.578125 457.027344 399.621094 C 458.867188 400.066406 460.367188 399.472656 461.636719 398.136719 C 463.042969 396.65625 464.03125 394.90625 464.777344 393.035156 C 467.710938 385.6875 468.375 378.144531 466.386719 370.449219 C 465.808594 368.207031 465.03125 366.015625 463.480469 364.199219 C 463.324219 364.015625 463.246094 363.710938 463.226562 363.460938 C 463.0625 361.347656 461.824219 360.007812 460.0625 359.070312 C 459.382812 358.710938 458.636719 358.488281 457.859375 358.179688 C 457.804688 356.828125 457.75 355.445312 457.707031 354.058594 C 457.449219 345.316406 455.816406 336.8125 453.199219 328.484375 C 450.914062 321.199219 448.023438 314.179688 443.867188 307.746094 C 440.070312 301.871094 435.507812 296.644531 430.085938 292.191406 C 428.964844 291.273438 427.707031 290.644531 426.347656 290.160156 C 425.03125 289.691406 423.898438 289.941406 422.929688 290.871094 C 421.925781 291.847656 421.910156 293.09375 422.292969 294.328125 Z M 422.292969 294.328125 " fill-opacity="1" fill-rule="nonzero"/></g><path fill="#ffffff" d="M 463.128906 365.265625 C 461.328125 368.25 458.441406 369.75 456.84375 368.433594 C 457.351562 368.304688 457.773438 368.175781 458.203125 368.089844 C 459.335938 367.859375 460.308594 367.324219 461.117188 366.515625 C 462.65625 364.984375 462.730469 362.851562 461.332031 361.1875 C 460.53125 360.234375 459.394531 359.570312 457.890625 359.226562 C 457.839844 359.988281 457.796875 360.742188 457.734375 361.492188 C 457.617188 362.949219 457.105469 363.609375 455.664062 363.84375 C 454.605469 364.019531 453.507812 364.109375 452.445312 364.023438 C 451.753906 363.972656 451.050781 363.609375 450.429688 363.257812 C 449.867188 362.933594 449.667969 362.421875 449.828125 361.675781 C 450.023438 360.75 449.972656 359.777344 450.03125 358.691406 C 447.640625 359.125 445.648438 359.925781 444.289062 361.851562 C 443.410156 363.085938 443.585938 364.113281 444.785156 365.074219 C 445.265625 365.460938 445.800781 365.78125 446.296875 366.140625 C 446.496094 366.285156 446.671875 366.460938 446.984375 366.730469 C 445.6875 367 444.976562 366.152344 444.148438 365.792969 C 443.5 366.132812 442.902344 366.484375 442.277344 366.773438 C 441.40625 367.175781 440.871094 367.828125 440.675781 368.765625 C 440.371094 370.238281 440.101562 371.722656 439.78125 373.191406 C 439.289062 375.425781 438.40625 377.449219 436.566406 378.941406 C 435.78125 379.578125 435.683594 380.453125 435.839844 381.367188 C 435.96875 382.113281 436.566406 382.582031 437.417969 382.648438 C 438.546875 382.738281 439.550781 382.40625 440.433594 381.695312 C 441.003906 381.242188 441.582031 380.796875 442.121094 380.375 C 442.59375 380.578125 442.519531 380.890625 442.421875 381.191406 C 442.117188 382.148438 441.808594 383.097656 441.5 384.054688 C 440.511719 387.140625 439.480469 390.214844 438.542969 393.316406 C 438.234375 394.34375 438.121094 395.433594 437.988281 396.503906 C 437.851562 397.609375 438.070312 398.664062 438.683594 399.605469 C 439.675781 401.121094 441.160156 401.273438 442.335938 399.914062 C 442.910156 399.25 443.359375 398.460938 443.757812 397.679688 C 445.152344 394.957031 446.097656 392.054688 446.976562 389.132812 C 447.496094 387.394531 447.941406 385.636719 448.449219 383.898438 C 448.558594 383.53125 448.574219 383.046875 449.269531 382.835938 C 449.273438 383.238281 449.34375 383.5625 449.273438 383.851562 C 448 389.109375 446.628906 394.332031 444.070312 399.15625 C 443.78125 399.707031 443.667969 400.40625 443.667969 401.039062 C 443.667969 402.609375 445.191406 403.652344 446.664062 403.054688 C 447.316406 402.789062 447.988281 402.339844 448.410156 401.789062 C 449.253906 400.699219 450.050781 399.539062 450.664062 398.304688 C 452.625 394.335938 453.800781 390.09375 454.625 385.757812 C 454.828125 384.695312 454.984375 383.625 455.179688 382.5625 C 455.238281 382.242188 455.351562 381.929688 455.449219 381.554688 C 456.050781 381.753906 456.023438 382.171875 455.984375 382.527344 C 455.863281 383.714844 455.753906 384.910156 455.535156 386.082031 C 454.726562 390.425781 453.476562 394.632812 451.566406 398.632812 C 451.171875 399.464844 450.710938 400.265625 450.285156 401.074219 C 451.3125 401.917969 452.628906 402.042969 453.558594 401.199219 C 454.464844 400.375 455.296875 399.4375 455.996094 398.433594 C 457.492188 396.257812 458.53125 393.835938 459.4375 391.371094 C 460.730469 387.84375 461.710938 384.242188 462.082031 380.488281 C 462.105469 380.261719 462.246094 380.050781 462.378906 379.71875 C 462.929688 380.28125 462.796875 380.839844 462.777344 381.347656 C 462.699219 383.484375 462.246094 385.554688 461.667969 387.605469 C 460.636719 391.257812 459.265625 394.769531 457.378906 398.078125 C 457.289062 398.234375 457.230469 398.410156 457.132812 398.640625 C 458.316406 399.050781 459.371094 398.882812 460.21875 398.125 C 460.988281 397.4375 461.699219 396.644531 462.265625 395.785156 C 463.972656 393.207031 464.96875 390.328125 465.617188 387.328125 C 466.800781 381.859375 466.988281 376.375 465.5 370.925781 C 465.070312 369.371094 464.386719 367.890625 463.789062 366.382812 C 463.625 366 463.367188 365.664062 463.128906 365.265625 Z M 454.863281 378.390625 C 455.082031 378.160156 455.203125 377.914062 455.363281 377.882812 C 455.503906 377.859375 455.683594 378.082031 455.847656 378.195312 C 455.730469 378.359375 455.640625 378.609375 455.488281 378.652344 C 455.339844 378.695312 455.132812 378.519531 454.863281 378.390625 Z M 461.84375 377.113281 C 462.066406 376.96875 462.21875 376.804688 462.347656 376.820312 C 462.464844 376.832031 462.660156 377.070312 462.636719 377.164062 C 462.605469 377.296875 462.414062 377.46875 462.277344 377.476562 C 462.167969 377.484375 462.039062 377.289062 461.84375 377.113281 Z M 461.84375 377.113281 " fill-opacity="1" fill-rule="nonzero"/><path fill="#000000" d="M 450.664062 362.316406 C 451.207031 362.882812 451.9375 363.207031 452.785156 363.179688 C 453.710938 363.152344 454.640625 363.121094 455.546875 362.957031 C 456.644531 362.765625 456.882812 362.414062 456.894531 361.304688 C 457.046875 350.140625 455.628906 339.207031 452.183594 328.554688 C 449.878906 321.441406 447.074219 314.554688 443.003906 308.253906 C 439.3125 302.539062 434.882812 297.445312 429.621094 293.109375 C 428.703125 292.351562 427.660156 291.746094 426.640625 291.117188 C 425.65625 290.507812 424.691406 290.808594 423.824219 291.402344 C 423.097656 291.898438 422.867188 292.898438 423.195312 293.925781 C 423.601562 295.210938 424.417969 296.226562 425.332031 297.191406 C 427.375 299.347656 429.464844 301.472656 431.398438 303.726562 C 440.488281 314.355469 446.125 326.660156 448.953125 340.289062 C 450.144531 346.046875 450.777344 351.878906 450.863281 357.765625 C 450.882812 359.226562 450.738281 360.683594 450.664062 362.316406 Z M 450.664062 362.316406 " fill-opacity="1" fill-rule="nonzero"/><g clip-path="url(#769c467fc2)"><path fill="#000000" d="M 409.558594 489.5625 C 409.140625 490.351562 408.621094 490.902344 407.855469 491.320312 C 405.058594 492.847656 402.027344 493.679688 398.941406 494.230469 C 391.179688 495.628906 383.417969 495.691406 375.691406 493.984375 C 373.128906 493.421875 370.652344 492.609375 368.375 491.246094 C 365.414062 489.476562 363.980469 486.925781 363.976562 483.464844 C 363.960938 477.753906 364.835938 472.199219 366.511719 466.757812 C 366.695312 466.167969 366.800781 465.699219 366.296875 465.199219 C 364.976562 463.902344 365.089844 461.628906 366.277344 459.980469 C 367.359375 458.46875 368.855469 457.554688 370.582031 456.964844 C 371.214844 456.742188 371.867188 456.558594 372.628906 456.324219 C 372.503906 454.523438 372.433594 452.761719 372.25 451.003906 C 371.691406 445.691406 371.171875 440.367188 370.472656 435.074219 C 368.914062 423.214844 366.398438 411.550781 363.023438 400.078125 C 361.902344 396.261719 360.691406 392.472656 359.460938 388.6875 C 359.03125 387.363281 359.054688 386.214844 360.15625 385.257812 C 361.148438 384.394531 363 384.203125 364.132812 384.976562 C 364.660156 385.332031 365.101562 385.929688 365.394531 386.511719 C 367.613281 390.976562 369.242188 395.675781 370.71875 400.433594 C 373.492188 409.34375 375.703125 418.394531 377.207031 427.601562 C 378.457031 435.257812 379.46875 442.945312 379.804688 450.699219 C 379.875 452.265625 379.816406 453.839844 379.816406 455.570312 C 382.234375 455.664062 384.226562 456.523438 385.992188 457.90625 C 388.003906 459.472656 388.289062 460.585938 387.570312 463.074219 C 387.453125 463.484375 387.667969 464.074219 387.890625 464.5 C 388.910156 466.449219 389.988281 468.355469 391.128906 470.429688 C 391.558594 470.429688 392.175781 470.457031 392.789062 470.425781 C 395.878906 470.277344 398.855469 470.796875 401.671875 472.035156 C 406.320312 474.078125 409.453125 477.484375 410.496094 482.542969 C 410.972656 484.945312 410.757812 487.320312 409.558594 489.5625 Z M 341.691406 467.492188 C 341.480469 466.808594 341.371094 466.300781 341.929688 465.648438 C 343.375 463.953125 343.28125 462.394531 341.753906 460.746094 C 340.269531 459.140625 338.449219 458.203125 336.226562 458.140625 C 335.617188 458.121094 335.015625 458.082031 334.234375 458.042969 C 334.234375 457.226562 334.246094 456.554688 334.234375 455.882812 C 333.972656 445.070312 334.476562 434.292969 335.753906 423.554688 C 336.648438 416.058594 337.753906 408.601562 339.605469 401.277344 C 340.59375 397.371094 341.835938 393.53125 342.90625 389.644531 C 343.179688 388.648438 343.34375 387.589844 343.332031 386.570312 C 343.3125 385.3125 342.28125 384.34375 340.929688 384 C 339.46875 383.632812 338.417969 383.988281 337.683594 385.230469 C 337.207031 386.035156 336.777344 386.898438 336.496094 387.785156 C 335.304688 391.578125 334.019531 395.351562 333.046875 399.203125 C 330.722656 408.40625 329.277344 417.777344 328.25 427.210938 C 327.152344 437.269531 326.257812 447.339844 326.359375 457.472656 C 326.367188 457.878906 326.300781 458.292969 326.265625 458.761719 C 324.082031 458.683594 322.371094 459.675781 320.800781 460.929688 C 319.011719 462.351562 317.863281 465.414062 320.566406 467.542969 C 320.640625 467.609375 320.699219 467.703125 320.917969 467.980469 C 320.445312 468.871094 319.9375 469.71875 319.523438 470.613281 C 319.132812 471.46875 318.535156 471.78125 317.589844 471.851562 C 313.671875 472.148438 309.953125 473.171875 306.699219 475.472656 C 302.519531 478.425781 300.183594 482.480469 299.78125 487.605469 C 299.644531 489.4375 300.09375 491.074219 301.761719 492.09375 C 302.914062 492.804688 304.074219 493.539062 305.328125 494.035156 C 308.421875 495.253906 311.683594 495.785156 315 495.886719 C 318.523438 496 322.003906 495.578125 325.464844 494.941406 C 330.269531 494.066406 334.964844 492.785156 339.34375 490.574219 C 340.644531 489.917969 341.84375 489.050781 343.027344 488.199219 C 344.066406 487.453125 344.566406 486.355469 344.566406 485.074219 C 344.566406 483.449219 344.605469 481.820312 344.472656 480.203125 C 344.09375 475.851562 342.964844 471.652344 341.691406 467.492188 Z M 341.691406 467.492188 " fill-opacity="1" fill-rule="nonzero"/></g><path fill="#ffffff" d="M 367.734375 466.523438 C 369.300781 466.992188 370.683594 467.640625 372.273438 467.304688 C 372.152344 466.523438 371.601562 466.554688 371.207031 466.398438 C 370.289062 466.027344 369.308594 465.78125 368.445312 465.304688 C 366.359375 464.152344 365.976562 462.292969 367.539062 460.480469 C 368.265625 459.636719 369.292969 459.019531 370.265625 458.4375 C 370.921875 458.042969 371.714844 457.871094 372.566406 457.5625 C 372.671875 458.324219 372.710938 458.988281 372.871094 459.625 C 372.988281 460.113281 373.160156 460.667969 373.496094 461.007812 C 375.328125 462.851562 378.773438 461.949219 379.480469 459.453125 C 379.703125 458.664062 379.75 457.820312 379.894531 456.839844 C 382.5625 457.046875 384.738281 458.089844 386.375 460.164062 C 386.898438 460.828125 386.933594 461.648438 386.4375 462.371094 C 385.992188 463.011719 385.46875 463.601562 384.992188 464.214844 C 384.789062 464.480469 384.605469 464.761719 384.375 465.078125 C 385.351562 465.707031 385.753906 464.632812 386.609375 464.59375 C 387.679688 466.511719 388.789062 468.503906 389.960938 470.59375 C 388.484375 470.996094 387.117188 471.285156 385.804688 471.742188 C 381.566406 473.214844 378.101562 475.707031 375.699219 479.554688 C 375.394531 480.042969 375.121094 480.566406 374.941406 481.105469 C 374.855469 481.375 375.007812 481.726562 375.09375 482.371094 C 375.546875 481.863281 375.824219 481.648438 375.984375 481.363281 C 378.734375 476.421875 383.03125 473.625 388.421875 472.328125 C 392.785156 471.273438 397.0625 471.453125 401.183594 473.269531 C 405.46875 475.160156 408.304688 478.339844 409.242188 483.03125 C 409.671875 485.207031 409.222656 487.3125 408.539062 489.359375 C 408.40625 489.761719 407.839844 490.097656 407.402344 490.300781 C 403.953125 491.886719 400.320312 492.84375 396.582031 493.386719 C 391.425781 494.144531 386.253906 494.289062 381.074219 493.707031 C 377.789062 493.335938 374.53125 492.78125 371.480469 491.460938 C 370.015625 490.820312 368.597656 489.964844 367.339844 488.96875 C 365.710938 487.675781 364.984375 485.898438 365.050781 483.730469 C 365.253906 477.945312 366.148438 472.28125 367.734375 466.523438 Z M 334.335938 480.070312 C 328.539062 473.886719 321.476562 471.890625 313.324219 473.925781 C 306.339844 475.664062 301.933594 480.566406 301.0625 487.238281 C 300.703125 490.015625 301.113281 490.859375 303.648438 492.042969 C 307.148438 493.679688 310.863281 494.511719 314.71875 494.675781 C 317.710938 494.808594 320.683594 494.53125 323.632812 494.0625 C 328.820312 493.234375 333.886719 491.972656 338.628906 489.660156 C 339.976562 489 341.21875 488.105469 342.46875 487.253906 C 343.402344 486.621094 343.679688 485.703125 343.65625 484.542969 C 343.535156 479.53125 342.660156 474.652344 341.277344 469.851562 C 341.011719 468.921875 340.738281 467.988281 340.464844 467.054688 C 338.832031 467.644531 338.832031 467.644531 337.90625 467.289062 C 338.460938 466.941406 338.949219 466.675781 339.394531 466.347656 C 339.894531 465.972656 340.394531 465.578125 340.832031 465.132812 C 341.992188 463.960938 342.058594 462.921875 340.980469 461.679688 C 339.3125 459.757812 337.164062 459.070312 334.578125 459.324219 C 334.578125 460.015625 334.558594 460.625 334.582031 461.234375 C 334.632812 462.515625 334.398438 462.972656 333.246094 463.371094 C 331.597656 463.949219 329.910156 464.234375 328.152344 463.847656 C 326.960938 463.585938 326.582031 463.199219 326.453125 461.964844 C 326.390625 461.304688 326.347656 460.644531 326.296875 460.015625 C 324.070312 459.851562 321.238281 461.449219 320.4375 463.21875 C 319.808594 464.601562 320.121094 465.78125 321.394531 466.644531 C 321.820312 466.9375 322.308594 467.207031 322.804688 467.308594 C 323.976562 467.542969 325.175781 467.660156 326.359375 467.835938 C 326.625 467.875 326.886719 467.96875 327.144531 468.039062 C 325.476562 469.117188 323.746094 468.75 322.03125 468.46875 C 321.441406 469.566406 320.886719 470.601562 320.261719 471.753906 C 320.792969 471.855469 321.140625 471.957031 321.492188 471.992188 C 323.644531 472.191406 325.699219 472.796875 327.683594 473.625 C 330.644531 474.863281 333.128906 476.734375 335.050781 479.316406 C 335.433594 479.824219 336.023438 480.304688 335.558594 481.339844 C 335.089844 480.84375 334.710938 480.464844 334.335938 480.070312 Z M 334.335938 480.070312 " fill-opacity="1" fill-rule="nonzero"/><path fill="#000000" d="M 378.90625 452.253906 C 378.785156 454.285156 378.722656 456.320312 378.539062 458.347656 C 378.386719 460.015625 377.632812 460.703125 376.191406 460.734375 C 374.488281 460.765625 373.949219 460.277344 373.851562 458.5625 C 373.453125 451.136719 372.945312 443.722656 371.925781 436.355469 C 370.082031 423.003906 367.320312 409.855469 363.335938 396.976562 C 362.453125 394.128906 361.539062 391.289062 360.511719 388.492188 C 360.011719 387.128906 360.5 386.390625 361.324219 385.984375 C 362.320312 385.496094 363.910156 385.867188 364.398438 386.777344 C 364.917969 387.742188 365.34375 388.765625 365.757812 389.777344 C 369.476562 399.03125 372.128906 408.601562 374.214844 418.34375 C 376.261719 427.882812 377.585938 437.515625 378.347656 447.238281 C 378.480469 448.90625 378.613281 450.578125 378.753906 452.246094 C 378.804688 452.242188 378.855469 452.246094 378.90625 452.253906 Z M 333.601562 460.859375 C 333.417969 457.410156 333.09375 453.953125 333.066406 450.503906 C 332.996094 439.957031 333.71875 429.453125 335.152344 418.996094 C 336.199219 411.359375 337.503906 403.773438 339.636719 396.363281 C 340.429688 393.597656 341.460938 390.902344 342.378906 388.175781 C 342.800781 386.929688 342.132812 385.65625 340.847656 385.15625 C 339.738281 384.722656 338.488281 384.953125 338.210938 386.457031 C 338.164062 386.707031 338.039062 386.949219 337.949219 387.199219 C 335.332031 394.457031 333.441406 401.910156 332.046875 409.496094 C 330.417969 418.367188 329.300781 427.296875 328.496094 436.285156 C 327.8125 443.964844 327.316406 451.652344 327.335938 459.363281 C 327.335938 460.042969 327.328125 460.726562 327.367188 461.40625 C 327.4375 462.476562 327.601562 462.675781 328.65625 462.820312 C 330.367188 463.054688 331.976562 462.71875 333.652344 461.914062 C 333.632812 461.476562 333.617188 461.164062 333.601562 460.859375 Z M 333.601562 460.859375 " fill-opacity="1" fill-rule="nonzero"/><g clip-path="url(#0b7cbefede)"><path fill="#264de4" d="M 353.734375 396.152344 L 288.320312 377.980469 L 273.742188 214.367188 L 433.925781 214.363281 L 419.339844 377.953125 L 353.738281 396.148438 Z M 353.734375 396.152344 " fill-opacity="1" fill-rule="nonzero"/></g><path fill="#2965f1" d="M 406.847656 367.539062 L 419.316406 227.742188 L 353.835938 227.742188 L 353.835938 382.238281 L 406.847656 367.535156 Z M 406.847656 367.539062 " fill-opacity="1" fill-rule="nonzero"/><path fill="#ebebeb" d="M 307.160156 288.425781 L 308.960938 308.488281 L 353.835938 308.488281 L 353.835938 288.425781 Z M 307.160156 288.425781 " fill-opacity="1" fill-rule="nonzero"/><path fill="#ebebeb" d="M 303.550781 247.804688 L 305.371094 267.875 L 353.835938 267.875 L 353.835938 247.804688 Z M 303.550781 247.804688 " fill-opacity="1" fill-rule="nonzero"/><path fill="#ebebeb" d="M 353.835938 340.539062 L 353.75 340.566406 L 331.414062 334.527344 L 329.988281 318.523438 L 309.855469 318.523438 L 312.664062 350.035156 L 353.742188 361.445312 L 353.835938 361.417969 Z M 353.835938 340.539062 " fill-opacity="1" fill-rule="nonzero"/><g clip-path="url(#1f609c3546)"><path fill="#000000" d="M 311.441406 169.898438 L 335.730469 169.898438 L 335.730469 180.0625 L 321.597656 180.0625 L 321.597656 190.226562 L 335.730469 190.226562 L 335.730469 200.390625 L 311.441406 200.390625 Z M 311.441406 169.898438 " fill-opacity="1" fill-rule="nonzero"/></g><g clip-path="url(#39c8d82822)"><path fill="#000000" d="M 340.585938 169.898438 L 364.875 169.898438 L 364.875 178.738281 L 350.746094 178.738281 L 350.746094 180.503906 L 364.875 180.503906 L 364.875 200.832031 L 340.585938 200.832031 L 340.585938 191.550781 L 354.722656 191.550781 L 354.722656 189.785156 L 340.585938 189.785156 Z M 340.585938 169.898438 " fill-opacity="1" fill-rule="nonzero"/></g><g clip-path="url(#df6c2e45b1)"><path fill="#000000" d="M 369.734375 169.898438 L 394.023438 169.898438 L 394.023438 178.738281 L 379.890625 178.738281 L 379.890625 180.503906 L 394.023438 180.503906 L 394.023438 200.832031 L 369.734375 200.832031 L 369.734375 191.550781 L 383.863281 191.550781 L 383.863281 189.785156 L 369.734375 189.785156 Z M 369.734375 169.898438 " fill-opacity="1" fill-rule="nonzero"/></g><path fill="#ffffff" d="M 400.382812 288.425781 L 404 247.804688 L 353.765625 247.804688 L 353.765625 267.875 L 382.023438 267.875 L 380.203125 288.425781 L 353.765625 288.425781 L 353.765625 308.488281 L 378.464844 308.488281 L 376.132812 334.515625 L 353.765625 340.558594 L 353.765625 361.429688 L 394.878906 350.035156 L 395.179688 346.640625 L 399.894531 293.8125 Z M 400.382812 288.425781 " fill-opacity="1" fill-rule="nonzero"/><path fill="#ffffff" d="M 351.359375 283.992188 C 351.359375 300.585938 340.636719 314.035156 327.410156 314.035156 C 314.183594 314.035156 303.460938 300.585938 303.460938 283.992188 C 303.460938 267.402344 314.183594 253.953125 327.410156 253.953125 C 340.636719 253.953125 351.359375 267.402344 351.359375 283.992188 " fill-opacity="1" fill-rule="nonzero"/><path fill="#ffffff" d="M 407.773438 283.992188 C 407.773438 300.585938 397.050781 314.035156 383.824219 314.035156 C 370.597656 314.035156 359.875 300.585938 359.875 283.992188 C 359.875 267.402344 370.597656 253.953125 383.824219 253.953125 C 397.050781 253.953125 407.773438 267.402344 407.773438 283.992188 " fill-opacity="1" fill-rule="nonzero"/><g clip-path="url(#0b5c1277db)"><path fill="#1b1b1c" d="M 360.289062 283.992188 C 360.289062 267.738281 370.796875 254.558594 383.753906 254.558594 C 396.714844 254.558594 407.222656 267.738281 407.222656 283.992188 C 407.222656 300.25 396.714844 313.429688 383.753906 313.429688 C 370.796875 313.429688 360.289062 300.25 360.289062 283.992188 Z M 359.378906 283.992188 C 359.378906 301.300781 370.566406 315.328125 384.363281 315.328125 C 398.15625 315.328125 409.34375 301.300781 409.34375 283.992188 C 409.34375 266.6875 398.15625 252.65625 384.363281 252.65625 C 370.566406 252.65625 359.378906 266.6875 359.378906 283.992188 " fill-opacity="1" fill-rule="nonzero"/></g><path fill="#1b1b1c" d="M 330.863281 284.699219 C 328.941406 284.699219 327.382812 282.886719 327.382812 280.660156 C 327.382812 278.429688 328.941406 276.621094 330.863281 276.621094 C 332.785156 276.621094 334.34375 278.429688 334.34375 280.660156 C 334.34375 282.886719 332.785156 284.699219 330.863281 284.699219 Z M 333.992188 272.425781 C 328.488281 272.425781 324.027344 277.605469 324.027344 283.992188 C 324.027344 290.382812 328.488281 295.558594 333.992188 295.558594 C 339.496094 295.558594 343.960938 290.382812 343.960938 283.992188 C 343.960938 277.605469 339.496094 272.425781 333.992188 272.425781 " fill-opacity="1" fill-rule="nonzero"/><path fill="#1b1b1c" d="M 373.28125 284.699219 C 371.359375 284.699219 369.804688 282.886719 369.804688 280.660156 C 369.804688 278.429688 371.359375 276.621094 373.28125 276.621094 C 375.203125 276.621094 376.761719 278.429688 376.761719 280.660156 C 376.761719 282.886719 375.203125 284.699219 373.28125 284.699219 Z M 376.414062 272.425781 C 370.910156 272.425781 366.449219 277.605469 366.449219 283.992188 C 366.449219 290.382812 370.910156 295.558594 376.414062 295.558594 C 381.917969 295.558594 386.378906 290.382812 386.378906 283.992188 C 386.378906 277.605469 381.917969 272.425781 376.414062 272.425781 " fill-opacity="1" fill-rule="nonzero"/><path fill="#1b1b1c" d="M 327.460938 313.429688 C 314.503906 313.429688 303.996094 300.25 303.996094 283.992188 C 303.996094 267.738281 314.503906 254.558594 327.460938 254.558594 C 340.421875 254.558594 350.929688 267.738281 350.929688 283.992188 C 350.929688 300.25 340.421875 313.429688 327.460938 313.429688 Z M 326.855469 252.65625 C 313.058594 252.65625 301.875 266.6875 301.875 283.992188 C 301.875 301.300781 313.058594 315.328125 326.855469 315.328125 C 340.652344 315.328125 351.835938 301.300781 351.835938 283.992188 C 351.835938 266.6875 340.652344 252.65625 326.855469 252.65625 " fill-opacity="1" fill-rule="nonzero"/><g clip-path="url(#67550de3f6)"><path fill="#0c0d0f" d="M 304.339844 254.277344 C 306.242188 252.378906 308.4375 250.988281 310.5625 250.09375 C 312.6875 249.1875 314.726562 248.773438 316.425781 248.625 C 318.132812 248.476562 319.5 248.589844 320.425781 248.714844 C 321.355469 248.84375 321.851562 248.976562 321.851562 248.972656 C 321.855469 248.976562 321.347656 249.085938 320.464844 249.316406 C 319.582031 249.554688 318.324219 249.921875 316.867188 250.511719 C 315.410156 251.097656 313.753906 251.910156 312.074219 252.988281 C 310.390625 254.066406 308.6875 255.417969 307.082031 257.015625 C 305.480469 258.621094 304.128906 260.320312 303.050781 262.003906 C 301.96875 263.679688 301.15625 265.332031 300.566406 266.789062 C 299.976562 268.246094 299.609375 269.5 299.375 270.378906 C 299.140625 271.261719 299.03125 271.769531 299.027344 271.769531 C 299.03125 271.765625 298.894531 271.269531 298.769531 270.34375 C 298.644531 269.417969 298.53125 268.050781 298.679688 266.347656 C 298.828125 264.652344 299.242188 262.613281 300.148438 260.492188 C 301.042969 258.371094 302.441406 256.175781 304.339844 254.277344 " fill-opacity="1" fill-rule="nonzero"/></g><g clip-path="url(#3c3424fa35)"><path fill="#0c0d0f" d="M 376.027344 245.472656 C 378.617188 244.761719 381.21875 244.636719 383.507812 244.902344 C 385.800781 245.167969 387.78125 245.8125 389.332031 246.523438 C 390.886719 247.234375 392.019531 248.007812 392.765625 248.574219 C 393.507812 249.144531 393.875 249.507812 393.878906 249.503906 C 393.878906 249.507812 393.382812 249.351562 392.5 249.117188 C 391.617188 248.886719 390.339844 248.585938 388.78125 248.378906 C 387.222656 248.171875 385.382812 248.058594 383.386719 248.167969 C 381.390625 248.277344 379.242188 248.609375 377.054688 249.207031 C 374.871094 249.8125 372.855469 250.621094 371.082031 251.550781 C 369.3125 252.476562 367.789062 253.511719 366.554688 254.488281 C 365.324219 255.460938 364.382812 256.371094 363.742188 257.019531 C 363.101562 257.671875 362.757812 258.058594 362.753906 258.058594 C 362.757812 258.058594 362.886719 257.558594 363.234375 256.691406 C 363.582031 255.824219 364.160156 254.582031 365.132812 253.171875 C 366.101562 251.769531 367.472656 250.207031 369.308594 248.804688 C 371.136719 247.40625 373.433594 246.1875 376.027344 245.472656 " fill-opacity="1" fill-rule="nonzero"/></g><path fill="#0c0d0f" d="M 319.894531 311.027344 C 321.761719 312.585938 323.199219 314.453125 324.1875 316.285156 C 325.183594 318.125 325.742188 319.925781 326.027344 321.441406 C 326.316406 322.964844 326.339844 324.210938 326.316406 325.058594 C 326.285156 325.90625 326.210938 326.367188 326.21875 326.367188 C 326.214844 326.367188 326.082031 325.917969 325.816406 325.132812 C 325.542969 324.347656 325.128906 323.230469 324.492188 321.945312 C 323.238281 319.363281 321.027344 316.160156 317.816406 313.503906 C 316.222656 312.164062 314.546875 311.078125 312.917969 310.238281 C 311.289062 309.402344 309.707031 308.8125 308.328125 308.414062 C 306.949219 308.015625 305.777344 307.796875 304.957031 307.667969 C 304.132812 307.542969 303.667969 307.492188 303.667969 307.488281 C 303.667969 307.492188 304.109375 307.339844 304.941406 307.164062 C 305.773438 306.988281 307.003906 306.800781 308.554688 306.816406 C 310.101562 306.832031 311.976562 307.066406 313.960938 307.722656 C 315.941406 308.378906 318.03125 309.464844 319.894531 311.027344 " fill-opacity="1" fill-rule="nonzero"/><path fill="#0c0d0f" d="M 392.957031 313.503906 C 389.746094 316.160156 387.535156 319.363281 386.28125 321.945312 C 385.644531 323.230469 385.230469 324.347656 384.957031 325.132812 C 384.691406 325.917969 384.5625 326.371094 384.554688 326.367188 C 384.5625 326.367188 384.488281 325.90625 384.460938 325.058594 C 384.433594 324.210938 384.460938 322.964844 384.746094 321.441406 C 385.03125 319.925781 385.589844 318.125 386.585938 316.285156 C 387.574219 314.453125 389.011719 312.585938 390.878906 311.027344 C 392.742188 309.464844 394.832031 308.378906 396.8125 307.722656 C 398.796875 307.066406 400.671875 306.832031 402.21875 306.816406 C 403.769531 306.800781 405 306.988281 405.832031 307.164062 C 406.664062 307.339844 407.105469 307.492188 407.105469 307.488281 C 407.105469 307.492188 406.640625 307.542969 405.816406 307.667969 C 404.996094 307.796875 403.824219 308.015625 402.445312 308.414062 C 401.066406 308.8125 399.488281 309.402344 397.855469 310.238281 C 396.226562 311.078125 394.546875 312.164062 392.957031 313.503906 " fill-opacity="1" fill-rule="nonzero"/><g clip-path="url(#52c4e5acee)"><path fill="#0c0d0f" d="M 374.78125 327.113281 C 370.191406 316.796875 358.257812 315.976562 346.5 323.683594 C 333.570312 332.15625 328.992188 347.824219 334.109375 351.054688 C 337.628906 353.273438 341.246094 349.910156 357.203125 346.683594 C 371.207031 343.851562 378.820312 336.191406 374.78125 327.113281 " fill-opacity="1" fill-rule="nonzero"/></g></svg>