<svg xmlns="http://www.w3.org/2000/svg" xmlns:xlink="http://www.w3.org/1999/xlink" width="944" zoomAndPan="magnify" viewBox="0 0 708 566.999966" height="755" preserveAspectRatio="xMidYMid meet" version="1.0"><defs><clipPath id="d505a68e05"><path d="M 325 169.898438 L 383 169.898438 L 383 293 L 325 293 Z M 325 169.898438 " clip-rule="nonzero"/></clipPath><clipPath id="7ca464a9c8"><path d="M 317.113281 303 L 353 303 L 353 324 L 317.113281 324 Z M 317.113281 303 " clip-rule="nonzero"/></clipPath><clipPath id="d277eb4e8f"><path d="M 317.113281 303 L 354 303 L 354 324 L 317.113281 324 Z M 317.113281 303 " clip-rule="nonzero"/></clipPath><clipPath id="47d1036222"><path d="M 354 301 L 390.535156 301 L 390.535156 322 L 354 322 Z M 354 301 " clip-rule="nonzero"/></clipPath><clipPath id="411965796d"><path d="M 330 346 L 381 346 L 381 368.738281 L 330 368.738281 Z M 330 346 " clip-rule="nonzero"/></clipPath><clipPath id="65847f96ac"><path d="M 308.363281 386.410156 L 399.765625 386.410156 L 399.765625 477.8125 L 308.363281 477.8125 Z M 308.363281 386.410156 " clip-rule="nonzero"/></clipPath><clipPath id="82364a685e"><path d="M 409.160156 325 L 457.859375 325 L 457.859375 432 L 409.160156 432 Z M 409.160156 325 " clip-rule="nonzero"/></clipPath><clipPath id="efe1ce5ecd"><path d="M 288 417 L 370 417 L 370 486 L 288 486 Z M 288 417 " clip-rule="nonzero"/></clipPath><clipPath id="7febb47573"><path d="M 356.667969 380.25 L 374.574219 494.230469 L 277.617188 509.460938 L 259.710938 395.484375 Z M 356.667969 380.25 " clip-rule="nonzero"/></clipPath><clipPath id="07057a72e0"><path d="M 356.667969 380.25 L 374.574219 494.230469 L 277.617188 509.460938 L 259.710938 395.484375 Z M 356.667969 380.25 " clip-rule="nonzero"/></clipPath><clipPath id="25df139495"><path d="M 266 395 L 297 395 L 297 427 L 266 427 Z M 266 395 " clip-rule="nonzero"/></clipPath><clipPath id="9ce8e5b8ae"><path d="M 356.667969 380.25 L 374.574219 494.230469 L 277.617188 509.460938 L 259.710938 395.484375 Z M 356.667969 380.25 " clip-rule="nonzero"/></clipPath><clipPath id="99e3f58c64"><path d="M 356.667969 380.25 L 374.574219 494.230469 L 277.617188 509.460938 L 259.710938 395.484375 Z M 356.667969 380.25 " clip-rule="nonzero"/></clipPath><clipPath id="1c97153bd2"><path d="M 266 396 L 293 396 L 293 427 L 266 427 Z M 266 396 " clip-rule="nonzero"/></clipPath><clipPath id="bb15402b6d"><path d="M 356.667969 380.25 L 374.574219 494.230469 L 277.617188 509.460938 L 259.710938 395.484375 Z M 356.667969 380.25 " clip-rule="nonzero"/></clipPath><clipPath id="3351bfa368"><path d="M 356.667969 380.25 L 374.574219 494.230469 L 277.617188 509.460938 L 259.710938 395.484375 Z M 356.667969 380.25 " clip-rule="nonzero"/></clipPath><clipPath id="da62ded4dd"><path d="M 317 456 L 344 456 L 344 463 L 317 463 Z M 317 456 " clip-rule="nonzero"/></clipPath><clipPath id="086936a99e"><path d="M 356.667969 380.25 L 374.574219 494.230469 L 277.617188 509.460938 L 259.710938 395.484375 Z M 356.667969 380.25 " clip-rule="nonzero"/></clipPath><clipPath id="52d64b3ba0"><path d="M 356.667969 380.25 L 374.574219 494.230469 L 277.617188 509.460938 L 259.710938 395.484375 Z M 356.667969 380.25 " clip-rule="nonzero"/></clipPath><clipPath id="011d28b2c5"><path d="M 299 437 L 370 437 L 370 486 L 299 486 Z M 299 437 " clip-rule="nonzero"/></clipPath><clipPath id="d8602b30d6"><path d="M 356.667969 380.25 L 374.574219 494.230469 L 277.617188 509.460938 L 259.710938 395.484375 Z M 356.667969 380.25 " clip-rule="nonzero"/></clipPath><clipPath id="1f47687777"><path d="M 356.667969 380.25 L 374.574219 494.230469 L 277.617188 509.460938 L 259.710938 395.484375 Z M 356.667969 380.25 " clip-rule="nonzero"/></clipPath><clipPath id="1271ab6cbe"><path d="M 250.042969 325 L 298.449219 325 L 298.449219 432 L 250.042969 432 Z M 250.042969 325 " clip-rule="nonzero"/></clipPath></defs><path fill="#5382a1" d="M 324.96875 343.390625 C 324.96875 343.390625 316.390625 348.378906 331.074219 350.070312 C 348.867188 352.09375 357.953125 351.804688 377.558594 348.09375 C 377.558594 348.09375 382.710938 351.324219 389.914062 354.121094 C 345.96875 372.949219 290.453125 353.03125 324.96875 343.390625 " fill-opacity="1" fill-rule="nonzero"/><path fill="#5382a1" d="M 319.597656 318.828125 C 319.597656 318.828125 309.976562 325.949219 324.671875 327.46875 C 343.671875 329.425781 358.679688 329.585938 384.648438 324.585938 C 384.648438 324.585938 388.242188 328.230469 393.890625 330.214844 C 340.753906 345.742188 281.574219 331.445312 319.597656 318.828125 " fill-opacity="1" fill-rule="nonzero"/><path fill="#e76f00" d="M 364.867188 277.15625 C 375.699219 289.621094 362.023438 300.835938 362.023438 300.835938 C 362.023438 300.835938 389.523438 286.648438 376.894531 268.878906 C 365.097656 252.316406 356.054688 244.085938 405.019531 215.707031 C 405.019531 215.707031 328.164062 234.886719 364.867188 277.15625 " fill-opacity="1" fill-rule="nonzero"/><path fill="#5382a1" d="M 422.992188 361.558594 C 422.992188 361.558594 429.339844 366.789062 416.003906 370.835938 C 390.632812 378.515625 310.417969 380.835938 288.136719 371.140625 C 280.128906 367.660156 295.152344 362.828125 299.875 361.808594 C 304.804688 360.742188 307.621094 360.945312 307.621094 360.945312 C 298.710938 354.667969 250.042969 373.253906 282.898438 378.582031 C 372.5 393.097656 446.234375 372.039062 422.988281 361.558594 " fill-opacity="1" fill-rule="nonzero"/><path fill="#5382a1" d="M 329.09375 293.378906 C 329.09375 293.378906 288.292969 303.0625 314.644531 306.578125 C 325.773438 308.070312 347.957031 307.734375 368.613281 306 C 385.5 304.578125 402.457031 301.550781 402.457031 301.550781 C 402.457031 301.550781 396.503906 304.101562 392.195312 307.039062 C 350.757812 317.933594 270.71875 312.867188 293.761719 301.726562 C 313.25 292.3125 329.09375 293.378906 329.09375 293.378906 " fill-opacity="1" fill-rule="nonzero"/><path fill="#5382a1" d="M 402.289062 334.265625 C 444.40625 312.390625 424.925781 291.371094 411.335938 294.203125 C 408.007812 294.898438 406.519531 295.496094 406.519531 295.496094 C 406.519531 295.496094 407.753906 293.558594 410.121094 292.722656 C 437.011719 283.277344 457.695312 320.589844 401.4375 335.367188 C 401.4375 335.367188 402.09375 334.785156 402.289062 334.265625 " fill-opacity="1" fill-rule="nonzero"/><g clip-path="url(#d505a68e05)"><path fill="#e76f00" d="M 376.894531 169.878906 C 376.894531 169.878906 400.222656 193.199219 354.769531 229.058594 C 318.324219 257.824219 346.460938 274.226562 354.753906 292.96875 C 333.480469 273.785156 317.867188 256.894531 328.34375 241.179688 C 343.71875 218.109375 386.304688 206.921875 376.894531 169.878906 " fill-opacity="1" fill-rule="nonzero"/></g><path fill="#5382a1" d="M 333.234375 393.539062 C 373.664062 396.125 435.742188 392.105469 437.210938 372.988281 C 437.210938 372.988281 434.382812 380.230469 403.800781 385.984375 C 369.292969 392.476562 326.734375 391.722656 301.496094 387.558594 C 301.496094 387.558594 306.660156 391.832031 333.230469 393.542969 " fill-opacity="1" fill-rule="nonzero"/><g clip-path="url(#7ca464a9c8)"><path fill="#000000" d="M 317.648438 304.054688 C 317.648438 304.054688 327.445312 304.703125 332.667969 310.445312 C 337.894531 316.1875 344.292969 322.160156 348.273438 322.890625 C 352.261719 323.625 352.914062 321.535156 352.261719 318.144531 C 352.261719 318.144531 347.429688 318.011719 339.851562 312.140625 C 332.277344 306.269531 324.179688 302.617188 317.648438 304.054688 " fill-opacity="1" fill-rule="nonzero"/></g><g clip-path="url(#d277eb4e8f)"><path fill="#000000" d="M 349.710938 323.558594 C 349.25 323.558594 348.742188 323.507812 348.179688 323.40625 C 343.558594 322.554688 336.234375 315.140625 332.28125 310.796875 C 327.265625 305.28125 317.710938 304.578125 317.617188 304.574219 C 317.355469 304.554688 317.148438 304.351562 317.128906 304.089844 C 317.109375 303.832031 317.28125 303.597656 317.535156 303.542969 C 323.609375 302.210938 331.640625 305.117188 340.171875 311.730469 C 347.488281 317.398438 352.226562 317.621094 352.273438 317.621094 C 352.519531 317.628906 352.726562 317.804688 352.773438 318.046875 C 353.21875 320.351562 353.015625 321.835938 352.144531 322.714844 C 351.582031 323.28125 350.78125 323.558594 349.710938 323.558594 Z M 322.699219 304.40625 C 325.972656 305.257812 330.160156 306.914062 333.054688 310.09375 C 339.632812 317.320312 345.214844 321.796875 348.371094 322.378906 C 349.851562 322.652344 350.871094 322.515625 351.402344 321.980469 C 351.960938 321.417969 352.097656 320.316406 351.816406 318.628906 C 350.453125 318.457031 345.964844 317.542969 339.53125 312.554688 C 333.433594 307.828125 327.632812 305.039062 322.699219 304.40625 " fill-opacity="1" fill-rule="nonzero"/></g><path fill="#000000" d="M 389.945312 305.617188 C 389.945312 305.617188 378.671875 302.226562 372.53125 307.835938 C 366.800781 313.074219 367.027344 318.796875 361.246094 320.535156 C 357.367188 321.703125 354.683594 320.050781 355.335938 316.65625 C 355.335938 316.65625 360.425781 315.875 366.503906 307.453125 C 372.53125 299.09375 383.472656 301.574219 389.945312 305.617188 " fill-opacity="1" fill-rule="nonzero"/><g clip-path="url(#47d1036222)"><path fill="#000000" d="M 358.921875 321.429688 C 357.675781 321.429688 356.613281 321.082031 355.859375 320.402344 C 354.882812 319.523438 354.515625 318.15625 354.824219 316.558594 C 354.863281 316.34375 355.039062 316.175781 355.257812 316.144531 C 355.304688 316.132812 360.234375 315.25 366.078125 307.148438 C 371.90625 299.066406 382.679688 300.460938 390.222656 305.175781 C 390.445312 305.316406 390.53125 305.59375 390.421875 305.832031 C 390.3125 306.074219 390.042969 306.191406 389.796875 306.117188 C 389.6875 306.085938 378.730469 302.878906 372.882812 308.222656 C 370.488281 310.410156 369.144531 312.710938 367.960938 314.742188 C 366.316406 317.550781 364.898438 319.980469 361.398438 321.035156 C 360.519531 321.300781 359.6875 321.429688 358.921875 321.429688 Z M 355.796875 317.089844 C 355.65625 318.175781 355.917969 319.050781 356.558594 319.628906 C 357.496094 320.472656 359.148438 320.621094 361.09375 320.035156 C 364.207031 319.101562 365.464844 316.945312 367.058594 314.214844 C 368.28125 312.121094 369.667969 309.746094 372.179688 307.449219 C 376.261719 303.71875 382.402344 303.792969 386.335938 304.339844 C 380.589844 301.898438 372.050781 300.65625 366.925781 307.757812 C 361.660156 315.050781 357.117188 316.738281 355.796875 317.089844 " fill-opacity="1" fill-rule="nonzero"/></g><path fill="#ffffff" d="M 373.882812 319.71875 L 385.660156 317.496094 C 384.875 330.804688 372.335938 336.023438 363.976562 333.402344 C 355.621094 330.792969 356.015625 323.101562 356.015625 323.101562 L 360.101562 322.328125 C 360.101562 322.328125 362.714844 330.148438 369.460938 328.058594 C 375.148438 326.304688 373.882812 319.71875 373.882812 319.71875 " fill-opacity="1" fill-rule="nonzero"/><path fill="#000000" d="M 373.882812 319.71875 C 373.882812 319.71875 375.148438 326.304688 369.460938 328.058594 C 362.714844 330.148438 360.101562 322.328125 360.101562 322.328125 L 373.882812 319.71875 " fill-opacity="1" fill-rule="nonzero"/><path fill="#ffffff" d="M 349.378906 323.101562 C 349.378906 323.101562 349.777344 330.804688 341.421875 333.414062 C 333.0625 336.023438 320.523438 330.804688 319.738281 317.484375 L 331.515625 319.71875 C 331.515625 319.71875 330.511719 325.628906 335.933594 328.058594 C 342.339844 330.929688 345.304688 322.328125 345.304688 322.328125 L 349.378906 323.101562 " fill-opacity="1" fill-rule="nonzero"/><path fill="#000000" d="M 331.515625 319.71875 L 345.304688 322.328125 C 345.304688 322.328125 342.339844 330.929688 335.933594 328.058594 C 330.511719 325.628906 331.515625 319.71875 331.515625 319.71875 " fill-opacity="1" fill-rule="nonzero"/><path fill="#000000" d="M 336.957031 334.59375 C 333.421875 334.59375 329.761719 333.480469 326.714844 331.375 C 322.222656 328.277344 319.5625 323.355469 319.21875 317.515625 C 319.210938 317.355469 319.273438 317.199219 319.394531 317.09375 C 319.515625 316.988281 319.679688 316.945312 319.835938 316.972656 L 345.402344 321.816406 L 349.480469 322.589844 C 349.714844 322.632812 349.890625 322.835938 349.902344 323.074219 C 349.90625 323.15625 350.222656 331.214844 341.574219 333.914062 C 340.105469 334.371094 338.542969 334.59375 336.957031 334.59375 Z M 320.3125 318.125 C 320.792969 323.34375 323.257812 327.722656 327.304688 330.519531 C 331.464844 333.386719 336.8125 334.304688 341.261719 332.917969 C 348.136719 330.769531 348.808594 325.113281 348.859375 323.53125 L 320.3125 318.125 " fill-opacity="1" fill-rule="nonzero"/><path fill="#000000" d="M 338.472656 329.167969 C 337.582031 329.167969 336.660156 328.957031 335.71875 328.535156 C 329.996094 325.96875 330.988281 319.695312 331 319.632812 C 331.046875 319.347656 331.308594 319.160156 331.601562 319.203125 C 331.882812 319.253906 332.074219 319.523438 332.03125 319.804688 C 331.992188 320.03125 331.171875 325.351562 336.148438 327.582031 C 337.613281 328.242188 339.007812 328.296875 340.28125 327.746094 C 343.296875 326.445312 344.796875 322.199219 344.8125 322.160156 C 344.90625 321.886719 345.207031 321.742188 345.476562 321.835938 C 345.75 321.929688 345.894531 322.226562 345.800781 322.5 C 345.734375 322.691406 344.140625 327.214844 340.699219 328.703125 C 339.980469 329.011719 339.238281 329.167969 338.472656 329.167969 " fill-opacity="1" fill-rule="nonzero"/><path fill="#000000" d="M 368.453125 334.589844 C 366.863281 334.589844 365.296875 334.363281 363.820312 333.902344 C 355.175781 331.203125 355.488281 323.15625 355.496094 323.074219 C 355.507812 322.835938 355.679688 322.632812 355.917969 322.589844 L 385.5625 316.984375 C 385.71875 316.953125 385.882812 316.996094 386.003906 317.105469 C 386.125 317.210938 386.1875 317.367188 386.179688 317.527344 C 385.835938 323.363281 383.171875 328.28125 378.679688 331.378906 C 375.636719 333.476562 371.984375 334.589844 368.453125 334.589844 Z M 356.535156 323.535156 C 356.589844 325.113281 357.261719 330.757812 364.132812 332.90625 C 368.582031 334.300781 373.929688 333.386719 378.089844 330.519531 C 382.136719 327.730469 384.605469 323.347656 385.085938 318.136719 L 360.199219 322.839844 L 356.535156 323.535156 " fill-opacity="1" fill-rule="nonzero"/><path fill="#000000" d="M 367.246094 328.9375 C 361.828125 328.9375 359.628906 322.566406 359.605469 322.496094 C 359.515625 322.222656 359.664062 321.925781 359.933594 321.835938 C 360.210938 321.742188 360.503906 321.890625 360.597656 322.164062 C 360.695312 322.460938 363.136719 329.464844 369.308594 327.558594 C 374.484375 325.964844 373.417969 320.070312 373.371094 319.816406 C 373.316406 319.535156 373.503906 319.261719 373.785156 319.207031 C 374.0625 319.152344 374.34375 319.339844 374.394531 319.621094 C 374.410156 319.691406 375.675781 326.6875 369.617188 328.558594 C 368.765625 328.820312 367.976562 328.9375 367.246094 328.9375 " fill-opacity="1" fill-rule="nonzero"/><path fill="#ffffff" d="M 375.300781 350.671875 C 375.300781 350.671875 376.011719 356.339844 374.570312 357.570312 C 373.652344 358.355469 373.378906 358.269531 369.605469 357.558594 C 367.484375 357.164062 364.246094 356.570312 359.167969 355.816406 C 348.71875 354.273438 343.496094 354.949219 340.109375 355.191406 C 340.109375 355.191406 340.089844 355.191406 340.058594 355.199219 C 338.898438 355.273438 337.957031 355.304688 337.089844 355.167969 C 333.695312 354.648438 331.785156 351.308594 332.390625 348.78125 C 337.613281 346.039062 370.914062 347.601562 374.570312 350.074219 C 374.820312 350.242188 375.0625 350.441406 375.300781 350.671875 " fill-opacity="1" fill-rule="nonzero"/><path fill="#ffffff" d="M 375.480469 365.253906 C 374.476562 366.015625 373.515625 366.753906 372.230469 367.433594 C 369.742188 368.738281 346.882812 366.128906 339.179688 366.253906 C 336.914062 366.296875 335.347656 366.253906 334.226562 366.054688 C 335.835938 356.578125 339.597656 355.328125 340.058594 355.199219 C 340.089844 355.191406 340.109375 355.191406 340.109375 355.191406 C 343.496094 354.949219 348.71875 354.273438 359.167969 355.816406 C 364.246094 356.570312 367.484375 357.164062 369.605469 357.558594 L 369.605469 357.570312 C 374.445312 359.222656 375.480469 365.253906 375.480469 365.253906 " fill-opacity="1" fill-rule="nonzero"/><path fill="#000000" d="M 375.300781 350.671875 C 378.605469 353.75 381.058594 361.789062 378.625 363.125 C 377.359375 363.824219 376.410156 364.542969 375.480469 365.253906 C 375.480469 365.253906 374.445312 359.222656 369.605469 357.570312 L 369.605469 357.558594 C 373.378906 358.269531 373.652344 358.355469 374.570312 357.570312 C 376.011719 356.339844 375.300781 350.671875 375.300781 350.671875 " fill-opacity="1" fill-rule="nonzero"/><path fill="#000000" d="M 337.089844 355.167969 C 337.957031 355.304688 338.898438 355.273438 340.058594 355.199219 C 339.597656 355.328125 335.835938 356.578125 334.226562 366.054688 C 331.542969 365.585938 331.523438 364.230469 331.023438 360.910156 C 330.300781 356.214844 332.390625 348.78125 332.390625 348.78125 C 331.785156 351.308594 333.695312 354.648438 337.089844 355.167969 " fill-opacity="1" fill-rule="nonzero"/><g clip-path="url(#411965796d)"><path fill="#000000" d="M 368.527344 368.320312 C 365.183594 368.320312 360.007812 367.980469 353.472656 367.519531 C 347.707031 367.109375 342.265625 366.726562 339.1875 366.777344 C 336.6875 366.820312 335.222656 366.761719 334.136719 366.570312 C 331.253906 366.066406 331.019531 364.480469 330.597656 361.597656 L 330.503906 360.988281 C 329.773438 356.238281 331.800781 348.949219 331.886719 348.640625 C 331.925781 348.503906 332.019531 348.386719 332.148438 348.320312 C 337.636719 345.433594 371.121094 347.113281 374.863281 349.644531 C 375.125 349.820312 375.386719 350.03125 375.664062 350.296875 C 378.289062 352.742188 380.480469 358.265625 380.082031 361.441406 C 379.921875 362.75 379.335938 363.328125 378.875 363.582031 C 377.617188 364.277344 376.648438 365.015625 375.796875 365.667969 L 375.695312 365.746094 C 374.738281 366.472656 373.753906 367.21875 372.472656 367.894531 C 371.90625 368.195312 370.550781 368.320312 368.527344 368.320312 Z M 339.757812 365.726562 C 342.945312 365.726562 348.105469 366.09375 353.546875 366.476562 C 361.160156 367.011719 370.628906 367.683594 371.984375 366.972656 C 373.191406 366.335938 374.097656 365.644531 375.0625 364.914062 L 375.164062 364.835938 C 376.042969 364.164062 377.042969 363.402344 378.371094 362.667969 C 378.820312 362.421875 378.988281 361.792969 379.046875 361.3125 C 379.402344 358.457031 377.335938 353.28125 374.945312 351.050781 C 374.710938 350.828125 374.496094 350.652344 374.28125 350.511719 C 370.925781 348.238281 338.640625 346.542969 332.832031 349.148438 C 332.496094 350.414062 330.910156 356.75 331.539062 360.832031 L 331.628906 361.445312 C 332.050781 364.304688 332.179688 365.167969 334.316406 365.542969 C 335.320312 365.722656 336.769531 365.777344 339.171875 365.730469 C 339.359375 365.730469 339.554688 365.726562 339.757812 365.726562 " fill-opacity="1" fill-rule="nonzero"/></g><path fill="#000000" d="M 373.242188 358.648438 C 372.558594 358.648438 371.574219 358.460938 369.871094 358.140625 L 369.511719 358.074219 C 366.871094 357.582031 363.785156 357.027344 359.09375 356.332031 C 349.746094 354.953125 344.617188 355.359375 341.222656 355.628906 L 340.148438 355.710938 C 339.882812 355.734375 339.609375 355.515625 339.589844 355.226562 C 339.570312 354.941406 339.785156 354.691406 340.074219 354.671875 L 341.140625 354.585938 C 344.578125 354.3125 349.78125 353.902344 359.246094 355.300781 C 363.957031 355.996094 367.054688 356.550781 369.703125 357.046875 L 370.066406 357.117188 C 373.53125 357.769531 373.558594 357.746094 374.230469 357.175781 C 375.074219 356.453125 375.0625 352.972656 374.785156 350.734375 C 374.746094 350.449219 374.949219 350.1875 375.238281 350.152344 C 375.515625 350.117188 375.785156 350.320312 375.820312 350.605469 C 375.945312 351.601562 376.484375 356.621094 374.910156 357.96875 C 374.355469 358.441406 373.964844 358.648438 373.242188 358.648438 " fill-opacity="1" fill-rule="nonzero"/><path fill="#000000" d="M 338.457031 355.785156 C 337.933594 355.785156 337.464844 355.757812 337.011719 355.6875 C 335.277344 355.417969 333.777344 354.460938 332.789062 352.992188 C 331.890625 351.65625 331.550781 350.035156 331.882812 348.660156 C 331.949219 348.382812 332.226562 348.207031 332.511719 348.277344 C 332.792969 348.34375 332.964844 348.625 332.898438 348.90625 C 332.636719 350 332.917969 351.3125 333.65625 352.410156 C 334.480469 353.636719 335.730469 354.433594 337.171875 354.652344 C 337.957031 354.777344 338.8125 354.757812 340.027344 354.679688 C 340.335938 354.664062 340.5625 354.882812 340.578125 355.167969 C 340.597656 355.457031 340.378906 355.703125 340.09375 355.722656 C 339.472656 355.761719 338.941406 355.785156 338.457031 355.785156 " fill-opacity="1" fill-rule="nonzero"/><path fill="#000000" d="M 334.230469 366.578125 C 334.199219 366.578125 334.171875 366.574219 334.140625 366.570312 C 333.855469 366.523438 333.664062 366.253906 333.714844 365.96875 C 335.335938 356.414062 339.167969 354.902344 339.921875 354.699219 C 339.964844 354.683594 340.0625 354.671875 340.109375 354.671875 C 340.398438 354.671875 340.632812 354.902344 340.632812 355.191406 C 340.632812 355.453125 340.4375 355.671875 340.1875 355.707031 C 339.621094 355.878906 336.25 357.253906 334.742188 366.144531 C 334.699219 366.398438 334.480469 366.578125 334.230469 366.578125 " fill-opacity="1" fill-rule="nonzero"/><path fill="#000000" d="M 375.480469 365.773438 C 375.230469 365.773438 375.007812 365.59375 374.964844 365.339844 C 374.953125 365.285156 373.917969 359.59375 369.4375 358.066406 C 369.164062 357.972656 369.019531 357.675781 369.109375 357.402344 C 369.207031 357.128906 369.503906 356.984375 369.777344 357.078125 C 374.847656 358.804688 375.949219 364.90625 375.996094 365.164062 C 376.042969 365.449219 375.851562 365.71875 375.566406 365.765625 C 375.539062 365.773438 375.507812 365.773438 375.480469 365.773438 " fill-opacity="1" fill-rule="nonzero"/><path fill="#ffffff" d="M 344.929688 324.988281 C 344.929688 326.0625 344.054688 326.933594 342.980469 326.933594 C 341.902344 326.933594 341.027344 326.0625 341.027344 324.988281 C 341.027344 323.910156 341.902344 323.039062 342.980469 323.039062 C 344.054688 323.039062 344.929688 323.910156 344.929688 324.988281 " fill-opacity="1" fill-rule="nonzero"/><path fill="#ffffff" d="M 375.441406 324.988281 C 375.441406 326.0625 374.570312 326.933594 373.492188 326.933594 C 372.414062 326.933594 371.539062 326.0625 371.539062 324.988281 C 371.539062 323.910156 372.414062 323.039062 373.492188 323.039062 C 374.570312 323.039062 375.441406 323.910156 375.441406 324.988281 " fill-opacity="1" fill-rule="nonzero"/><g clip-path="url(#65847f96ac)"><path fill="#000000" d="M 398.5 472.59375 C 398.160156 473.230469 397.734375 473.679688 397.105469 474.023438 C 394.816406 475.265625 392.335938 475.941406 389.808594 476.390625 C 383.453125 477.523438 377.101562 477.574219 370.773438 476.1875 C 368.675781 475.730469 366.644531 475.070312 364.78125 473.960938 C 362.359375 472.519531 361.183594 470.445312 361.179688 467.628906 C 361.171875 462.988281 361.886719 458.46875 363.257812 454.042969 C 363.40625 453.5625 363.496094 453.183594 363.082031 452.773438 C 362 451.722656 362.09375 449.871094 363.066406 448.53125 C 363.953125 447.300781 365.175781 446.558594 366.589844 446.078125 C 367.109375 445.898438 367.644531 445.75 368.265625 445.558594 C 368.160156 444.09375 368.105469 442.660156 367.953125 441.230469 C 367.496094 436.910156 367.070312 432.582031 366.5 428.273438 C 365.222656 418.628906 363.164062 409.140625 360.402344 399.8125 C 359.484375 396.707031 358.492188 393.625 357.484375 390.546875 C 357.132812 389.46875 357.152344 388.535156 358.054688 387.757812 C 358.867188 387.054688 360.382812 386.898438 361.308594 387.527344 C 361.742188 387.816406 362.105469 388.300781 362.34375 388.777344 C 364.160156 392.410156 365.492188 396.230469 366.703125 400.097656 C 368.972656 407.347656 370.78125 414.707031 372.011719 422.195312 C 373.035156 428.421875 373.867188 434.675781 374.140625 440.984375 C 374.199219 442.257812 374.152344 443.535156 374.152344 444.945312 C 376.128906 445.023438 377.757812 445.71875 379.207031 446.84375 C 380.851562 448.117188 381.085938 449.023438 380.5 451.046875 C 380.402344 451.382812 380.578125 451.863281 380.757812 452.207031 C 381.59375 453.792969 382.476562 455.34375 383.410156 457.03125 C 383.765625 457.03125 384.269531 457.050781 384.773438 457.023438 C 387.300781 456.90625 389.738281 457.328125 392.042969 458.335938 C 395.847656 459.996094 398.414062 462.765625 399.269531 466.882812 C 399.660156 468.835938 399.480469 470.765625 398.5 472.59375 Z M 342.933594 454.640625 C 342.765625 454.085938 342.675781 453.671875 343.132812 453.140625 C 344.316406 451.765625 344.238281 450.496094 342.988281 449.152344 C 341.773438 447.847656 340.28125 447.085938 338.460938 447.035156 C 337.960938 447.019531 337.46875 446.988281 336.832031 446.957031 C 336.832031 446.292969 336.839844 445.746094 336.832031 445.199219 C 336.617188 436.402344 337.027344 427.640625 338.078125 418.90625 C 338.808594 412.808594 339.710938 406.742188 341.226562 400.785156 C 342.039062 397.609375 343.054688 394.488281 343.933594 391.324219 C 344.15625 390.515625 344.289062 389.652344 344.28125 388.824219 C 344.265625 387.800781 343.417969 387.011719 342.3125 386.734375 C 341.117188 386.433594 340.257812 386.722656 339.65625 387.734375 C 339.265625 388.390625 338.914062 389.09375 338.683594 389.8125 C 337.707031 392.898438 336.65625 395.96875 335.859375 399.097656 C 333.957031 406.582031 332.773438 414.207031 331.929688 421.878906 C 331.03125 430.058594 330.300781 438.25 330.382812 446.492188 C 330.390625 446.824219 330.335938 447.15625 330.304688 447.539062 C 328.519531 447.476562 327.121094 448.28125 325.832031 449.304688 C 324.367188 450.457031 323.429688 452.949219 325.640625 454.683594 C 325.703125 454.734375 325.75 454.8125 325.929688 455.039062 C 325.542969 455.761719 325.125 456.453125 324.789062 457.179688 C 324.46875 457.875 323.980469 458.128906 323.207031 458.1875 C 319.996094 458.429688 316.949219 459.257812 314.289062 461.132812 C 310.867188 463.535156 308.953125 466.832031 308.625 471 C 308.511719 472.488281 308.878906 473.820312 310.246094 474.652344 C 311.1875 475.230469 312.140625 475.828125 313.167969 476.230469 C 315.699219 477.21875 318.367188 477.652344 321.082031 477.734375 C 323.96875 477.828125 326.816406 477.484375 329.652344 476.96875 C 333.585938 476.253906 337.429688 475.214844 341.015625 473.414062 C 342.078125 472.882812 343.058594 472.175781 344.03125 471.484375 C 344.882812 470.875 345.292969 469.984375 345.292969 468.941406 C 345.292969 467.621094 345.324219 466.292969 345.214844 464.980469 C 344.902344 461.441406 343.980469 458.027344 342.933594 454.640625 Z M 342.933594 454.640625 " fill-opacity="1" fill-rule="nonzero"/></g><path fill="#ffffff" d="M 364.257812 453.851562 C 365.539062 454.234375 366.671875 454.761719 367.976562 454.488281 C 367.875 453.851562 367.425781 453.878906 367.101562 453.75 C 366.351562 453.449219 365.546875 453.25 364.839844 452.863281 C 363.132812 451.925781 362.820312 450.414062 364.097656 448.9375 C 364.695312 448.25 365.535156 447.75 366.328125 447.277344 C 366.871094 446.957031 367.519531 446.816406 368.214844 446.566406 C 368.300781 447.183594 368.332031 447.726562 368.460938 448.242188 C 368.5625 448.636719 368.703125 449.09375 368.976562 449.367188 C 370.476562 450.867188 373.296875 450.132812 373.875 448.101562 C 374.058594 447.460938 374.09375 446.777344 374.214844 445.976562 C 376.398438 446.148438 378.179688 446.992188 379.519531 448.679688 C 379.949219 449.222656 379.976562 449.886719 379.570312 450.472656 C 379.207031 450.996094 378.777344 451.476562 378.386719 451.976562 C 378.222656 452.191406 378.070312 452.417969 377.882812 452.675781 C 378.683594 453.1875 379.011719 452.316406 379.710938 452.285156 C 380.589844 453.84375 381.496094 455.460938 382.457031 457.164062 C 381.246094 457.488281 380.125 457.726562 379.050781 458.097656 C 375.585938 459.296875 372.746094 461.320312 370.777344 464.453125 C 370.527344 464.851562 370.304688 465.273438 370.160156 465.710938 C 370.085938 465.933594 370.210938 466.21875 370.285156 466.742188 C 370.652344 466.332031 370.882812 466.15625 371.011719 465.921875 C 373.265625 461.90625 376.785156 459.628906 381.195312 458.574219 C 384.765625 457.714844 388.269531 457.859375 391.644531 459.339844 C 395.152344 460.878906 397.472656 463.460938 398.242188 467.28125 C 398.59375 469.050781 398.226562 470.761719 397.664062 472.425781 C 397.554688 472.753906 397.09375 473.027344 396.734375 473.191406 C 393.914062 474.480469 390.9375 475.257812 387.875 475.703125 C 383.65625 476.316406 379.421875 476.4375 375.179688 475.960938 C 372.492188 475.660156 369.824219 475.207031 367.324219 474.136719 C 366.128906 473.613281 364.964844 472.917969 363.9375 472.109375 C 362.601562 471.054688 362.003906 469.609375 362.0625 467.847656 C 362.230469 463.144531 362.960938 458.535156 364.257812 453.851562 Z M 336.914062 464.871094 C 332.167969 459.839844 326.386719 458.21875 319.710938 459.871094 C 313.992188 461.285156 310.382812 465.273438 309.671875 470.699219 C 309.378906 472.960938 309.714844 473.644531 311.792969 474.609375 C 314.65625 475.941406 317.699219 476.617188 320.855469 476.75 C 323.304688 476.859375 325.738281 476.632812 328.152344 476.25 C 332.398438 475.578125 336.546875 474.554688 340.429688 472.671875 C 341.535156 472.132812 342.550781 471.40625 343.574219 470.714844 C 344.335938 470.199219 344.566406 469.453125 344.542969 468.507812 C 344.445312 464.433594 343.730469 460.464844 342.597656 456.5625 C 342.378906 455.804688 342.15625 455.042969 341.933594 454.285156 C 340.59375 454.765625 340.59375 454.765625 339.835938 454.476562 C 340.292969 454.195312 340.691406 453.976562 341.054688 453.707031 C 341.464844 453.402344 341.875 453.085938 342.234375 452.722656 C 343.183594 451.769531 343.234375 450.921875 342.355469 449.914062 C 340.988281 448.347656 339.230469 447.792969 337.109375 448 C 337.109375 448.5625 337.097656 449.054688 337.117188 449.550781 C 337.15625 450.59375 336.964844 450.964844 336.019531 451.289062 C 334.671875 451.757812 333.289062 451.992188 331.851562 451.675781 C 330.878906 451.464844 330.566406 451.148438 330.460938 450.144531 C 330.410156 449.609375 330.375 449.070312 330.332031 448.5625 C 328.511719 448.425781 326.191406 449.726562 325.535156 451.164062 C 325.023438 452.289062 325.277344 453.25 326.320312 453.949219 C 326.667969 454.1875 327.066406 454.410156 327.472656 454.492188 C 328.433594 454.683594 329.414062 454.777344 330.382812 454.921875 C 330.601562 454.953125 330.816406 455.027344 331.027344 455.085938 C 329.664062 455.960938 328.246094 455.664062 326.839844 455.4375 C 326.355469 456.328125 325.90625 457.167969 325.390625 458.109375 C 325.828125 458.191406 326.113281 458.273438 326.398438 458.300781 C 328.164062 458.464844 329.84375 458.953125 331.46875 459.628906 C 333.894531 460.636719 335.929688 462.15625 337.5 464.257812 C 337.8125 464.667969 338.292969 465.0625 337.914062 465.902344 C 337.53125 465.5 337.21875 465.191406 336.914062 464.871094 Z M 336.914062 464.871094 " fill-opacity="1" fill-rule="nonzero"/><path fill="#000000" d="M 373.402344 442.246094 C 373.304688 443.898438 373.253906 445.554688 373.101562 447.203125 C 372.980469 448.5625 372.359375 449.117188 371.183594 449.144531 C 369.785156 449.167969 369.34375 448.773438 369.265625 447.378906 C 368.941406 441.339844 368.523438 435.308594 367.6875 429.316406 C 366.179688 418.457031 363.921875 407.765625 360.65625 397.289062 C 359.933594 394.972656 359.1875 392.660156 358.347656 390.386719 C 357.9375 389.277344 358.335938 388.679688 359.011719 388.347656 C 359.824219 387.953125 361.128906 388.25 361.527344 388.992188 C 361.953125 389.777344 362.300781 390.609375 362.640625 391.433594 C 365.6875 398.960938 367.855469 406.742188 369.5625 414.667969 C 371.238281 422.425781 372.324219 430.257812 372.949219 438.167969 C 373.054688 439.523438 373.164062 440.886719 373.28125 442.242188 C 373.320312 442.238281 373.363281 442.242188 373.402344 442.246094 Z M 336.3125 449.246094 C 336.160156 446.441406 335.898438 443.628906 335.875 440.824219 C 335.820312 432.246094 336.410156 423.703125 337.582031 415.199219 C 338.441406 408.988281 339.507812 402.816406 341.253906 396.789062 C 341.902344 394.539062 342.75 392.347656 343.5 390.128906 C 343.84375 389.117188 343.296875 388.082031 342.246094 387.671875 C 341.335938 387.324219 340.3125 387.507812 340.085938 388.730469 C 340.050781 388.9375 339.945312 389.132812 339.871094 389.335938 C 337.730469 395.242188 336.183594 401.300781 335.039062 407.46875 C 333.707031 414.6875 332.792969 421.949219 332.132812 429.257812 C 331.574219 435.503906 331.167969 441.757812 331.183594 448.03125 C 331.183594 448.582031 331.179688 449.136719 331.210938 449.691406 C 331.265625 450.5625 331.402344 450.722656 332.261719 450.839844 C 333.664062 451.03125 334.984375 450.757812 336.351562 450.101562 C 336.339844 449.746094 336.328125 449.496094 336.3125 449.246094 Z M 336.3125 449.246094 " fill-opacity="1" fill-rule="nonzero"/><g clip-path="url(#82364a685e)"><path fill="#000000" d="M 455.976562 419.292969 C 455.484375 420.96875 454.867188 422.609375 454.210938 424.230469 C 453.367188 426.324219 451.742188 427.648438 449.707031 428.503906 C 448.839844 428.867188 447.949219 428.925781 447.042969 428.644531 C 445.171875 430.621094 443.042969 431.355469 440.429688 430.089844 C 439.410156 430.9375 438.363281 431.796875 436.878906 431.832031 C 435.476562 431.867188 434.292969 431.351562 433.152344 430.496094 C 431.9375 431.554688 430.507812 432 428.9375 431.769531 C 428.207031 431.660156 427.449219 431.441406 426.800781 431.085938 C 425.46875 430.359375 425.082031 429.265625 425.589844 427.8125 C 426.925781 423.960938 428.027344 420.050781 428.636719 416.015625 C 428.863281 414.519531 428.996094 412.992188 428.988281 411.480469 C 428.980469 409.574219 427.453125 407.699219 425.636719 407.167969 C 424.773438 406.917969 423.910156 406.960938 423.085938 407.371094 C 421.898438 407.964844 420.71875 408.578125 419.523438 409.148438 C 417.824219 409.960938 416.058594 410.484375 414.148438 410.332031 C 412.8125 410.226562 411.636719 409.753906 410.6875 408.796875 C 409.140625 407.238281 409.214844 405.089844 410.902344 403.699219 C 411.691406 403.046875 412.558594 402.496094 413.410156 401.925781 C 415.59375 400.472656 417.746094 398.984375 419.589844 397.09375 C 421.261719 395.378906 422.613281 393.480469 423.144531 391.089844 C 423.339844 390.214844 423.820312 389.570312 424.773438 389.183594 C 424.457031 388.910156 424.207031 388.699219 423.960938 388.484375 C 422.34375 387.082031 421.945312 385.3125 422.824219 383.34375 C 423.496094 381.832031 424.582031 380.691406 425.996094 379.859375 C 427.613281 378.910156 429.347656 378.28125 431.175781 377.886719 C 431.46875 377.820312 431.757812 377.753906 432.121094 377.675781 C 432.0625 376.878906 432.027344 376.128906 431.949219 375.378906 C 431.441406 370.421875 430.980469 365.460938 429.929688 360.578125 C 429.148438 356.9375 427.929688 353.484375 425.855469 350.367188 C 422.507812 345.335938 419.164062 340.300781 415.820312 335.265625 C 415.019531 334.0625 414.195312 332.875 413.464844 331.628906 C 412.988281 330.816406 412.570312 329.945312 412.277344 329.050781 C 411.679688 327.226562 412.726562 325.855469 414.296875 325.300781 C 415.460938 324.890625 416.589844 325.089844 417.511719 325.859375 C 418.347656 326.5625 419.132812 327.359375 419.804688 328.222656 C 422.300781 331.433594 424.746094 334.683594 427.195312 337.929688 C 428.664062 339.871094 430.09375 341.835938 431.550781 343.785156 C 435.5 349.042969 437.90625 354.980469 439.222656 361.40625 C 440.230469 366.300781 440.804688 371.242188 441.027344 376.230469 C 441.039062 376.457031 441.066406 376.679688 441.09375 376.964844 C 442.007812 377.207031 442.925781 377.421875 443.828125 377.695312 C 446.246094 378.421875 448.191406 379.816406 449.492188 381.996094 C 449.929688 382.726562 450.207031 383.59375 450.386719 384.433594 C 450.675781 385.785156 450.300781 386.996094 449.269531 387.964844 C 449.132812 388.09375 449.019531 388.238281 448.925781 388.34375 C 453.078125 393.496094 455.367188 399.449219 456.796875 405.765625 C 457.828125 410.328125 457.277344 414.855469 455.976562 419.292969 Z M 455.976562 419.292969 " fill-opacity="1" fill-rule="nonzero"/></g><path fill="#ffffff" d="M 433.820312 429.820312 C 435.9375 426.105469 436.554688 421.960938 437.15625 417.820312 C 437.3125 416.765625 437.445312 415.707031 437.515625 414.648438 C 437.570312 413.855469 437.53125 413.054688 437.480469 412.257812 C 437.464844 412.003906 437.273438 411.757812 437.160156 411.511719 C 437.0625 411.519531 436.96875 411.523438 436.871094 411.527344 C 436.761719 412.023438 436.617188 412.511719 436.558594 413.007812 C 436.300781 415.082031 436.109375 417.167969 435.824219 419.246094 C 435.457031 421.882812 434.964844 424.5 434.015625 427.003906 C 433.722656 427.78125 433.351562 428.550781 432.875 429.226562 C 431.65625 430.957031 429.074219 431.441406 427.261719 430.347656 C 426.261719 429.746094 425.953125 428.941406 426.417969 427.949219 C 427.808594 425 428.5625 421.859375 429.183594 418.6875 C 429.492188 417.121094 429.738281 415.542969 429.96875 413.960938 C 430.066406 413.289062 430.078125 412.59375 430.074219 411.914062 C 430.066406 409.566406 428.964844 407.855469 426.996094 406.667969 C 425.601562 405.828125 424.144531 405.703125 422.660156 406.433594 C 421.503906 407.003906 420.355469 407.59375 419.203125 408.167969 C 418.007812 408.757812 416.75 409.171875 415.417969 409.328125 C 414.128906 409.476562 412.921875 409.21875 411.863281 408.4375 C 410.332031 407.3125 410.285156 405.582031 411.769531 404.417969 C 412.542969 403.804688 413.386719 403.285156 414.199219 402.730469 C 416.246094 401.339844 418.25 399.90625 419.984375 398.128906 C 421.84375 396.222656 423.3125 394.097656 423.96875 391.457031 C 424.316406 390.066406 425.304688 389.511719 426.730469 389.878906 C 427.773438 390.144531 428.8125 390.304688 429.878906 390.175781 C 430.25 390.132812 430.609375 389.957031 430.972656 389.839844 C 430.960938 389.742188 430.957031 389.644531 430.945312 389.546875 C 430.558594 389.472656 430.171875 389.40625 429.789062 389.324219 C 428.640625 389.09375 427.449219 388.988281 426.351562 388.613281 C 423.183594 387.527344 422.507812 384.984375 424.605469 382.371094 C 424.84375 382.078125 425.109375 381.796875 425.390625 381.546875 C 426.863281 380.214844 430.109375 378.871094 432.179688 378.761719 C 432.339844 379.601562 432.464844 380.460938 432.667969 381.300781 C 433.332031 383.992188 436.289062 385.699219 438.949219 384.972656 C 439.964844 384.699219 440.640625 384.105469 440.796875 383.046875 C 440.933594 382.109375 441.015625 381.164062 441.074219 380.222656 C 441.113281 379.546875 441.082031 378.867188 441.082031 378.113281 C 443.851562 378.527344 446.230469 379.464844 447.992188 381.605469 C 448.351562 382.042969 448.660156 382.535156 448.910156 383.042969 C 449.972656 385.214844 449.507812 386.746094 447.429688 387.933594 C 446.738281 388.328125 446.011719 388.65625 445.304688 389.023438 C 444.992188 389.191406 444.691406 389.390625 444.3125 389.613281 C 445.160156 390.085938 445.960938 389.914062 448.117188 388.882812 C 448.535156 389.355469 449.050781 389.816406 449.421875 390.367188 C 450.140625 391.4375 450.855469 392.527344 451.441406 393.671875 C 453.039062 396.789062 454.324219 400.039062 455.320312 403.402344 C 456.769531 408.324219 456.671875 413.253906 455.257812 418.148438 C 454.703125 420.082031 454 421.972656 453.230469 423.832031 C 452.402344 425.824219 450.769531 426.960938 448.746094 427.566406 C 448.535156 427.628906 448.3125 427.632812 447.878906 427.695312 C 449.648438 425.046875 450.476562 422.25 450.921875 419.296875 C 451.550781 415.136719 451.664062 411.761719 451.074219 410.585938 C 450.625 410.828125 450.671875 411.269531 450.632812 411.652344 C 450.394531 413.960938 450.1875 416.273438 449.925781 418.578125 C 449.65625 420.929688 449.148438 423.226562 448.085938 425.371094 C 447.402344 426.753906 446.511719 427.980469 445.300781 428.941406 C 444.050781 429.933594 442.660156 430.140625 441.019531 429.484375 C 442.949219 426.796875 444.101562 423.863281 444.71875 420.710938 C 445.570312 416.390625 445.710938 412.4375 445.027344 411.246094 C 444.429688 411.539062 444.519531 412.117188 444.472656 412.613281 C 444.316406 414.394531 444.203125 416.179688 444.015625 417.957031 C 443.71875 420.730469 443.085938 423.425781 441.90625 425.972656 C 441.199219 427.503906 440.324219 428.925781 438.988281 429.996094 C 437.335938 431.320312 435.464844 431.25 433.820312 429.820312 Z M 437.386719 407.203125 C 436.960938 406.957031 436.734375 406.726562 436.484375 406.710938 C 436.085938 406.675781 435.824219 406.996094 435.90625 407.359375 C 435.957031 407.574219 436.320312 407.886719 436.496094 407.863281 C 436.757812 407.820312 436.984375 407.519531 437.386719 407.203125 Z M 451.941406 406.476562 C 451.738281 405.914062 451.460938 405.589844 450.933594 405.933594 C 450.78125 406.03125 450.644531 406.457031 450.726562 406.574219 C 451.082031 407.085938 451.480469 406.851562 451.941406 406.476562 Z M 445.648438 406.851562 C 445.296875 406.574219 445.042969 406.269531 444.945312 406.308594 C 444.71875 406.414062 444.527344 406.664062 444.421875 406.898438 C 444.386719 406.976562 444.695312 407.339844 444.804688 407.320312 C 445.046875 407.277344 445.261719 407.082031 445.648438 406.851562 Z M 445.648438 406.851562 " fill-opacity="1" fill-rule="nonzero"/><path fill="#000000" d="M 439.90625 378.234375 C 439.90625 379.144531 439.910156 380.707031 439.90625 382.265625 C 439.902344 383.160156 439.59375 383.597656 438.71875 383.785156 C 436.636719 384.234375 434.253906 383.027344 433.890625 381.03125 C 433.664062 379.800781 433.488281 378.550781 433.34375 377.308594 C 432.863281 373.117188 432.472656 368.910156 431.921875 364.726562 C 431.535156 361.785156 430.910156 358.882812 429.976562 356.058594 C 429.339844 354.132812 428.519531 352.292969 427.402344 350.609375 C 424.335938 345.988281 421.238281 341.382812 418.148438 336.773438 C 416.960938 335.007812 415.742188 333.261719 414.578125 331.480469 C 414.101562 330.753906 413.671875 329.980469 413.324219 329.183594 C 412.667969 327.679688 413.640625 326.273438 415.292969 326.242188 C 415.972656 326.226562 416.566406 326.472656 417.054688 326.914062 C 417.585938 327.402344 418.121094 327.902344 418.546875 328.472656 C 422.84375 334.183594 427.164062 339.871094 431.386719 345.636719 C 435.144531 350.769531 437.121094 356.652344 438.308594 362.847656 C 439.25 367.714844 439.71875 372.632812 439.90625 378.234375 Z M 439.90625 378.234375 " fill-opacity="1" fill-rule="nonzero"/><g clip-path="url(#efe1ce5ecd)"><g clip-path="url(#7febb47573)"><g clip-path="url(#07057a72e0)"><path fill="#e76f00" d="M 294.378906 417.804688 C 294.378906 417.804688 349.023438 471.847656 369.699219 476.988281 C 369.699219 476.988281 363.226562 490.117188 348.863281 483.109375 C 328.441406 473.144531 288.8125 425.667969 288.8125 425.667969 Z M 294.378906 417.804688 " fill-opacity="1" fill-rule="evenodd"/></g></g></g><g clip-path="url(#25df139495)"><g clip-path="url(#9ce8e5b8ae)"><g clip-path="url(#99e3f58c64)"><path fill="#5382a1" d="M 288.601562 426.40625 C 287.613281 426.71875 286.3125 426.257812 285.027344 424.660156 C 283.382812 422.613281 285.234375 419.058594 282.839844 417.457031 C 281.28125 416.410156 279.804688 416.171875 278.265625 414.664062 C 276.355469 412.796875 275.945312 411.0625 273.640625 409.324219 C 271.78125 407.921875 267.988281 406.144531 266.707031 403.808594 C 266.015625 402.546875 266.355469 401.582031 266.601562 400.839844 C 267.28125 398.796875 269.488281 396.175781 271.476562 395.453125 C 272.5 395.082031 273.886719 396.242188 275.214844 397.632812 C 277.699219 400.234375 280.222656 402.730469 282.738281 405.296875 C 286.21875 408.839844 289.734375 412.347656 293.207031 415.894531 C 294.101562 416.8125 295.742188 418 296.011719 419.070312 C 296.21875 419.886719 289.785156 425.847656 288.601562 426.40625 Z M 288.601562 426.40625 " fill-opacity="1" fill-rule="evenodd"/></g></g></g><g clip-path="url(#1c97153bd2)"><g clip-path="url(#bb15402b6d)"><g clip-path="url(#3351bfa368)"><path fill="#5382a1" d="M 269.851562 396.414062 C 277.65625 404.503906 285.320312 413.5 291.863281 422.472656 C 292.050781 422.726562 292.21875 422.996094 292.375 423.273438 C 290.777344 424.773438 289.144531 426.15625 288.601562 426.410156 C 287.617188 426.722656 286.316406 426.265625 285.027344 424.664062 C 283.386719 422.617188 285.234375 419.058594 282.84375 417.460938 C 281.28125 416.414062 279.808594 416.175781 278.265625 414.667969 C 276.359375 412.804688 275.945312 411.066406 273.644531 409.328125 C 271.785156 407.925781 267.988281 406.148438 266.707031 403.8125 C 266.015625 402.550781 266.359375 401.585938 266.605469 400.84375 C 267.101562 399.351562 268.40625 397.554688 269.851562 396.414062 Z M 269.851562 396.414062 " fill-opacity="1" fill-rule="evenodd"/></g></g></g><g clip-path="url(#da62ded4dd)"><g clip-path="url(#086936a99e)"><g clip-path="url(#52d64b3ba0)"><path fill="#e76f00" d="M 343.074219 460.988281 L 323.058594 462.675781 C 321.339844 461.015625 319.621094 459.316406 317.929688 457.613281 L 336.804688 456.023438 C 338.902344 457.726562 341 459.390625 343.074219 460.988281 Z M 343.074219 460.988281 " fill-opacity="1" fill-rule="evenodd"/></g></g></g><g clip-path="url(#011d28b2c5)"><g clip-path="url(#d8602b30d6)"><g clip-path="url(#1f47687777)"><path fill="#e76f00" d="M 367.90625 476.453125 C 368.527344 476.667969 369.125 476.847656 369.699219 476.988281 C 369.699219 476.988281 363.230469 490.121094 348.867188 483.113281 C 335.03125 476.359375 312.386719 452.402344 299.21875 437.648438 C 300.285156 437.648438 301.386719 437.84375 302.308594 438.375 C 303.792969 439.238281 304.835938 440.6875 305.953125 441.949219 C 307.597656 443.8125 309.332031 445.589844 310.949219 447.472656 C 316.925781 454.421875 323.753906 460.691406 330.445312 466.9375 C 335.269531 471.4375 339.917969 476.152344 345.859375 479.226562 C 349.242188 480.976562 352.902344 482.621094 356.816406 482.492188 C 360.769531 482.359375 365.355469 479.675781 367.90625 476.453125 Z M 367.90625 476.453125 " fill-opacity="1" fill-rule="evenodd"/></g></g></g><g clip-path="url(#1271ab6cbe)"><path fill="#000000" d="M 251.925781 419.292969 C 252.417969 420.96875 253.039062 422.609375 253.691406 424.230469 C 254.535156 426.324219 256.160156 427.648438 258.195312 428.503906 C 259.0625 428.867188 259.953125 428.925781 260.859375 428.644531 C 262.734375 430.621094 264.859375 431.355469 267.476562 430.089844 C 268.492188 430.9375 269.542969 431.796875 271.023438 431.832031 C 272.425781 431.867188 273.609375 431.351562 274.75 430.496094 C 275.964844 431.554688 277.394531 432 278.964844 431.769531 C 279.699219 431.660156 280.457031 431.441406 281.101562 431.085938 C 282.433594 430.359375 282.820312 429.265625 282.3125 427.8125 C 280.976562 423.960938 279.875 420.050781 279.265625 416.015625 C 279.042969 414.519531 278.90625 412.992188 278.914062 411.480469 C 278.921875 409.574219 280.449219 407.699219 282.269531 407.167969 C 283.132812 406.917969 283.992188 406.960938 284.816406 407.371094 C 286.003906 407.964844 287.183594 408.578125 288.378906 409.148438 C 290.078125 409.960938 291.847656 410.484375 293.757812 410.332031 C 295.089844 410.226562 296.265625 409.753906 297.214844 408.796875 C 298.761719 407.238281 298.691406 405.089844 297 403.699219 C 296.214844 403.046875 295.34375 402.496094 294.492188 401.925781 C 292.308594 400.472656 290.15625 398.984375 288.3125 397.09375 C 286.644531 395.378906 285.289062 393.480469 284.757812 391.089844 C 284.5625 390.214844 284.082031 389.570312 283.132812 389.183594 C 283.445312 388.910156 283.699219 388.699219 283.941406 388.484375 C 285.558594 387.082031 285.957031 385.3125 285.078125 383.34375 C 284.40625 381.832031 283.324219 380.691406 281.90625 379.859375 C 280.289062 378.910156 278.554688 378.28125 276.726562 377.886719 C 276.433594 377.820312 276.144531 377.753906 275.78125 377.675781 C 275.839844 376.878906 275.875 376.128906 275.953125 375.378906 C 276.460938 370.421875 276.921875 365.460938 277.972656 360.578125 C 278.757812 356.9375 279.972656 353.484375 282.046875 350.367188 C 285.398438 345.335938 288.738281 340.300781 292.082031 335.265625 C 292.882812 334.0625 293.707031 332.875 294.4375 331.628906 C 294.914062 330.816406 295.332031 329.945312 295.625 329.050781 C 296.226562 327.226562 295.179688 325.855469 293.605469 325.300781 C 292.441406 324.890625 291.3125 325.089844 290.390625 325.859375 C 289.554688 326.5625 288.769531 327.359375 288.097656 328.222656 C 285.601562 331.433594 283.15625 334.683594 280.707031 337.929688 C 279.242188 339.871094 277.8125 341.835938 276.351562 343.785156 C 272.40625 349.042969 269.996094 354.980469 268.679688 361.40625 C 267.671875 366.300781 267.097656 371.242188 266.875 376.230469 C 266.863281 376.457031 266.835938 376.679688 266.8125 376.964844 C 265.894531 377.207031 264.976562 377.421875 264.074219 377.695312 C 261.65625 378.421875 259.710938 379.816406 258.410156 381.996094 C 257.976562 382.726562 257.699219 383.59375 257.515625 384.433594 C 257.230469 385.785156 257.605469 386.996094 258.636719 387.964844 C 258.769531 388.09375 258.882812 388.238281 258.976562 388.34375 C 254.824219 393.496094 252.535156 399.449219 251.105469 405.765625 C 250.074219 410.328125 250.625 414.855469 251.925781 419.292969 Z M 251.925781 419.292969 " fill-opacity="1" fill-rule="nonzero"/></g><path fill="#ffffff" d="M 274.082031 429.820312 C 271.964844 426.105469 271.351562 421.960938 270.746094 417.820312 C 270.59375 416.765625 270.457031 415.707031 270.386719 414.648438 C 270.332031 413.855469 270.371094 413.054688 270.421875 412.257812 C 270.4375 412.003906 270.628906 411.757812 270.742188 411.511719 C 270.839844 411.519531 270.933594 411.523438 271.03125 411.527344 C 271.140625 412.023438 271.285156 412.511719 271.347656 413.007812 C 271.601562 415.082031 271.792969 417.167969 272.078125 419.246094 C 272.445312 421.882812 272.9375 424.5 273.886719 427.003906 C 274.179688 427.78125 274.550781 428.550781 275.027344 429.226562 C 276.246094 430.957031 278.828125 431.441406 280.640625 430.347656 C 281.640625 429.746094 281.949219 428.941406 281.484375 427.949219 C 280.097656 425 279.339844 421.859375 278.71875 418.6875 C 278.410156 417.121094 278.164062 415.542969 277.933594 413.960938 C 277.835938 413.289062 277.824219 412.59375 277.828125 411.914062 C 277.835938 409.566406 278.941406 407.855469 280.90625 406.667969 C 282.300781 405.828125 283.757812 405.703125 285.242188 406.433594 C 286.398438 407.003906 287.546875 407.59375 288.699219 408.167969 C 289.894531 408.757812 291.152344 409.171875 292.484375 409.328125 C 293.773438 409.476562 294.984375 409.21875 296.039062 408.4375 C 297.570312 407.3125 297.617188 405.582031 296.132812 404.417969 C 295.363281 403.804688 294.519531 403.285156 293.703125 402.730469 C 291.660156 401.339844 289.652344 399.90625 287.917969 398.128906 C 286.0625 396.222656 284.589844 394.097656 283.933594 391.457031 C 283.589844 390.066406 282.597656 389.511719 281.171875 389.878906 C 280.128906 390.144531 279.089844 390.304688 278.023438 390.175781 C 277.652344 390.132812 277.292969 389.957031 276.929688 389.839844 C 276.941406 389.742188 276.949219 389.644531 276.960938 389.546875 C 277.347656 389.472656 277.730469 389.40625 278.113281 389.324219 C 279.261719 389.09375 280.453125 388.988281 281.550781 388.613281 C 284.71875 387.527344 285.398438 384.984375 283.296875 382.371094 C 283.058594 382.078125 282.792969 381.796875 282.511719 381.546875 C 281.042969 380.214844 277.792969 378.871094 275.726562 378.761719 C 275.5625 379.601562 275.441406 380.460938 275.234375 381.300781 C 274.570312 383.992188 271.613281 385.699219 268.953125 384.972656 C 267.941406 384.699219 267.261719 384.105469 267.105469 383.046875 C 266.96875 382.109375 266.890625 381.164062 266.828125 380.222656 C 266.789062 379.546875 266.820312 378.867188 266.820312 378.113281 C 264.054688 378.527344 261.675781 379.464844 259.910156 381.605469 C 259.550781 382.042969 259.242188 382.535156 258.992188 383.042969 C 257.929688 385.214844 258.394531 386.746094 260.472656 387.933594 C 261.164062 388.328125 261.890625 388.65625 262.597656 389.023438 C 262.914062 389.191406 263.210938 389.390625 263.589844 389.613281 C 262.742188 390.085938 261.941406 389.914062 259.789062 388.882812 C 259.367188 389.355469 258.851562 389.816406 258.480469 390.367188 C 257.761719 391.4375 257.046875 392.527344 256.464844 393.671875 C 254.863281 396.789062 253.578125 400.039062 252.582031 403.402344 C 251.132812 408.324219 251.234375 413.253906 252.644531 418.148438 C 253.199219 420.082031 253.90625 421.972656 254.671875 423.832031 C 255.503906 425.824219 257.136719 426.960938 259.15625 427.566406 C 259.367188 427.628906 259.59375 427.632812 260.023438 427.695312 C 258.257812 425.046875 257.425781 422.25 256.980469 419.296875 C 256.351562 415.136719 256.238281 411.761719 256.832031 410.585938 C 257.277344 410.828125 257.230469 411.269531 257.269531 411.652344 C 257.511719 413.960938 257.714844 416.273438 257.980469 418.578125 C 258.246094 420.929688 258.753906 423.226562 259.816406 425.371094 C 260.5 426.753906 261.394531 427.980469 262.601562 428.941406 C 263.855469 429.933594 265.242188 430.140625 266.886719 429.484375 C 264.953125 426.796875 263.800781 423.863281 263.183594 420.710938 C 262.335938 416.390625 262.191406 412.4375 262.875 411.246094 C 263.476562 411.539062 263.386719 412.117188 263.429688 412.613281 C 263.585938 414.394531 263.699219 416.179688 263.886719 417.957031 C 264.183594 420.730469 264.820312 423.425781 265.996094 425.972656 C 266.707031 427.503906 267.578125 428.925781 268.914062 429.996094 C 270.566406 431.320312 272.4375 431.25 274.082031 429.820312 Z M 270.515625 407.203125 C 270.941406 406.957031 271.171875 406.726562 271.417969 406.710938 C 271.816406 406.675781 272.078125 406.996094 271.996094 407.359375 C 271.945312 407.574219 271.582031 407.886719 271.40625 407.863281 C 271.144531 407.820312 270.917969 407.519531 270.515625 407.203125 Z M 255.960938 406.476562 C 256.167969 405.914062 256.441406 405.589844 256.96875 405.933594 C 257.125 406.03125 257.257812 406.457031 257.175781 406.574219 C 256.820312 407.085938 256.421875 406.851562 255.960938 406.476562 Z M 262.257812 406.851562 C 262.605469 406.574219 262.859375 406.269531 262.957031 406.308594 C 263.183594 406.414062 263.378906 406.664062 263.484375 406.898438 C 263.515625 406.976562 263.207031 407.339844 263.101562 407.320312 C 262.855469 407.277344 262.640625 407.082031 262.257812 406.851562 Z M 262.257812 406.851562 " fill-opacity="1" fill-rule="nonzero"/><path fill="#000000" d="M 267.996094 378.234375 C 267.996094 379.144531 267.992188 380.707031 267.996094 382.265625 C 268 383.160156 268.308594 383.597656 269.1875 383.785156 C 271.269531 384.234375 273.648438 383.027344 274.015625 381.03125 C 274.238281 379.800781 274.414062 378.550781 274.558594 377.308594 C 275.039062 373.117188 275.433594 368.910156 275.980469 364.726562 C 276.367188 361.785156 276.992188 358.882812 277.925781 356.058594 C 278.566406 354.132812 279.382812 352.292969 280.5 350.609375 C 283.566406 345.988281 286.664062 341.382812 289.757812 336.773438 C 290.941406 335.007812 292.160156 333.261719 293.324219 331.480469 C 293.800781 330.753906 294.234375 329.980469 294.578125 329.183594 C 295.234375 327.679688 294.261719 326.273438 292.613281 326.242188 C 291.929688 326.226562 291.335938 326.472656 290.847656 326.914062 C 290.316406 327.402344 289.78125 327.902344 289.355469 328.472656 C 285.058594 334.183594 280.738281 339.871094 276.515625 345.636719 C 272.757812 350.769531 270.785156 356.652344 269.59375 362.847656 C 268.652344 367.714844 268.183594 372.632812 267.996094 378.234375 Z M 267.996094 378.234375 " fill-opacity="1" fill-rule="nonzero"/></svg>