<svg xmlns="http://www.w3.org/2000/svg" xmlns:xlink="http://www.w3.org/1999/xlink" width="944" zoomAndPan="magnify" viewBox="0 0 708 566.999966" height="755" preserveAspectRatio="xMidYMid meet" version="1.0"><defs><clipPath id="16a6ca3c1f"><path d="M 148 227 L 264 227 L 264 305 L 148 305 Z M 148 227 " clip-rule="nonzero"/></clipPath><clipPath id="2b8e81b061"><path d="M 140.210938 252.089844 L 173.636719 213.640625 L 268.621094 296.226562 L 235.195312 334.671875 Z M 140.210938 252.089844 " clip-rule="nonzero"/></clipPath><clipPath id="ff2fa9eeac"><path d="M 140.210938 252.089844 L 173.636719 213.640625 L 268.621094 296.226562 L 235.195312 334.671875 Z M 140.210938 252.089844 " clip-rule="nonzero"/></clipPath><clipPath id="fac0139df5"><path d="M 149 228 L 204 228 L 204 280 L 149 280 Z M 149 228 " clip-rule="nonzero"/></clipPath><clipPath id="2175e91f78"><path d="M 140.210938 252.089844 L 173.636719 213.640625 L 268.621094 296.226562 L 235.195312 334.671875 Z M 140.210938 252.089844 " clip-rule="nonzero"/></clipPath><clipPath id="65a6d26e59"><path d="M 140.210938 252.089844 L 173.636719 213.640625 L 268.621094 296.226562 L 235.195312 334.671875 Z M 140.210938 252.089844 " clip-rule="nonzero"/></clipPath><clipPath id="52880087e6"><path d="M 197 269 L 263 269 L 263 304 L 197 304 Z M 197 269 " clip-rule="nonzero"/></clipPath><clipPath id="611010bc38"><path d="M 140.210938 252.089844 L 173.636719 213.640625 L 268.621094 296.226562 L 235.195312 334.671875 Z M 140.210938 252.089844 " clip-rule="nonzero"/></clipPath><clipPath id="8242850d42"><path d="M 140.210938 252.089844 L 173.636719 213.640625 L 268.621094 296.226562 L 235.195312 334.671875 Z M 140.210938 252.089844 " clip-rule="nonzero"/></clipPath><clipPath id="b0cd594572"><path d="M 436 236 L 552 236 L 552 314 L 436 314 Z M 436 236 " clip-rule="nonzero"/></clipPath><clipPath id="8677a0be91"><path d="M 526.082031 222.796875 L 559.554688 261.203125 L 464.667969 343.898438 L 431.195312 305.492188 Z M 526.082031 222.796875 " clip-rule="nonzero"/></clipPath><clipPath id="90dc83f427"><path d="M 559.394531 261.015625 L 525.921875 222.609375 L 431.035156 305.308594 L 464.507812 343.714844 Z M 559.394531 261.015625 " clip-rule="nonzero"/></clipPath><clipPath id="5069335f03"><path d="M 495 237 L 551 237 L 551 289 L 495 289 Z M 495 237 " clip-rule="nonzero"/></clipPath><clipPath id="d1d559e499"><path d="M 526.082031 222.796875 L 559.554688 261.203125 L 464.667969 343.898438 L 431.195312 305.492188 Z M 526.082031 222.796875 " clip-rule="nonzero"/></clipPath><clipPath id="354158c28c"><path d="M 559.394531 261.015625 L 525.921875 222.609375 L 431.035156 305.308594 L 464.507812 343.714844 Z M 559.394531 261.015625 " clip-rule="nonzero"/></clipPath><clipPath id="cc0d71d80b"><path d="M 437 278 L 503 278 L 503 313 L 437 313 Z M 437 278 " clip-rule="nonzero"/></clipPath><clipPath id="c302186f14"><path d="M 526.082031 222.796875 L 559.554688 261.203125 L 464.667969 343.898438 L 431.195312 305.492188 Z M 526.082031 222.796875 " clip-rule="nonzero"/></clipPath><clipPath id="a3f352e8b5"><path d="M 559.394531 261.015625 L 525.921875 222.609375 L 431.035156 305.308594 L 464.507812 343.714844 Z M 559.394531 261.015625 " clip-rule="nonzero"/></clipPath><clipPath id="b7b6ff1143"><path d="M 289 377 L 427.566406 377 L 427.566406 516.289062 L 289 516.289062 Z M 289 377 " clip-rule="nonzero"/></clipPath><clipPath id="8a96cf4d4b"><path d="M 254.152344 183.359375 L 453.441406 183.359375 L 453.441406 382.648438 L 254.152344 382.648438 Z M 254.152344 183.359375 " clip-rule="nonzero"/></clipPath><clipPath id="3198d2520a"><path d="M 354 206 L 408.351562 206 L 408.351562 261 L 354 261 Z M 354 206 " clip-rule="nonzero"/></clipPath><clipPath id="6d8139d866"><path d="M 354 206 L 408.351562 206 L 408.351562 261 L 354 261 Z M 354 206 " clip-rule="nonzero"/></clipPath><clipPath id="1177e9eb28"><path d="M 299.714844 206 L 355 206 L 355 261 L 299.714844 261 Z M 299.714844 206 " clip-rule="nonzero"/></clipPath><clipPath id="e6bf73d2d5"><path d="M 299.714844 206 L 355 206 L 355 261 L 299.714844 261 Z M 299.714844 206 " clip-rule="nonzero"/></clipPath><clipPath id="99f53f9208"><path d="M 299.714844 197 L 349 197 L 349 209 L 299.714844 209 Z M 299.714844 197 " clip-rule="nonzero"/></clipPath><clipPath id="dfc4e686cd"><path d="M 302 259 L 352 259 L 352 262.613281 L 302 262.613281 Z M 302 259 " clip-rule="nonzero"/></clipPath><clipPath id="f731cc1511"><path d="M 356 259 L 405 259 L 405 262.613281 L 356 262.613281 Z M 356 259 " clip-rule="nonzero"/></clipPath><clipPath id="f75485635a"><path d="M 455 110 L 494.964844 110 L 494.964844 170 L 455 170 Z M 455 110 " clip-rule="nonzero"/></clipPath><clipPath id="97ea76fd1b"><path d="M 457.808594 116.652344 L 491.070312 116.652344 L 491.070312 169.289062 L 457.808594 169.289062 Z M 457.808594 116.652344 " clip-rule="nonzero"/></clipPath><clipPath id="e82db8bf7c"><path d="M 334 74 L 374.472656 74 L 374.472656 134 L 334 134 Z M 334 74 " clip-rule="nonzero"/></clipPath><clipPath id="271b58de01"><path d="M 337.3125 81.132812 L 370.574219 81.132812 L 370.574219 133.765625 L 337.3125 133.765625 Z M 337.3125 81.132812 " clip-rule="nonzero"/></clipPath><clipPath id="94ff56aa2f"><path d="M 269 87 L 309.457031 87 L 309.457031 147 L 269 147 Z M 269 87 " clip-rule="nonzero"/></clipPath><clipPath id="758cbd35d6"><path d="M 272.296875 93.953125 L 305.558594 93.953125 L 305.558594 146.585938 L 272.296875 146.585938 Z M 272.296875 93.953125 " clip-rule="nonzero"/></clipPath><clipPath id="2302fc9cb9"><path d="M 399 87 L 439.488281 87 L 439.488281 147 L 399 147 Z M 399 87 " clip-rule="nonzero"/></clipPath><clipPath id="20c829e375"><path d="M 402.332031 93.953125 L 435.59375 93.953125 L 435.59375 146.585938 L 402.332031 146.585938 Z M 402.332031 93.953125 " clip-rule="nonzero"/></clipPath><clipPath id="b97f6213e5"><path d="M 218.136719 116.652344 L 251.394531 116.652344 L 251.394531 169.289062 L 218.136719 169.289062 Z M 218.136719 116.652344 " clip-rule="nonzero"/></clipPath><clipPath id="97b21dc3d2"><path d="M 182 171 L 222.464844 171 L 222.464844 231 L 182 231 Z M 182 171 " clip-rule="nonzero"/></clipPath><clipPath id="5ccd2488a4"><path d="M 185.308594 177.796875 L 218.570312 177.796875 L 218.570312 230.433594 L 185.308594 230.433594 Z M 185.308594 177.796875 " clip-rule="nonzero"/></clipPath><clipPath id="9f5105cd57"><path d="M 496 171 L 536.613281 171 L 536.613281 231 L 496 231 Z M 496 171 " clip-rule="nonzero"/></clipPath><clipPath id="88bab69233"><path d="M 499.457031 177.796875 L 532.71875 177.796875 L 532.71875 230.433594 L 499.457031 230.433594 Z M 499.457031 177.796875 " clip-rule="nonzero"/></clipPath></defs><g clip-path="url(#16a6ca3c1f)"><g clip-path="url(#2b8e81b061)"><g clip-path="url(#ff2fa9eeac)"><path fill="#000000" d="M 201.730469 240.871094 C 201.664062 241.523438 201.539062 242.167969 201.363281 242.796875 C 201.132812 243.640625 200.839844 244.476562 200.542969 245.292969 C 199.925781 247.015625 199.90625 248.714844 200.480469 250.457031 C 200.820312 251.488281 201.175781 252.550781 201.316406 253.621094 C 201.492188 254.960938 201.433594 256.320312 201.480469 257.851562 C 201.511719 257.863281 201.734375 257.976562 201.957031 258.070312 C 204.054688 258.90625 205.097656 260.539062 204.949219 262.808594 C 204.839844 264.371094 204.269531 265.800781 203.511719 267.148438 C 203.125 267.832031 202.695312 268.488281 202.21875 269.261719 C 202.480469 269.519531 202.753906 269.796875 203.039062 270.046875 C 209.425781 275.390625 215.804688 280.742188 222.222656 286.054688 C 224.078125 287.582031 226.007812 289.023438 227.945312 290.445312 C 228.972656 291.199219 230.152344 291.636719 231.449219 291.84375 C 239.890625 293.171875 248.332031 294.539062 256.769531 295.90625 C 257.9375 296.101562 259.105469 296.292969 260.265625 296.5625 C 262.589844 297.105469 263.757812 299.265625 262.929688 301.527344 C 262.714844 302.09375 262.417969 302.660156 262.039062 303.128906 C 261.269531 304.0625 260.304688 304.519531 259.023438 304.3125 C 248.9375 302.65625 238.851562 301.058594 228.773438 299.367188 C 226.503906 298.984375 224.421875 297.925781 222.578125 296.585938 C 219.816406 294.578125 217.160156 292.433594 214.542969 290.242188 C 208.988281 285.609375 203.484375 280.910156 197.972656 276.242188 C 197.609375 275.9375 197.257812 275.621094 196.878906 275.289062 C 195.898438 276.113281 195.042969 276.859375 194.152344 277.5625 C 192.695312 278.710938 191.128906 279.648438 189.324219 280.171875 C 186.613281 280.96875 183.960938 279.859375 183.003906 276.910156 C 180.632812 277.09375 178.496094 276.128906 176.328125 275.304688 C 168.554688 272.339844 161.257812 268.460938 154.394531 263.777344 C 152.390625 262.398438 150.425781 260.996094 149.046875 258.933594 C 148.40625 257.972656 148.097656 256.96875 148.222656 255.832031 C 148.386719 254.300781 149.210938 253.429688 150.734375 253.261719 C 151.972656 253.121094 153.199219 253.214844 154.363281 253.652344 C 155.371094 254.027344 156.367188 254.417969 157.367188 254.800781 C 157.402344 254.746094 157.441406 254.6875 157.476562 254.632812 C 156.785156 254.113281 156.082031 253.628906 155.410156 253.085938 C 154.046875 251.984375 152.605469 250.96875 151.371094 249.730469 C 149.324219 247.667969 149.609375 244.875 151.910156 243.09375 C 153.125 242.144531 154.488281 241.9375 155.863281 242.597656 C 157.402344 243.339844 158.882812 244.179688 160.363281 245.035156 C 161.878906 245.902344 163.355469 246.828125 165.039062 247.550781 C 164.738281 247.222656 164.449219 246.882812 164.136719 246.554688 C 161.929688 244.179688 159.746094 241.777344 157.515625 239.433594 C 155.957031 237.800781 155.894531 236.046875 156.867188 234.113281 C 157.371094 233.117188 158.042969 232.277344 158.984375 231.660156 C 160.003906 230.984375 161.09375 230.867188 162.074219 231.515625 C 163.128906 232.191406 164.101562 233.023438 165.023438 233.882812 C 166.210938 234.984375 167.304688 236.1875 168.578125 237.238281 C 168.113281 236.570312 167.625 235.917969 167.1875 235.234375 C 166.671875 234.421875 166.117188 233.621094 165.738281 232.746094 C 165.046875 231.167969 165.410156 229.808594 166.6875 228.5625 C 168.054688 227.230469 169.777344 226.785156 171.242188 227.53125 C 172.054688 227.941406 172.84375 228.476562 173.46875 229.132812 C 175.664062 231.390625 177.863281 233.664062 179.910156 236.042969 C 182.882812 239.507812 186.097656 242.722656 189.566406 246.03125 C 189.679688 245.515625 189.785156 245.171875 189.84375 244.816406 C 190.289062 242.304688 191.203125 240.003906 192.925781 238.085938 C 193.417969 237.535156 193.992188 237.019531 194.617188 236.636719 C 196.195312 235.652344 197.867188 235.574219 199.46875 236.578125 C 201.042969 237.550781 201.925781 238.949219 201.730469 240.871094 Z M 201.730469 240.871094 " fill-opacity="1" fill-rule="nonzero"/></g></g></g><g clip-path="url(#fac0139df5)"><g clip-path="url(#2175e91f78)"><g clip-path="url(#65a6d26e59)"><path fill="#ffffff" d="M 169.300781 251.226562 C 169.375 250.5 168.890625 250.078125 168.492188 249.660156 C 166.476562 247.53125 164.414062 245.433594 162.40625 243.296875 C 160.9375 241.738281 159.535156 240.101562 158.070312 238.535156 C 157.105469 237.5 156.988281 236.339844 157.539062 235.132812 C 157.882812 234.382812 158.355469 233.664062 158.894531 233.058594 C 159.898438 231.9375 160.914062 231.828125 162.171875 232.683594 C 162.851562 233.152344 163.480469 233.726562 164.054688 234.308594 C 167.394531 237.714844 170.722656 241.152344 174.066406 244.5625 C 174.378906 244.875 174.773438 245.105469 175.117188 245.367188 C 175.648438 244.738281 175.269531 244.421875 175.007812 244.082031 C 173.007812 241.425781 170.992188 238.78125 169.015625 236.097656 C 168.234375 235.042969 167.472656 233.960938 166.851562 232.808594 C 166.015625 231.273438 166.300781 230.207031 167.601562 229.066406 C 168.871094 227.953125 170.199219 227.835938 171.546875 228.8125 C 173.554688 230.25 175.210938 232.070312 176.792969 233.949219 C 179.957031 237.703125 183.183594 241.402344 186.746094 244.777344 C 187.417969 245.414062 188.085938 246.039062 188.789062 246.636719 C 189.929688 247.597656 190.28125 247.445312 190.566406 246.019531 C 190.773438 244.945312 190.976562 243.863281 191.285156 242.808594 C 191.832031 240.914062 192.898438 239.300781 194.339844 237.960938 C 196.375 236.089844 199.207031 236.542969 200.457031 238.914062 C 200.988281 239.917969 200.835938 240.972656 200.578125 241.988281 C 200.367188 242.839844 200.082031 243.679688 199.757812 244.484375 C 198.867188 246.710938 198.832031 248.925781 199.65625 251.164062 C 199.894531 251.816406 200.078125 252.503906 200.234375 253.1875 C 200.953125 256.457031 200.152344 259.347656 197.988281 261.886719 C 197.609375 262.335938 197.207031 262.785156 196.769531 263.285156 C 198.25 263.535156 198.6875 263.066406 201.054688 258.902344 C 203.246094 259.46875 204.21875 260.832031 203.957031 263.019531 C 203.78125 264.582031 203.125 265.960938 202.3125 267.28125 C 200.890625 269.570312 199.113281 271.582031 197.175781 273.441406 C 195.597656 274.957031 193.90625 276.359375 192.1875 277.710938 C 191.121094 278.554688 189.835938 279.070312 188.476562 279.335938 C 187.101562 279.605469 185.847656 279.351562 184.816406 278.359375 C 183.851562 277.4375 183.804688 277.0625 184.417969 275.894531 C 184.238281 275.859375 184.074219 275.789062 183.917969 275.808594 C 182.078125 276.117188 180.351562 275.703125 178.644531 275.074219 C 170.761719 272.222656 163.300781 268.480469 156.292969 263.867188 C 154.863281 262.933594 153.457031 261.960938 152.128906 260.875 C 151.261719 260.164062 150.542969 259.261719 149.8125 258.386719 C 149.230469 257.683594 149.019531 256.835938 149.121094 255.917969 C 149.234375 254.816406 149.648438 254.257812 150.75 254.238281 C 151.867188 254.21875 153.097656 254.226562 154.101562 254.640625 C 156.601562 255.683594 159 256.960938 161.429688 258.164062 C 162.453125 258.667969 163.445312 259.222656 164.464844 259.714844 C 164.796875 259.878906 165.171875 259.925781 165.734375 260.09375 C 165.582031 259.710938 165.558594 259.511719 165.449219 259.429688 C 163.046875 257.605469 160.632812 255.785156 158.214844 253.976562 C 156.878906 252.980469 155.503906 252.035156 154.203125 251.003906 C 153.351562 250.320312 152.503906 249.597656 151.820312 248.765625 C 150.339844 246.949219 150.96875 244.511719 153.105469 243.496094 C 154.023438 243.0625 154.925781 243.164062 155.765625 243.617188 C 157.492188 244.5625 159.222656 245.519531 160.90625 246.523438 C 163.277344 247.945312 165.597656 249.417969 167.960938 250.859375 C 168.351562 251.101562 168.726562 251.46875 169.300781 251.226562 Z M 180.550781 247.519531 C 180.488281 247.414062 180.429688 247.304688 180.371094 247.199219 C 180.097656 247.253906 179.800781 247.277344 179.546875 247.375 C 178.328125 247.851562 177.40625 248.75 176.585938 249.710938 C 174.882812 251.714844 173.226562 253.75 171.628906 255.84375 C 169.945312 258.050781 168.652344 260.484375 167.722656 263.105469 C 167.550781 263.574219 167.496094 264.070312 167.367188 264.652344 C 168.066406 264.4375 168.058594 264.429688 169.085938 262.144531 C 169.511719 261.191406 169.96875 260.234375 170.488281 259.332031 C 171.007812 258.417969 171.601562 257.554688 172.199219 256.691406 C 172.769531 255.863281 173.375 255.050781 173.992188 254.261719 C 174.644531 253.433594 175.328125 252.632812 176.023438 251.84375 C 176.722656 251.054688 177.429688 250.277344 178.191406 249.558594 C 178.949219 248.835938 179.769531 248.195312 180.550781 247.519531 Z M 190.425781 250.164062 C 190.363281 250.058594 190.296875 249.941406 190.238281 249.835938 C 189.828125 250.035156 189.390625 250.1875 189.027344 250.441406 C 187.550781 251.488281 186.28125 252.753906 185.242188 254.25 C 184.117188 255.898438 183.195312 257.644531 183.050781 259.667969 C 182.996094 260.386719 183.160156 261.128906 183.304688 261.855469 C 183.382812 262.230469 183.6875 262.425781 184.164062 262.101562 C 183.480469 259.847656 184.183594 257.820312 185.316406 255.878906 C 186.238281 254.308594 187.460938 253 188.792969 251.785156 C 189.367188 251.269531 190.03125 250.839844 190.425781 250.164062 Z M 190.425781 250.164062 " fill-opacity="1" fill-rule="nonzero"/></g></g></g><g clip-path="url(#52880087e6)"><g clip-path="url(#611010bc38)"><g clip-path="url(#8242850d42)"><path fill="#000000" d="M 197.472656 274.734375 C 198.910156 273.082031 200.230469 271.5625 201.617188 269.96875 C 202.015625 270.246094 202.34375 270.445312 202.621094 270.6875 C 209.875 276.839844 217.109375 283.003906 224.382812 289.132812 C 225.484375 290.0625 226.726562 290.824219 227.917969 291.632812 C 228.847656 292.273438 229.9375 292.398438 231.019531 292.574219 C 239.285156 293.917969 247.546875 295.28125 255.8125 296.625 C 256.980469 296.816406 258.160156 296.964844 259.320312 297.164062 C 261.765625 297.585938 262.855469 299.902344 261.609375 302.023438 C 261.039062 302.980469 260.214844 303.464844 259.089844 303.351562 C 258.566406 303.300781 258.050781 303.1875 257.53125 303.113281 C 248.402344 301.644531 239.273438 300.140625 230.128906 298.71875 C 228.542969 298.464844 227.082031 297.964844 225.679688 297.246094 C 223.335938 296.035156 221.140625 294.65625 219.117188 292.9375 C 212.207031 287.054688 205.222656 281.261719 198.277344 275.445312 C 198.027344 275.214844 197.765625 274.988281 197.472656 274.734375 Z M 197.472656 274.734375 " fill-opacity="1" fill-rule="nonzero"/></g></g></g><g clip-path="url(#b0cd594572)"><g clip-path="url(#8677a0be91)"><g clip-path="url(#90dc83f427)"><path fill="#000000" d="M 497.859375 249.875 C 497.929688 250.527344 498.054688 251.167969 498.230469 251.800781 C 498.464844 252.644531 498.757812 253.476562 499.050781 254.292969 C 499.675781 256.015625 499.695312 257.714844 499.121094 259.457031 C 498.785156 260.488281 498.429688 261.554688 498.289062 262.625 C 498.117188 263.960938 498.175781 265.320312 498.132812 266.851562 C 498.101562 266.867188 497.878906 266.976562 497.65625 267.074219 C 495.558594 267.910156 494.515625 269.542969 494.667969 271.8125 C 494.777344 273.378906 495.351562 274.804688 496.113281 276.152344 C 496.496094 276.835938 496.929688 277.492188 497.40625 278.261719 C 497.144531 278.519531 496.871094 278.800781 496.585938 279.046875 C 490.207031 284.398438 483.832031 289.757812 477.425781 295.078125 C 475.570312 296.609375 473.640625 298.054688 471.703125 299.476562 C 470.675781 300.234375 469.5 300.671875 468.203125 300.878906 C 459.761719 302.21875 451.324219 303.597656 442.886719 304.976562 C 441.71875 305.167969 440.550781 305.363281 439.394531 305.632812 C 437.070312 306.179688 435.902344 308.339844 436.734375 310.601562 C 436.949219 311.167969 437.246094 311.734375 437.625 312.199219 C 438.398438 313.132812 439.363281 313.589844 440.644531 313.378906 C 450.726562 311.714844 460.8125 310.101562 470.886719 308.398438 C 473.15625 308.015625 475.238281 306.953125 477.078125 305.613281 C 479.839844 303.601562 482.492188 301.453125 485.109375 299.261719 C 490.65625 294.617188 496.152344 289.914062 501.660156 285.238281 C 502.023438 284.933594 502.375 284.617188 502.753906 284.285156 C 503.734375 285.105469 504.59375 285.851562 505.484375 286.554688 C 506.941406 287.699219 508.511719 288.636719 510.316406 289.160156 C 513.027344 289.953125 515.679688 288.839844 516.628906 285.890625 C 519.003906 286.070312 521.136719 285.101562 523.300781 284.277344 C 531.074219 281.300781 538.367188 277.414062 545.226562 272.722656 C 547.226562 271.34375 549.191406 269.9375 550.566406 267.871094 C 551.207031 266.910156 551.511719 265.90625 551.386719 264.769531 C 551.222656 263.238281 550.394531 262.367188 548.871094 262.203125 C 547.636719 262.0625 546.40625 262.15625 545.246094 262.597656 C 544.234375 262.972656 543.242188 263.367188 542.238281 263.75 C 542.207031 263.695312 542.164062 263.632812 542.132812 263.578125 C 542.820312 263.0625 543.527344 262.574219 544.195312 262.03125 C 545.558594 260.929688 546.996094 259.910156 548.230469 258.671875 C 550.273438 256.609375 549.988281 253.816406 547.683594 252.039062 C 546.46875 251.089844 545.101562 250.878906 543.730469 251.546875 C 542.191406 252.285156 540.710938 253.128906 539.230469 253.988281 C 537.71875 254.859375 536.242188 255.785156 534.5625 256.507812 C 534.859375 256.179688 535.148438 255.839844 535.464844 255.511719 C 537.664062 253.132812 539.847656 250.730469 542.074219 248.382812 C 543.628906 246.746094 543.6875 244.992188 542.71875 243.0625 C 542.210938 242.0625 541.535156 241.226562 540.59375 240.609375 C 539.574219 239.933594 538.488281 239.820312 537.503906 240.46875 C 536.453125 241.148438 535.480469 241.980469 534.558594 242.839844 C 533.375 243.941406 532.28125 245.148438 531.007812 246.199219 C 531.472656 245.53125 531.960938 244.878906 532.394531 244.195312 C 532.914062 243.382812 533.464844 242.578125 533.84375 241.703125 C 534.53125 240.125 534.167969 238.765625 532.890625 237.523438 C 531.519531 236.191406 529.796875 235.75 528.332031 236.496094 C 527.523438 236.910156 526.734375 237.441406 526.109375 238.101562 C 523.914062 240.359375 521.71875 242.636719 519.675781 245.019531 C 516.707031 248.484375 513.496094 251.703125 510.03125 255.015625 C 509.917969 254.503906 509.8125 254.160156 509.753906 253.804688 C 509.304688 251.292969 508.386719 248.992188 506.660156 247.074219 C 506.167969 246.527344 505.59375 246.011719 504.96875 245.632812 C 503.390625 244.648438 501.71875 244.570312 500.117188 245.574219 C 498.546875 246.554688 497.660156 247.953125 497.859375 249.875 Z M 497.859375 249.875 " fill-opacity="1" fill-rule="nonzero"/></g></g></g><g clip-path="url(#5069335f03)"><g clip-path="url(#d1d559e499)"><g clip-path="url(#354158c28c)"><path fill="#ffffff" d="M 530.304688 260.191406 C 530.226562 259.460938 530.710938 259.039062 531.109375 258.621094 C 533.125 256.488281 535.179688 254.390625 537.1875 252.25 C 538.65625 250.691406 540.054688 249.050781 541.515625 247.484375 C 542.480469 246.449219 542.597656 245.289062 542.042969 244.078125 C 541.699219 243.332031 541.226562 242.613281 540.6875 242.011719 C 539.683594 240.890625 538.667969 240.78125 537.410156 241.640625 C 536.730469 242.105469 536.105469 242.679688 535.527344 243.265625 C 532.191406 246.675781 528.867188 250.117188 525.53125 253.527344 C 525.21875 253.84375 524.824219 254.074219 524.476562 254.335938 C 523.945312 253.710938 524.324219 253.394531 524.585938 253.054688 C 526.585938 250.390625 528.59375 247.746094 530.570312 245.058594 C 531.351562 244.003906 532.109375 242.921875 532.730469 241.765625 C 533.566406 240.230469 533.277344 239.167969 531.976562 238.027344 C 530.703125 236.914062 529.378906 236.800781 528.03125 237.78125 C 526.027344 239.21875 524.367188 241.039062 522.789062 242.921875 C 519.628906 246.679688 516.40625 250.378906 512.847656 253.761719 C 512.179688 254.398438 511.511719 255.023438 510.808594 255.621094 C 509.671875 256.585938 509.316406 256.433594 509.03125 255.007812 C 508.820312 253.933594 508.617188 252.855469 508.308594 251.796875 C 507.761719 249.902344 506.691406 248.292969 505.246094 246.953125 C 503.210938 245.082031 500.378906 245.542969 499.132812 247.914062 C 498.601562 248.917969 498.753906 249.972656 499.015625 250.988281 C 499.226562 251.839844 499.511719 252.679688 499.835938 253.484375 C 500.730469 255.707031 500.765625 257.921875 499.945312 260.160156 C 499.707031 260.816406 499.527344 261.503906 499.371094 262.183594 C 498.65625 265.460938 499.460938 268.347656 501.628906 270.882812 C 502.007812 271.335938 502.410156 271.78125 502.847656 272.28125 C 501.371094 272.535156 500.933594 272.0625 498.558594 267.902344 C 496.367188 268.472656 495.398438 269.835938 495.660156 272.023438 C 495.835938 273.585938 496.496094 274.964844 497.308594 276.28125 C 498.734375 278.570312 500.515625 280.582031 502.453125 282.4375 C 504.035156 283.949219 505.730469 285.351562 507.449219 286.699219 C 508.515625 287.542969 509.800781 288.058594 511.160156 288.324219 C 512.535156 288.589844 513.789062 288.335938 514.820312 287.34375 C 515.78125 286.417969 515.828125 286.042969 515.214844 284.875 C 515.398438 284.839844 515.558594 284.769531 515.714844 284.789062 C 517.554688 285.097656 519.28125 284.679688 520.984375 284.046875 C 528.867188 281.183594 536.324219 277.4375 543.328125 272.8125 C 544.753906 271.878906 546.160156 270.902344 547.484375 269.820312 C 548.351562 269.105469 549.070312 268.199219 549.800781 267.328125 C 550.382812 266.621094 550.589844 265.773438 550.488281 264.855469 C 550.375 263.753906 549.957031 263.195312 548.855469 263.179688 C 547.742188 263.160156 546.511719 263.171875 545.507812 263.585938 C 543.007812 264.632812 540.609375 265.910156 538.183594 267.117188 C 537.15625 267.621094 536.167969 268.179688 535.148438 268.671875 C 534.820312 268.835938 534.441406 268.882812 533.878906 269.054688 C 534.03125 268.667969 534.054688 268.46875 534.164062 268.386719 C 536.566406 266.558594 538.976562 264.738281 541.394531 262.925781 C 542.726562 261.929688 544.101562 260.984375 545.402344 259.949219 C 546.253906 259.261719 547.097656 258.539062 547.78125 257.707031 C 549.257812 255.886719 548.625 253.453125 546.488281 252.4375 C 545.570312 252.007812 544.671875 252.109375 543.828125 252.566406 C 542.101562 253.511719 540.375 254.46875 538.691406 255.476562 C 536.324219 256.898438 534.003906 258.375 531.640625 259.820312 C 531.253906 260.0625 530.878906 260.429688 530.304688 260.191406 Z M 519.050781 256.496094 C 519.109375 256.390625 519.167969 256.28125 519.226562 256.171875 C 519.5 256.230469 519.796875 256.25 520.050781 256.351562 C 521.269531 256.824219 522.195312 257.722656 523.015625 258.679688 C 524.722656 260.6875 526.378906 262.71875 527.980469 264.8125 C 529.667969 267.015625 530.960938 269.445312 531.894531 272.066406 C 532.066406 272.535156 532.121094 273.03125 532.253906 273.613281 C 531.554688 273.398438 531.5625 273.394531 530.53125 271.105469 C 530.101562 270.152344 529.644531 269.199219 529.125 268.296875 C 528.605469 267.382812 528.007812 266.519531 527.410156 265.65625 C 526.839844 264.828125 526.230469 264.019531 525.613281 263.230469 C 524.960938 262.402344 524.277344 261.601562 523.578125 260.816406 C 522.878906 260.027344 522.171875 259.25 521.410156 258.53125 C 520.652344 257.808594 519.832031 257.167969 519.050781 256.496094 Z M 509.179688 259.152344 C 509.238281 259.042969 509.304688 258.929688 509.363281 258.824219 C 509.773438 259.023438 510.210938 259.171875 510.574219 259.429688 C 512.054688 260.472656 513.324219 261.738281 514.363281 263.234375 C 515.492188 264.878906 516.414062 266.625 516.5625 268.648438 C 516.617188 269.367188 516.457031 270.109375 516.3125 270.835938 C 516.234375 271.210938 515.929688 271.40625 515.453125 271.082031 C 516.132812 268.828125 515.425781 266.800781 514.292969 264.859375 C 513.371094 263.289062 512.144531 261.984375 510.8125 260.773438 C 510.234375 260.253906 509.570312 259.828125 509.179688 259.152344 Z M 509.179688 259.152344 " fill-opacity="1" fill-rule="nonzero"/></g></g></g><g clip-path="url(#cc0d71d80b)"><g clip-path="url(#c302186f14)"><g clip-path="url(#a3f352e8b5)"><path fill="#000000" d="M 502.15625 283.730469 C 500.71875 282.078125 499.398438 280.5625 498.007812 278.96875 C 497.609375 279.246094 497.28125 279.445312 497.007812 279.6875 C 489.757812 285.851562 482.53125 292.023438 475.265625 298.160156 C 474.167969 299.089844 472.921875 299.855469 471.734375 300.664062 C 470.804688 301.308594 469.71875 301.433594 468.632812 301.609375 C 460.367188 302.960938 452.109375 304.339844 443.84375 305.691406 C 442.675781 305.882812 441.496094 306.03125 440.335938 306.234375 C 437.894531 306.660156 436.804688 308.976562 438.058594 311.097656 C 438.625 312.054688 439.449219 312.535156 440.574219 312.421875 C 441.101562 312.367188 441.613281 312.257812 442.132812 312.179688 C 451.261719 310.703125 460.386719 309.1875 469.53125 307.753906 C 471.117188 307.5 472.574219 307 473.980469 306.277344 C 476.320312 305.0625 478.515625 303.679688 480.539062 301.957031 C 487.4375 296.070312 494.414062 290.269531 501.355469 284.441406 C 501.605469 284.210938 501.863281 283.984375 502.15625 283.730469 Z M 502.15625 283.730469 " fill-opacity="1" fill-rule="nonzero"/></g></g></g><g clip-path="url(#b7b6ff1143)"><path fill="#000000" d="M 425.644531 508.332031 C 425.125 509.304688 424.480469 509.988281 423.527344 510.507812 C 420.054688 512.402344 416.292969 513.433594 412.460938 514.117188 C 402.828125 515.847656 393.195312 515.925781 383.597656 513.8125 C 380.417969 513.113281 377.34375 512.105469 374.515625 510.414062 C 370.839844 508.21875 369.0625 505.058594 369.054688 500.765625 C 369.039062 493.6875 370.125 486.796875 372.203125 480.050781 C 372.429688 479.320312 372.5625 478.738281 371.933594 478.117188 C 370.296875 476.511719 370.4375 473.6875 371.910156 471.644531 C 373.257812 469.773438 375.113281 468.640625 377.253906 467.910156 C 378.042969 467.632812 378.851562 467.40625 379.796875 467.113281 C 379.640625 464.878906 379.554688 462.695312 379.324219 460.515625 C 378.632812 453.925781 377.988281 447.328125 377.121094 440.761719 C 375.183594 426.054688 372.0625 411.59375 367.875 397.367188 C 366.480469 392.632812 364.976562 387.9375 363.449219 383.242188 C 362.914062 381.601562 362.945312 380.175781 364.316406 378.988281 C 365.542969 377.917969 367.84375 377.683594 369.25 378.644531 C 369.902344 379.082031 370.453125 379.824219 370.816406 380.546875 C 373.570312 386.082031 375.59375 391.910156 377.429688 397.808594 C 380.867188 408.855469 383.613281 420.078125 385.480469 431.496094 C 387.03125 440.988281 388.289062 450.519531 388.707031 460.140625 C 388.792969 462.082031 388.722656 464.03125 388.722656 466.179688 C 391.722656 466.296875 394.191406 467.359375 396.390625 469.074219 C 398.882812 471.015625 399.238281 472.398438 398.347656 475.480469 C 398.199219 475.992188 398.46875 476.722656 398.742188 477.25 C 400.007812 479.664062 401.347656 482.03125 402.765625 484.605469 C 403.300781 484.605469 404.0625 484.636719 404.828125 484.597656 C 408.660156 484.414062 412.359375 485.058594 415.855469 486.59375 C 421.621094 489.125 425.511719 493.347656 426.808594 499.625 C 427.398438 502.605469 427.132812 505.546875 425.644531 508.332031 Z M 341.386719 480.964844 C 341.128906 480.113281 340.996094 479.484375 341.6875 478.675781 C 343.480469 476.574219 343.363281 474.640625 341.46875 472.59375 C 339.625 470.605469 337.367188 469.441406 334.605469 469.363281 C 333.847656 469.339844 333.101562 469.292969 332.132812 469.246094 C 332.132812 468.230469 332.148438 467.398438 332.132812 466.5625 C 331.808594 453.15625 332.429688 439.792969 334.019531 426.480469 C 335.132812 417.183594 336.5 407.9375 338.800781 398.855469 C 340.027344 394.007812 341.570312 389.25 342.898438 384.429688 C 343.238281 383.195312 343.441406 381.882812 343.425781 380.617188 C 343.402344 379.058594 342.121094 377.855469 340.445312 377.433594 C 338.632812 376.976562 337.328125 377.414062 336.414062 378.957031 C 335.824219 379.957031 335.289062 381.027344 334.941406 382.125 C 333.460938 386.828125 331.863281 391.507812 330.660156 396.28125 C 327.773438 407.691406 325.976562 419.316406 324.703125 431.011719 C 323.339844 443.484375 322.230469 455.972656 322.355469 468.539062 C 322.363281 469.039062 322.285156 469.550781 322.238281 470.132812 C 319.53125 470.039062 317.40625 471.265625 315.453125 472.824219 C 313.234375 474.585938 311.808594 478.382812 315.164062 481.027344 C 315.257812 481.105469 315.328125 481.222656 315.605469 481.570312 C 315.011719 482.667969 314.382812 483.722656 313.871094 484.832031 C 313.382812 485.894531 312.644531 486.277344 311.472656 486.367188 C 306.609375 486.734375 301.988281 488 297.949219 490.855469 C 292.761719 494.519531 289.859375 499.546875 289.363281 505.898438 C 289.1875 508.171875 289.75 510.203125 291.816406 511.46875 C 293.25 512.347656 294.691406 513.261719 296.25 513.875 C 300.089844 515.382812 304.136719 516.042969 308.253906 516.171875 C 312.628906 516.3125 316.949219 515.785156 321.246094 515 C 327.214844 513.914062 333.039062 512.324219 338.476562 509.582031 C 340.089844 508.769531 341.578125 507.691406 343.050781 506.640625 C 344.339844 505.710938 344.960938 504.351562 344.960938 502.761719 C 344.960938 500.75 345.007812 498.726562 344.84375 496.722656 C 344.371094 491.328125 342.96875 486.121094 341.386719 480.964844 Z M 341.386719 480.964844 " fill-opacity="1" fill-rule="nonzero"/></g><path fill="#ffffff" d="M 373.722656 479.757812 C 375.664062 480.339844 377.382812 481.144531 379.355469 480.726562 C 379.207031 479.757812 378.523438 479.800781 378.035156 479.601562 C 376.894531 479.144531 375.671875 478.839844 374.601562 478.25 C 372.011719 476.820312 371.542969 474.515625 373.476562 472.265625 C 374.382812 471.21875 375.65625 470.457031 376.863281 469.734375 C 377.679688 469.246094 378.664062 469.03125 379.71875 468.648438 C 379.851562 469.589844 379.898438 470.417969 380.097656 471.203125 C 380.246094 471.808594 380.457031 472.5 380.875 472.917969 C 383.152344 475.207031 387.425781 474.089844 388.304688 470.992188 C 388.582031 470.015625 388.636719 468.96875 388.816406 467.75 C 392.132812 468.011719 394.832031 469.300781 396.863281 471.871094 C 397.515625 472.699219 397.554688 473.710938 396.941406 474.609375 C 396.390625 475.402344 395.734375 476.132812 395.144531 476.898438 C 394.894531 477.226562 394.664062 477.574219 394.382812 477.964844 C 395.59375 478.746094 396.089844 477.417969 397.152344 477.367188 C 398.484375 479.742188 399.859375 482.214844 401.316406 484.808594 C 399.480469 485.304688 397.78125 485.664062 396.152344 486.230469 C 390.894531 488.054688 386.589844 491.148438 383.605469 495.921875 C 383.230469 496.527344 382.890625 497.171875 382.671875 497.839844 C 382.558594 498.175781 382.75 498.609375 382.859375 499.414062 C 383.417969 498.78125 383.765625 498.515625 383.960938 498.160156 C 387.378906 492.035156 392.714844 488.566406 399.402344 486.957031 C 404.820312 485.648438 410.132812 485.871094 415.246094 488.128906 C 420.566406 490.46875 424.085938 494.410156 425.25 500.230469 C 425.785156 502.925781 425.226562 505.539062 424.378906 508.078125 C 424.210938 508.574219 423.511719 508.992188 422.96875 509.242188 C 418.6875 511.207031 414.175781 512.394531 409.535156 513.070312 C 403.132812 514.007812 396.710938 514.1875 390.28125 513.464844 C 386.203125 513.007812 382.160156 512.316406 378.371094 510.679688 C 376.554688 509.886719 374.792969 508.824219 373.234375 507.589844 C 371.210938 505.988281 370.304688 503.785156 370.390625 501.09375 C 370.644531 493.921875 371.753906 486.898438 373.722656 479.757812 Z M 332.257812 496.558594 C 325.0625 488.890625 316.296875 486.414062 306.175781 488.9375 C 297.5 491.09375 292.03125 497.171875 290.953125 505.445312 C 290.503906 508.886719 291.015625 509.933594 294.164062 511.40625 C 298.507812 513.433594 303.121094 514.464844 307.90625 514.667969 C 311.621094 514.832031 315.3125 514.488281 318.972656 513.90625 C 325.410156 512.882812 331.699219 511.320312 337.585938 508.449219 C 339.261719 507.628906 340.804688 506.519531 342.355469 505.46875 C 343.511719 504.679688 343.859375 503.539062 343.828125 502.101562 C 343.679688 495.890625 342.59375 489.839844 340.875 483.886719 C 340.546875 482.730469 340.207031 481.578125 339.871094 480.421875 C 337.839844 481.152344 337.839844 481.152344 336.691406 480.710938 C 337.382812 480.277344 337.988281 479.949219 338.539062 479.539062 C 339.160156 479.074219 339.78125 478.589844 340.324219 478.039062 C 341.765625 476.582031 341.84375 475.292969 340.507812 473.75 C 338.4375 471.367188 335.769531 470.519531 332.558594 470.832031 C 332.558594 471.691406 332.535156 472.445312 332.566406 473.199219 C 332.628906 474.789062 332.335938 475.355469 330.90625 475.851562 C 328.859375 476.566406 326.765625 476.921875 324.585938 476.441406 C 323.105469 476.117188 322.632812 475.640625 322.476562 474.105469 C 322.394531 473.289062 322.339844 472.46875 322.277344 471.691406 C 319.515625 471.488281 315.996094 473.46875 315.003906 475.664062 C 314.226562 477.375 314.613281 478.839844 316.195312 479.910156 C 316.722656 480.269531 317.328125 480.609375 317.941406 480.734375 C 319.398438 481.027344 320.886719 481.167969 322.355469 481.386719 C 322.6875 481.433594 323.011719 481.554688 323.332031 481.640625 C 321.261719 482.976562 319.113281 482.519531 316.980469 482.175781 C 316.25 483.535156 315.5625 484.816406 314.785156 486.246094 C 315.445312 486.375 315.878906 486.5 316.3125 486.539062 C 318.988281 486.789062 321.539062 487.539062 324 488.566406 C 327.675781 490.101562 330.761719 492.421875 333.148438 495.621094 C 333.621094 496.25 334.351562 496.847656 333.777344 498.128906 C 333.195312 497.515625 332.722656 497.046875 332.257812 496.558594 Z M 332.257812 496.558594 " fill-opacity="1" fill-rule="nonzero"/><path fill="#000000" d="M 387.589844 462.066406 C 387.441406 464.582031 387.363281 467.105469 387.132812 469.621094 C 386.945312 471.691406 386.007812 472.539062 384.222656 472.578125 C 382.105469 472.617188 381.433594 472.011719 381.316406 469.890625 C 380.820312 460.679688 380.191406 451.488281 378.925781 442.351562 C 376.632812 425.796875 373.210938 409.492188 368.257812 393.523438 C 367.164062 389.992188 366.03125 386.46875 364.757812 383 C 364.136719 381.308594 364.742188 380.394531 365.765625 379.894531 C 367 379.289062 368.976562 379.742188 369.582031 380.875 C 370.226562 382.070312 370.753906 383.335938 371.265625 384.597656 C 375.886719 396.070312 379.175781 407.9375 381.765625 420.015625 C 384.308594 431.84375 385.953125 443.789062 386.898438 455.84375 C 387.0625 457.914062 387.226562 459.988281 387.402344 462.058594 C 387.464844 462.050781 387.527344 462.058594 387.589844 462.066406 Z M 331.34375 472.738281 C 331.117188 468.460938 330.714844 464.171875 330.683594 459.894531 C 330.597656 446.816406 331.496094 433.792969 333.273438 420.824219 C 334.570312 411.359375 336.195312 401.953125 338.839844 392.757812 C 339.820312 389.332031 341.105469 385.988281 342.246094 382.605469 C 342.765625 381.066406 341.9375 379.484375 340.339844 378.863281 C 338.964844 378.328125 337.414062 378.609375 337.066406 380.476562 C 337.011719 380.789062 336.855469 381.089844 336.746094 381.394531 C 333.492188 390.398438 331.148438 399.640625 329.417969 409.046875 C 327.394531 420.046875 326.007812 431.121094 325.007812 442.261719 C 324.160156 451.785156 323.546875 461.316406 323.570312 470.882812 C 323.570312 471.722656 323.5625 472.570312 323.609375 473.414062 C 323.695312 474.742188 323.898438 474.984375 325.207031 475.167969 C 327.332031 475.457031 329.332031 475.042969 331.40625 474.042969 C 331.382812 473.5 331.367188 473.113281 331.34375 472.738281 Z M 331.34375 472.738281 " fill-opacity="1" fill-rule="nonzero"/><g clip-path="url(#8a96cf4d4b)"><path fill="#f7df1e" d="M 254.152344 183.359375 L 453.441406 183.359375 L 453.441406 382.648438 L 254.152344 382.648438 Z M 254.152344 183.359375 " fill-opacity="1" fill-rule="nonzero"/></g><path fill="#000000" d="M 306.550781 349.898438 L 321.804688 340.671875 C 324.746094 345.890625 327.421875 350.304688 333.84375 350.304688 C 339.992188 350.304688 343.878906 347.890625 343.878906 338.53125 L 343.878906 274.855469 L 362.601562 274.855469 L 362.601562 338.796875 C 362.601562 358.1875 351.234375 367.023438 334.644531 367.023438 C 319.660156 367.023438 310.964844 359.261719 306.550781 349.898438 " fill-opacity="1" fill-rule="nonzero"/><path fill="#000000" d="M 372.773438 347.890625 L 388.023438 339.0625 C 392.042969 345.617188 397.257812 350.4375 406.484375 350.4375 C 414.242188 350.4375 419.195312 346.558594 419.195312 341.203125 C 419.195312 334.78125 414.113281 332.507812 405.546875 328.761719 L 400.871094 326.753906 C 387.355469 321 378.394531 313.785156 378.394531 298.527344 C 378.394531 284.484375 389.089844 273.78125 405.820312 273.78125 C 417.722656 273.78125 426.285156 277.929688 432.4375 288.765625 L 417.855469 298.128906 C 414.648438 292.378906 411.167969 290.105469 405.820312 290.105469 C 400.332031 290.105469 396.851562 293.582031 396.851562 298.128906 C 396.851562 303.75 400.332031 306.023438 408.359375 309.503906 L 413.039062 311.503906 C 428.957031 318.332031 437.925781 325.285156 437.925781 340.9375 C 437.925781 357.792969 424.683594 367.023438 406.886719 367.023438 C 389.496094 367.023438 378.261719 358.726562 372.773438 347.890625 " fill-opacity="1" fill-rule="nonzero"/><g clip-path="url(#3198d2520a)"><path fill="#ffffff" d="M 354.019531 233.648438 C 354.019531 248.554688 366.136719 260.636719 381.09375 260.636719 C 396.042969 260.636719 408.167969 248.554688 408.167969 233.648438 C 408.167969 218.746094 396.042969 206.664062 381.09375 206.664062 C 366.136719 206.664062 354.019531 218.746094 354.019531 233.648438 " fill-opacity="1" fill-rule="nonzero"/></g><path fill="#211c1d" d="M 359.308594 227.21875 C 359.308594 231.574219 362.847656 235.105469 367.21875 235.105469 C 371.585938 235.105469 375.128906 231.574219 375.128906 227.21875 C 375.128906 222.863281 371.585938 219.335938 367.21875 219.335938 C 362.847656 219.335938 359.308594 222.863281 359.308594 227.21875 " fill-opacity="1" fill-rule="nonzero"/><path fill="#ffffff" d="M 368.605469 223.582031 C 368.605469 224.828125 369.617188 225.839844 370.867188 225.839844 C 372.117188 225.839844 373.128906 224.828125 373.128906 223.582031 C 373.128906 222.335938 372.117188 221.328125 370.867188 221.328125 C 369.617188 221.328125 368.605469 222.335938 368.605469 223.582031 " fill-opacity="1" fill-rule="nonzero"/><g clip-path="url(#6d8139d866)"><path fill="#211c1d" d="M 356.953125 233.648438 C 356.953125 219.328125 367.761719 207.71875 381.09375 207.71875 C 394.421875 207.71875 405.230469 219.328125 405.230469 233.648438 C 405.230469 247.972656 394.421875 259.578125 381.09375 259.578125 C 367.761719 259.578125 356.953125 247.972656 356.953125 233.648438 Z M 354.019531 233.648438 C 354.019531 248.554688 366.136719 260.636719 381.09375 260.636719 C 396.042969 260.636719 408.167969 248.554688 408.167969 233.648438 C 408.167969 218.746094 396.042969 206.664062 381.09375 206.664062 C 366.136719 206.664062 354.019531 218.746094 354.019531 233.648438 " fill-opacity="1" fill-rule="nonzero"/></g><path fill="#211c1d" d="M 381.09375 206.664062 C 381.09375 206.664062 387.777344 206.316406 393.730469 206.316406 C 393.730469 206.316406 380.949219 204.109375 370.542969 208.789062 C 370.542969 208.789062 379.421875 206.742188 381.09375 206.664062 " fill-opacity="1" fill-rule="nonzero"/><path fill="#211c1d" d="M 390.53125 258.398438 C 390.53125 258.398438 399.339844 255.835938 403.070312 251.507812 C 403.070312 251.507812 399.136719 257.835938 387.464844 259.882812 C 387.464844 259.882812 389.828125 258.914062 390.53125 258.398438 " fill-opacity="1" fill-rule="nonzero"/><g clip-path="url(#1177e9eb28)"><path fill="#ffffff" d="M 326.941406 206.664062 C 311.988281 206.664062 299.867188 218.746094 299.867188 233.648438 C 299.867188 248.554688 311.988281 260.636719 326.941406 260.636719 C 341.894531 260.636719 354.019531 248.554688 354.019531 233.648438 C 354.019531 218.746094 341.894531 206.664062 326.941406 206.664062 " fill-opacity="1" fill-rule="nonzero"/></g><path fill="#211c1d" d="M 340.816406 234.476562 C 336.445312 234.476562 332.90625 238.003906 332.90625 242.359375 C 332.90625 246.714844 336.445312 250.246094 340.816406 250.246094 C 345.183594 250.246094 348.726562 246.714844 348.726562 242.359375 C 348.726562 238.003906 345.183594 234.476562 340.816406 234.476562 " fill-opacity="1" fill-rule="nonzero"/><path fill="#ffffff" d="M 337.167969 236.464844 C 335.914062 236.464844 334.902344 237.476562 334.902344 238.722656 C 334.902344 239.96875 335.914062 240.976562 337.167969 240.976562 C 338.417969 240.976562 339.429688 239.96875 339.429688 238.722656 C 339.429688 237.476562 338.417969 236.464844 337.167969 236.464844 " fill-opacity="1" fill-rule="nonzero"/><g clip-path="url(#e6bf73d2d5)"><path fill="#211c1d" d="M 326.941406 259.578125 C 313.613281 259.578125 302.804688 247.972656 302.804688 233.648438 C 302.804688 219.328125 313.613281 207.71875 326.941406 207.71875 C 340.273438 207.71875 351.082031 219.328125 351.082031 233.648438 C 351.082031 247.972656 340.273438 259.578125 326.941406 259.578125 Z M 326.941406 206.664062 C 311.988281 206.664062 299.867188 218.746094 299.867188 233.648438 C 299.867188 248.554688 311.988281 260.636719 326.941406 260.636719 C 341.894531 260.636719 354.019531 248.554688 354.019531 233.648438 C 354.019531 218.746094 341.894531 206.664062 326.941406 206.664062 " fill-opacity="1" fill-rule="nonzero"/></g><path fill="#211c1d" d="M 326.941406 206.664062 C 326.941406 206.664062 320.257812 206.316406 314.300781 206.316406 C 314.300781 206.316406 327.085938 204.109375 337.492188 208.789062 C 337.492188 208.789062 328.613281 206.742188 326.941406 206.664062 " fill-opacity="1" fill-rule="nonzero"/><path fill="#211c1d" d="M 317.503906 258.398438 C 317.503906 258.398438 308.695312 255.835938 304.964844 251.507812 C 304.964844 251.507812 308.898438 257.835938 320.570312 259.882812 C 320.570312 259.882812 318.207031 258.914062 317.503906 258.398438 " fill-opacity="1" fill-rule="nonzero"/><g clip-path="url(#99f53f9208)"><path fill="#211c1d" d="M 346.546875 208.789062 C 346.546875 208.789062 335.507812 199.125 326.941406 201.640625 C 318.378906 204.15625 305.742188 209.628906 299.867188 205.007812 C 299.867188 205.007812 310.8125 206.042969 316.695312 201.222656 C 322.582031 196.402344 341.289062 194.726562 348.015625 203.839844 C 348.015625 203.839844 349.910156 207.976562 346.546875 208.789062 " fill-opacity="1" fill-rule="nonzero"/></g><path fill="#211c1d" d="M 361.785156 205.097656 C 361.785156 205.097656 367.777344 194.832031 378.285156 198.078125 C 388.796875 201.328125 398.363281 207.082031 407.609375 201.269531 C 407.609375 201.269531 396.46875 204.15625 384.171875 196.296875 C 371.875 188.441406 362.609375 197.242188 359.308594 202.164062 C 359.308594 202.164062 358.527344 204.3125 361.785156 205.097656 " fill-opacity="1" fill-rule="nonzero"/><g clip-path="url(#dfc4e686cd)"><path fill="#211c1d" d="M 351.015625 262.609375 C 351.015625 262.609375 336.042969 256.480469 302.867188 262.609375 C 302.867188 262.609375 334.167969 258.929688 351.015625 262.609375 " fill-opacity="1" fill-rule="nonzero"/></g><g clip-path="url(#f731cc1511)"><path fill="#211c1d" d="M 404.417969 262.609375 C 404.417969 262.609375 389.445312 256.480469 356.269531 262.609375 C 356.269531 262.609375 387.570312 258.929688 404.417969 262.609375 " fill-opacity="1" fill-rule="nonzero"/></g><g clip-path="url(#f75485635a)"><path fill="#f01e01" d="M 461.632812 110.519531 C 463 111.273438 469.148438 114.859375 471.25 122.339844 C 473.304688 129.660156 470.671875 137.816406 464.535156 143.234375 C 464.175781 141.996094 463.839844 140.449219 463.71875 138.652344 C 463.523438 135.8125 463.929688 133.4375 464.355469 131.777344 C 457.128906 136.765625 453.761719 145.753906 455.917969 154.136719 C 458.046875 162.417969 465.21875 168.757812 472.609375 169.257812 C 483.1875 169.96875 494.964844 158.753906 494.566406 142.589844 C 493.585938 143.78125 492.195312 145.210938 490.300781 146.53125 C 489.242188 147.269531 488.222656 147.835938 487.308594 148.273438 C 488.605469 146.113281 490.511719 142.304688 491.210938 137.183594 C 492.046875 131.042969 490.714844 126.125 489.847656 123.625 C 489.710938 124.898438 489.484375 126.316406 489.125 127.839844 C 488.617188 129.96875 487.960938 131.808594 487.308594 133.335938 C 487.382812 132.121094 487.789062 122.726562 480.324219 115.835938 C 472.492188 108.609375 462.699219 110.316406 461.632812 110.519531 " fill-opacity="1" fill-rule="nonzero"/></g><g clip-path="url(#97ea76fd1b)"><path fill="#f35b00" d="M 460.632812 141.125 C 460.820312 142.335938 461.199219 143.941406 461.996094 145.707031 C 462.957031 147.839844 464.164062 149.382812 465.078125 150.378906 C 465.199219 149.335938 465.46875 147.832031 466.167969 146.164062 C 467.34375 143.359375 468.976562 141.902344 470.34375 140.300781 C 470.34375 140.300781 473.609375 136.464844 475.152344 131.414062 C 475.707031 129.589844 476.902344 124.355469 472.972656 116.660156 C 474.660156 117.492188 479.320312 120.066406 482.410156 125.730469 C 485.53125 131.457031 485.164062 136.867188 484.949219 138.742188 C 485.507812 138.441406 486.183594 138.003906 486.855469 137.367188 C 488.144531 136.152344 488.796875 134.8125 489.125 133.976562 C 488.90625 136.632812 488.367188 140.101562 487.035156 143.964844 C 485.894531 147.28125 484.488281 149.980469 483.226562 152.03125 C 484.144531 151.839844 485.152344 151.574219 486.21875 151.203125 C 488.15625 150.535156 489.765625 149.699219 491.027344 148.914062 C 490.832031 151.152344 489.933594 158.003906 484.40625 163.484375 C 482.539062 165.332031 478.199219 169.628906 472.246094 169.257812 C 465.332031 168.820312 460.464844 162.34375 458.730469 156.976562 C 456.175781 149.082031 459.96875 142.277344 460.632812 141.125 " fill-opacity="1" fill-rule="nonzero"/></g><path fill="#fdb800" d="M 460.632812 149.097656 C 460.835938 149.972656 461.367188 151.71875 462.8125 153.402344 C 464.21875 155.042969 465.796875 155.816406 466.621094 156.152344 C 466.613281 155.128906 466.695312 153.511719 467.257812 151.664062 C 468.601562 147.242188 471.488281 145.445312 474.152344 141.859375 C 475.597656 139.914062 477.441406 136.816406 478.597656 132.144531 C 479.027344 133.710938 479.390625 135.492188 479.597656 137.460938 C 480.195312 143.210938 479.167969 148.046875 478.144531 151.296875 C 479.808594 149.160156 481.472656 147.019531 483.136719 144.882812 C 482.894531 146.789062 482.523438 148.917969 481.957031 151.203125 C 481.414062 153.382812 480.785156 155.34375 480.140625 157.070312 C 481.320312 156.878906 482.835938 156.515625 484.496094 155.785156 C 485.742188 155.238281 486.769531 154.613281 487.582031 154.046875 C 487.199219 155.96875 486.289062 159.183594 483.859375 162.292969 C 482.800781 163.652344 477.949219 169.898438 471.703125 169.164062 C 465.222656 168.402344 461.550781 160.625 460.632812 155.601562 C 460.148438 152.953125 460.359375 150.664062 460.632812 149.097656 " fill-opacity="1" fill-rule="nonzero"/><g clip-path="url(#e82db8bf7c)"><path fill="#f01e01" d="M 341.136719 75 C 342.503906 75.753906 348.65625 79.339844 350.753906 86.820312 C 352.808594 94.140625 350.175781 102.296875 344.042969 107.710938 C 343.679688 106.476562 343.347656 104.929688 343.226562 103.128906 C 343.03125 100.292969 343.433594 97.917969 343.859375 96.257812 C 336.636719 101.246094 333.265625 110.234375 335.421875 118.617188 C 337.550781 126.898438 344.726562 133.238281 352.117188 133.734375 C 362.695312 134.445312 374.472656 123.234375 374.074219 107.070312 C 373.09375 108.261719 371.699219 109.691406 369.808594 111.011719 C 368.75 111.75 367.730469 112.316406 366.8125 112.75 C 368.113281 110.589844 370.019531 106.785156 370.714844 101.664062 C 371.550781 95.523438 370.222656 90.605469 369.355469 88.101562 C 369.21875 89.375 368.992188 90.792969 368.628906 92.316406 C 368.121094 94.445312 367.46875 96.289062 366.8125 97.816406 C 366.886719 96.597656 367.292969 87.203125 359.828125 80.316406 C 352 73.089844 342.207031 74.792969 341.136719 75 " fill-opacity="1" fill-rule="nonzero"/></g><g clip-path="url(#271b58de01)"><path fill="#f35b00" d="M 340.140625 105.605469 C 340.328125 106.8125 340.703125 108.421875 341.5 110.1875 C 342.464844 112.320312 343.671875 113.863281 344.585938 114.859375 C 344.703125 113.816406 344.976562 112.3125 345.675781 110.644531 C 346.851562 107.839844 348.484375 106.382812 349.847656 104.78125 C 349.847656 104.78125 353.113281 100.945312 354.65625 95.890625 C 355.214844 94.066406 356.40625 88.832031 352.480469 81.140625 C 354.164062 81.972656 358.824219 84.546875 361.914062 90.210938 C 365.039062 95.933594 364.667969 101.347656 364.457031 103.222656 C 365.011719 102.921875 365.6875 102.484375 366.359375 101.847656 C 367.652344 100.632812 368.304688 99.292969 368.628906 98.457031 C 368.414062 101.113281 367.875 104.578125 366.542969 108.445312 C 365.402344 111.761719 363.992188 114.457031 362.730469 116.507812 C 363.648438 116.320312 364.65625 116.054688 365.726562 115.683594 C 367.664062 115.011719 369.269531 114.175781 370.535156 113.394531 C 370.335938 115.632812 369.441406 122.484375 363.910156 127.960938 C 362.046875 129.808594 357.707031 134.109375 351.753906 133.734375 C 344.839844 133.300781 339.96875 126.824219 338.234375 121.457031 C 335.683594 113.5625 339.472656 106.757812 340.140625 105.605469 " fill-opacity="1" fill-rule="nonzero"/></g><path fill="#fdb800" d="M 340.140625 113.578125 C 340.34375 114.453125 340.871094 116.199219 342.316406 117.882812 C 343.722656 119.523438 345.304688 120.296875 346.128906 120.632812 C 346.117188 119.609375 346.203125 117.992188 346.761719 116.140625 C 348.105469 111.722656 350.992188 109.925781 353.660156 106.335938 C 355.105469 104.390625 356.949219 101.296875 358.105469 96.625 C 358.53125 98.191406 358.898438 99.96875 359.101562 101.9375 C 359.703125 107.691406 358.675781 112.527344 357.652344 115.777344 C 359.3125 113.636719 360.976562 111.5 362.640625 109.363281 C 362.402344 111.269531 362.03125 113.394531 361.460938 115.683594 C 360.921875 117.859375 360.289062 119.820312 359.648438 121.546875 C 360.828125 121.359375 362.34375 120.996094 364 120.265625 C 365.25 119.71875 366.277344 119.09375 367.085938 118.523438 C 366.707031 120.449219 365.792969 123.660156 363.367188 126.773438 C 362.304688 128.128906 357.453125 134.378906 351.207031 133.644531 C 344.726562 132.878906 341.058594 125.105469 340.140625 120.082031 C 339.65625 117.433594 339.863281 115.144531 340.140625 113.578125 " fill-opacity="1" fill-rule="nonzero"/><g clip-path="url(#94ff56aa2f)"><path fill="#f01e01" d="M 276.121094 87.820312 C 277.488281 88.574219 283.636719 92.160156 285.738281 99.640625 C 287.792969 106.960938 285.160156 115.117188 279.023438 120.53125 C 278.664062 119.296875 278.332031 117.75 278.207031 115.949219 C 278.015625 113.113281 278.417969 110.734375 278.84375 109.078125 C 271.617188 114.066406 268.25 123.054688 270.40625 131.4375 C 272.535156 139.714844 279.707031 146.058594 287.097656 146.554688 C 297.675781 147.265625 309.453125 136.054688 309.054688 119.890625 C 308.074219 121.078125 306.683594 122.511719 304.792969 123.832031 C 303.730469 124.570312 302.710938 125.136719 301.796875 125.570312 C 303.09375 123.410156 305 119.605469 305.699219 114.484375 C 306.535156 108.339844 305.203125 103.421875 304.335938 100.921875 C 304.199219 102.195312 303.972656 103.613281 303.613281 105.136719 C 303.105469 107.265625 302.449219 109.109375 301.796875 110.636719 C 301.871094 109.417969 302.277344 100.023438 294.8125 93.132812 C 286.980469 85.910156 277.1875 87.613281 276.121094 87.820312 " fill-opacity="1" fill-rule="nonzero"/></g><g clip-path="url(#758cbd35d6)"><path fill="#f35b00" d="M 275.121094 118.425781 C 275.308594 119.632812 275.6875 121.242188 276.484375 123.007812 C 277.445312 125.136719 278.652344 126.683594 279.570312 127.679688 C 279.6875 126.636719 279.957031 125.128906 280.65625 123.464844 C 281.832031 120.660156 283.464844 119.203125 284.832031 117.601562 C 284.832031 117.601562 288.097656 113.761719 289.640625 108.710938 C 290.195312 106.886719 291.390625 101.652344 287.460938 93.957031 C 289.148438 94.792969 293.808594 97.367188 296.898438 103.03125 C 300.019531 108.753906 299.652344 114.164062 299.4375 116.042969 C 299.996094 115.742188 300.671875 115.300781 301.34375 114.667969 C 302.632812 113.453125 303.285156 112.113281 303.613281 111.277344 C 303.398438 113.933594 302.855469 117.398438 301.523438 121.265625 C 300.382812 124.578125 298.976562 127.277344 297.714844 129.328125 C 298.632812 129.136719 299.640625 128.875 300.707031 128.503906 C 302.644531 127.832031 304.253906 126.996094 305.515625 126.214844 C 305.320312 128.449219 304.425781 135.304688 298.894531 140.78125 C 297.03125 142.628906 292.6875 146.929688 286.734375 146.554688 C 279.824219 146.121094 274.953125 139.644531 273.21875 134.277344 C 270.664062 126.382812 274.457031 119.578125 275.121094 118.425781 " fill-opacity="1" fill-rule="nonzero"/></g><path fill="#fdb800" d="M 275.121094 126.394531 C 275.328125 127.273438 275.855469 129.015625 277.300781 130.703125 C 278.707031 132.339844 280.285156 133.117188 281.109375 133.453125 C 281.101562 132.425781 281.183594 130.808594 281.746094 128.960938 C 283.089844 124.542969 285.976562 122.742188 288.640625 119.15625 C 290.085938 117.210938 291.933594 114.117188 293.085938 109.445312 C 293.515625 111.007812 293.878906 112.789062 294.085938 114.757812 C 294.683594 120.511719 293.65625 125.347656 292.632812 128.59375 C 294.296875 126.457031 295.960938 124.320312 297.625 122.179688 C 297.382812 124.089844 297.011719 126.214844 296.445312 128.503906 C 295.902344 130.679688 295.273438 132.640625 294.628906 134.367188 C 295.808594 134.179688 297.324219 133.816406 298.984375 133.085938 C 300.230469 132.535156 301.257812 131.914062 302.070312 131.34375 C 301.6875 133.269531 300.777344 136.480469 298.347656 139.589844 C 297.289062 140.949219 292.4375 147.199219 286.191406 146.464844 C 279.710938 145.699219 276.039062 137.921875 275.121094 132.902344 C 274.636719 130.253906 274.847656 127.964844 275.121094 126.394531 " fill-opacity="1" fill-rule="nonzero"/><g clip-path="url(#2302fc9cb9)"><path fill="#f01e01" d="M 406.15625 87.820312 C 407.519531 88.574219 413.671875 92.160156 415.773438 99.640625 C 417.828125 106.960938 415.191406 115.117188 409.058594 120.53125 C 408.699219 119.296875 408.363281 117.75 408.242188 115.949219 C 408.046875 113.113281 408.453125 110.734375 408.875 109.078125 C 401.652344 114.066406 398.285156 123.054688 400.4375 131.4375 C 402.570312 139.714844 409.742188 146.058594 417.132812 146.554688 C 427.710938 147.265625 439.488281 136.054688 439.089844 119.890625 C 438.109375 121.078125 436.71875 122.511719 434.824219 123.832031 C 433.765625 124.570312 432.746094 125.136719 431.832031 125.570312 C 433.128906 123.410156 435.035156 119.605469 435.734375 114.484375 C 436.570312 108.339844 435.238281 103.421875 434.371094 100.921875 C 434.234375 102.195312 434.007812 103.613281 433.644531 105.136719 C 433.140625 107.265625 432.484375 109.109375 431.832031 110.636719 C 431.90625 109.417969 432.3125 100.023438 424.84375 93.132812 C 417.015625 85.910156 407.222656 87.613281 406.15625 87.820312 " fill-opacity="1" fill-rule="nonzero"/></g><g clip-path="url(#20c829e375)"><path fill="#f35b00" d="M 405.15625 118.425781 C 405.34375 119.632812 405.722656 121.242188 406.519531 123.007812 C 407.480469 125.136719 408.6875 126.683594 409.601562 127.679688 C 409.722656 126.636719 409.992188 125.128906 410.691406 123.464844 C 411.867188 120.660156 413.5 119.203125 414.863281 117.601562 C 414.863281 117.601562 418.132812 113.761719 419.671875 108.710938 C 420.230469 106.886719 421.421875 101.652344 417.496094 93.957031 C 419.183594 94.792969 423.839844 97.367188 426.933594 103.03125 C 430.054688 108.753906 429.683594 114.164062 429.472656 116.042969 C 430.03125 115.742188 430.703125 115.300781 431.378906 114.667969 C 432.667969 113.453125 433.320312 112.113281 433.644531 111.277344 C 433.429688 113.933594 432.890625 117.398438 431.558594 121.265625 C 430.417969 124.578125 429.011719 127.277344 427.75 129.328125 C 428.667969 129.136719 429.675781 128.875 430.742188 128.503906 C 432.679688 127.832031 434.285156 126.996094 435.550781 126.214844 C 435.355469 128.449219 434.457031 135.304688 428.929688 140.78125 C 427.0625 142.628906 422.722656 146.929688 416.769531 146.554688 C 409.855469 146.121094 404.988281 139.644531 403.25 134.277344 C 400.699219 126.382812 404.488281 119.578125 405.15625 118.425781 " fill-opacity="1" fill-rule="nonzero"/></g><path fill="#fdb800" d="M 405.15625 126.394531 C 405.359375 127.273438 405.886719 129.015625 407.335938 130.703125 C 408.742188 132.339844 410.320312 133.117188 411.144531 133.453125 C 411.136719 132.425781 411.21875 130.808594 411.78125 128.960938 C 413.125 124.542969 416.011719 122.742188 418.675781 119.15625 C 420.121094 117.210938 421.964844 114.117188 423.121094 109.445312 C 423.550781 111.007812 423.914062 112.789062 424.121094 114.757812 C 424.71875 120.511719 423.691406 125.347656 422.667969 128.59375 C 424.332031 126.457031 425.996094 124.320312 427.65625 122.179688 C 427.417969 124.089844 427.046875 126.214844 426.480469 128.503906 C 425.9375 130.679688 425.308594 132.640625 424.664062 134.367188 C 425.84375 134.179688 427.359375 133.816406 429.019531 133.085938 C 430.265625 132.535156 431.292969 131.914062 432.105469 131.34375 C 431.722656 133.269531 430.8125 136.480469 428.382812 139.589844 C 427.324219 140.949219 422.472656 147.199219 416.226562 146.464844 C 409.742188 145.699219 406.074219 137.921875 405.15625 132.902344 C 404.671875 130.253906 404.882812 127.964844 405.15625 126.394531 " fill-opacity="1" fill-rule="nonzero"/><path fill="#f01e01" d="M 221.957031 110.519531 C 223.324219 111.273438 229.476562 114.859375 231.574219 122.339844 C 233.632812 129.660156 230.996094 137.816406 224.863281 143.234375 C 224.5 141.996094 224.167969 140.449219 224.046875 138.652344 C 223.851562 135.8125 224.253906 133.4375 224.679688 131.777344 C 217.457031 136.765625 214.085938 145.753906 216.242188 154.136719 C 218.371094 162.417969 225.546875 168.757812 232.9375 169.257812 C 243.515625 169.96875 255.292969 158.753906 254.894531 142.589844 C 253.914062 143.78125 252.523438 145.210938 250.628906 146.53125 C 249.570312 147.269531 248.550781 147.835938 247.636719 148.273438 C 248.933594 146.113281 250.839844 142.304688 251.535156 137.183594 C 252.371094 131.042969 251.042969 126.125 250.175781 123.625 C 250.039062 124.898438 249.8125 126.316406 249.449219 127.839844 C 248.945312 129.96875 248.289062 131.808594 247.636719 133.335938 C 247.707031 132.121094 248.113281 122.726562 240.648438 115.835938 C 232.820312 108.609375 223.027344 110.316406 221.957031 110.519531 " fill-opacity="1" fill-rule="nonzero"/><g clip-path="url(#b97f6213e5)"><path fill="#f35b00" d="M 220.960938 141.125 C 221.148438 142.335938 221.523438 143.941406 222.320312 145.707031 C 223.285156 147.839844 224.492188 149.382812 225.40625 150.378906 C 225.523438 149.335938 225.796875 147.832031 226.496094 146.164062 C 227.671875 143.359375 229.304688 141.902344 230.667969 140.300781 C 230.667969 140.300781 233.933594 136.464844 235.476562 131.414062 C 236.035156 129.589844 237.226562 124.355469 233.300781 116.660156 C 234.984375 117.492188 239.644531 120.066406 242.734375 125.730469 C 245.859375 131.457031 245.488281 136.867188 245.277344 138.742188 C 245.835938 138.441406 246.507812 138.003906 247.179688 137.367188 C 248.472656 136.152344 249.125 134.8125 249.449219 133.976562 C 249.234375 136.632812 248.695312 140.101562 247.363281 143.964844 C 246.222656 147.28125 244.8125 149.980469 243.550781 152.03125 C 244.46875 151.839844 245.476562 151.574219 246.546875 151.203125 C 248.484375 150.535156 250.089844 149.699219 251.355469 148.914062 C 251.15625 151.152344 250.261719 158.003906 244.730469 163.484375 C 242.867188 165.332031 238.527344 169.628906 232.574219 169.257812 C 225.660156 168.820312 220.789062 162.34375 219.054688 156.976562 C 216.503906 149.082031 220.292969 142.277344 220.960938 141.125 " fill-opacity="1" fill-rule="nonzero"/></g><path fill="#fdb800" d="M 220.960938 149.097656 C 221.164062 149.972656 221.691406 151.71875 223.136719 153.402344 C 224.542969 155.042969 226.125 155.816406 226.949219 156.152344 C 226.941406 155.128906 227.023438 153.511719 227.585938 151.664062 C 228.925781 147.242188 231.8125 145.445312 234.480469 141.859375 C 235.925781 139.914062 237.769531 136.816406 238.925781 132.144531 C 239.351562 133.710938 239.71875 135.492188 239.921875 137.460938 C 240.523438 143.210938 239.496094 148.046875 238.472656 151.296875 C 240.136719 149.160156 241.796875 147.019531 243.460938 144.882812 C 243.222656 146.789062 242.851562 148.917969 242.28125 151.203125 C 241.742188 153.382812 241.109375 155.34375 240.46875 157.070312 C 241.648438 156.878906 243.164062 156.515625 244.824219 155.785156 C 246.070312 155.238281 247.097656 154.613281 247.90625 154.046875 C 247.527344 155.96875 246.613281 159.183594 244.1875 162.292969 C 243.128906 163.652344 238.273438 169.898438 232.03125 169.164062 C 225.546875 168.402344 221.878906 160.625 220.960938 155.601562 C 220.476562 152.953125 220.683594 150.664062 220.960938 149.097656 " fill-opacity="1" fill-rule="nonzero"/><g clip-path="url(#97b21dc3d2)"><path fill="#f01e01" d="M 189.128906 171.664062 C 190.496094 172.417969 196.648438 176.003906 198.75 183.484375 C 200.804688 190.804688 198.167969 198.960938 192.035156 204.378906 C 191.671875 203.140625 191.339844 201.59375 191.21875 199.796875 C 191.023438 196.957031 191.425781 194.582031 191.851562 192.925781 C 184.628906 197.910156 181.257812 206.898438 183.414062 215.28125 C 185.542969 223.5625 192.71875 229.90625 200.109375 230.402344 C 210.6875 231.113281 222.464844 219.898438 222.066406 203.734375 C 221.085938 204.925781 219.695312 206.355469 217.800781 207.675781 C 216.742188 208.414062 215.722656 208.980469 214.808594 209.417969 C 216.105469 207.257812 218.011719 203.449219 218.707031 198.332031 C 219.546875 192.1875 218.214844 187.269531 217.347656 184.769531 C 217.210938 186.042969 216.984375 187.460938 216.621094 188.984375 C 216.117188 191.113281 215.460938 192.953125 214.808594 194.480469 C 214.882812 193.265625 215.285156 183.871094 207.820312 176.980469 C 199.992188 169.753906 190.199219 171.460938 189.128906 171.664062 " fill-opacity="1" fill-rule="nonzero"/></g><g clip-path="url(#5ccd2488a4)"><path fill="#f35b00" d="M 188.132812 202.269531 C 188.320312 203.480469 188.699219 205.085938 189.492188 206.851562 C 190.457031 208.984375 191.664062 210.527344 192.578125 211.523438 C 192.695312 210.480469 192.96875 208.976562 193.667969 207.308594 C 194.84375 204.503906 196.476562 203.046875 197.839844 201.445312 C 197.839844 201.445312 201.109375 197.609375 202.648438 192.558594 C 203.207031 190.734375 204.398438 185.5 200.472656 177.804688 C 202.160156 178.636719 206.816406 181.210938 209.90625 186.875 C 213.03125 192.601562 212.660156 198.011719 212.449219 199.886719 C 213.007812 199.585938 213.679688 199.148438 214.355469 198.511719 C 215.644531 197.296875 216.296875 195.957031 216.621094 195.121094 C 216.40625 197.777344 215.867188 201.246094 214.535156 205.109375 C 213.394531 208.425781 211.984375 211.125 210.722656 213.175781 C 211.640625 212.984375 212.648438 212.71875 213.71875 212.351562 C 215.65625 211.679688 217.261719 210.84375 218.527344 210.058594 C 218.328125 212.296875 217.433594 219.148438 211.902344 224.628906 C 210.039062 226.476562 205.699219 230.773438 199.746094 230.402344 C 192.832031 229.964844 187.960938 223.488281 186.226562 218.121094 C 183.675781 210.226562 187.464844 203.421875 188.132812 202.269531 " fill-opacity="1" fill-rule="nonzero"/></g><path fill="#fdb800" d="M 188.132812 210.242188 C 188.335938 211.117188 188.863281 212.863281 190.308594 214.546875 C 191.71875 216.1875 193.296875 216.960938 194.121094 217.296875 C 194.113281 216.273438 194.195312 214.65625 194.757812 212.808594 C 196.097656 208.386719 198.984375 206.589844 201.652344 203.003906 C 203.097656 201.058594 204.941406 197.960938 206.097656 193.289062 C 206.527344 194.855469 206.890625 196.636719 207.09375 198.605469 C 207.695312 204.355469 206.667969 209.191406 205.644531 212.441406 C 207.308594 210.304688 208.96875 208.164062 210.632812 206.027344 C 210.394531 207.933594 210.023438 210.0625 209.453125 212.351562 C 208.914062 214.527344 208.285156 216.488281 207.640625 218.214844 C 208.820312 218.023438 210.335938 217.660156 211.996094 216.929688 C 213.242188 216.382812 214.269531 215.761719 215.078125 215.191406 C 214.699219 217.113281 213.785156 220.328125 211.359375 223.4375 C 210.300781 224.796875 205.445312 231.042969 199.203125 230.308594 C 192.71875 229.546875 189.050781 221.769531 188.132812 216.746094 C 187.648438 214.097656 187.855469 211.808594 188.132812 210.242188 " fill-opacity="1" fill-rule="nonzero"/><g clip-path="url(#9f5105cd57)"><path fill="#f01e01" d="M 503.28125 171.664062 C 504.644531 172.417969 510.796875 176.003906 512.898438 183.484375 C 514.953125 190.804688 512.316406 198.960938 506.183594 204.378906 C 505.824219 203.140625 505.488281 201.59375 505.367188 199.796875 C 505.171875 196.957031 505.578125 194.582031 506.003906 192.925781 C 498.777344 197.910156 495.410156 206.898438 497.5625 215.28125 C 499.695312 223.5625 506.867188 229.90625 514.257812 230.402344 C 524.835938 231.113281 536.613281 219.898438 536.214844 203.734375 C 535.234375 204.925781 533.84375 206.355469 531.949219 207.675781 C 530.890625 208.414062 529.871094 208.980469 528.957031 209.417969 C 530.253906 207.257812 532.160156 203.449219 532.859375 198.332031 C 533.695312 192.1875 532.363281 187.269531 531.496094 184.769531 C 531.359375 186.042969 531.132812 187.460938 530.769531 188.984375 C 530.265625 191.113281 529.609375 192.953125 528.957031 194.480469 C 529.03125 193.265625 529.4375 183.871094 521.96875 176.980469 C 514.140625 169.753906 504.347656 171.460938 503.28125 171.664062 " fill-opacity="1" fill-rule="nonzero"/></g><g clip-path="url(#88bab69233)"><path fill="#f35b00" d="M 502.28125 202.269531 C 502.46875 203.480469 502.847656 205.085938 503.644531 206.851562 C 504.605469 208.984375 505.8125 210.527344 506.726562 211.523438 C 506.847656 210.480469 507.117188 208.976562 507.816406 207.308594 C 508.992188 204.503906 510.625 203.046875 511.988281 201.445312 C 511.988281 201.445312 515.257812 197.609375 516.796875 192.558594 C 517.355469 190.734375 518.546875 185.5 514.621094 177.804688 C 516.308594 178.636719 520.964844 181.210938 524.058594 186.875 C 527.179688 192.601562 526.808594 198.011719 526.597656 199.886719 C 527.15625 199.585938 527.828125 199.148438 528.503906 198.511719 C 529.792969 197.296875 530.445312 195.957031 530.769531 195.121094 C 530.554688 197.777344 530.015625 201.246094 528.683594 205.109375 C 527.542969 208.425781 526.136719 211.125 524.875 213.175781 C 525.792969 212.984375 526.800781 212.71875 527.867188 212.351562 C 529.804688 211.679688 531.410156 210.84375 532.675781 210.058594 C 532.480469 212.296875 531.582031 219.148438 526.054688 224.628906 C 524.1875 226.476562 519.847656 230.773438 513.894531 230.402344 C 506.980469 229.964844 502.113281 223.488281 500.375 218.121094 C 497.824219 210.226562 501.613281 203.421875 502.28125 202.269531 " fill-opacity="1" fill-rule="nonzero"/></g><path fill="#fdb800" d="M 502.28125 210.242188 C 502.484375 211.117188 503.011719 212.863281 504.460938 214.546875 C 505.867188 216.1875 507.445312 216.960938 508.269531 217.296875 C 508.261719 216.273438 508.34375 214.65625 508.90625 212.808594 C 510.25 208.386719 513.136719 206.589844 515.800781 203.003906 C 517.246094 201.058594 519.089844 197.960938 520.246094 193.289062 C 520.675781 194.855469 521.039062 196.636719 521.246094 198.605469 C 521.84375 204.355469 520.816406 209.191406 519.792969 212.441406 C 521.457031 210.304688 523.121094 208.164062 524.78125 206.027344 C 524.542969 207.933594 524.171875 210.0625 523.605469 212.351562 C 523.0625 214.527344 522.433594 216.488281 521.789062 218.214844 C 522.96875 218.023438 524.484375 217.660156 526.144531 216.929688 C 527.390625 216.382812 528.417969 215.761719 529.230469 215.191406 C 528.847656 217.113281 527.9375 220.328125 525.507812 223.4375 C 524.449219 224.796875 519.597656 231.042969 513.351562 230.308594 C 506.867188 229.546875 503.199219 221.769531 502.28125 216.746094 C 501.796875 214.097656 502.007812 211.808594 502.28125 210.242188 " fill-opacity="1" fill-rule="nonzero"/></svg>