<svg xmlns="http://www.w3.org/2000/svg" xmlns:xlink="http://www.w3.org/1999/xlink" width="944" zoomAndPan="magnify" viewBox="0 0 708 566.999966" height="755" preserveAspectRatio="xMidYMid meet" version="1.0"><defs><clipPath id="698465b775"><path d="M 205.203125 316.027344 L 276.375 316.027344 L 276.375 387.203125 L 205.203125 387.203125 Z M 205.203125 316.027344 " clip-rule="nonzero"/></clipPath><clipPath id="6f6f3a2f2c"><path d="M 222 316.027344 L 256 316.027344 L 256 367 L 222 367 Z M 222 316.027344 " clip-rule="nonzero"/></clipPath><clipPath id="d815b7b6a6"><path d="M 256 231 L 319 231 L 319 278 L 256 278 Z M 256 231 " clip-rule="nonzero"/></clipPath><clipPath id="e51c09fec7"><path d="M 302.519531 223.820312 L 322.648438 243.953125 L 273.382812 293.222656 L 253.25 273.089844 Z M 302.519531 223.820312 " clip-rule="nonzero"/></clipPath><clipPath id="21979d6289"><path d="M 322.484375 243.785156 L 302.351562 223.65625 L 253.085938 272.925781 L 273.214844 293.054688 Z M 322.484375 243.785156 " clip-rule="nonzero"/></clipPath><clipPath id="a1a5b8bf5c"><path d="M 287 231 L 318 231 L 318 261 L 287 261 Z M 287 231 " clip-rule="nonzero"/></clipPath><clipPath id="005991bea5"><path d="M 302.519531 223.820312 L 322.648438 243.953125 L 273.382812 293.222656 L 253.25 273.089844 Z M 302.519531 223.820312 " clip-rule="nonzero"/></clipPath><clipPath id="91549cf2f7"><path d="M 322.484375 243.785156 L 302.351562 223.65625 L 253.085938 272.925781 L 273.214844 293.054688 Z M 322.484375 243.785156 " clip-rule="nonzero"/></clipPath><clipPath id="15dc17840a"><path d="M 256 255 L 292 255 L 292 277 L 256 277 Z M 256 255 " clip-rule="nonzero"/></clipPath><clipPath id="655b8cf415"><path d="M 302.519531 223.820312 L 322.648438 243.953125 L 273.382812 293.222656 L 253.25 273.089844 Z M 302.519531 223.820312 " clip-rule="nonzero"/></clipPath><clipPath id="cbd4f4c829"><path d="M 322.484375 243.785156 L 302.351562 223.65625 L 253.085938 272.925781 L 273.214844 293.054688 Z M 322.484375 243.785156 " clip-rule="nonzero"/></clipPath><clipPath id="dabce9ea75"><path d="M 156 224 L 221 224 L 221 278 L 156 278 Z M 156 224 " clip-rule="nonzero"/></clipPath><clipPath id="91b4090dc2"><path d="M 152.378906 236.863281 L 174.988281 217.195312 L 224.160156 273.71875 L 201.550781 293.390625 Z M 152.378906 236.863281 " clip-rule="nonzero"/></clipPath><clipPath id="74afb6f881"><path d="M 152.378906 236.863281 L 174.988281 217.195312 L 224.160156 273.71875 L 201.550781 293.390625 Z M 152.378906 236.863281 " clip-rule="nonzero"/></clipPath><clipPath id="c89d5fde6b"><path d="M 157 225 L 189 225 L 189 257 L 157 257 Z M 157 225 " clip-rule="nonzero"/></clipPath><clipPath id="cfac2984d7"><path d="M 152.378906 236.863281 L 174.988281 217.195312 L 224.160156 273.71875 L 201.550781 293.390625 Z M 152.378906 236.863281 " clip-rule="nonzero"/></clipPath><clipPath id="a4d4e96a89"><path d="M 152.378906 236.863281 L 174.988281 217.195312 L 224.160156 273.71875 L 201.550781 293.390625 Z M 152.378906 236.863281 " clip-rule="nonzero"/></clipPath><clipPath id="45e47ec54a"><path d="M 184 252 L 221 252 L 221 278 L 184 278 Z M 184 252 " clip-rule="nonzero"/></clipPath><clipPath id="2f365a0100"><path d="M 152.378906 236.863281 L 174.988281 217.195312 L 224.160156 273.71875 L 201.550781 293.390625 Z M 152.378906 236.863281 " clip-rule="nonzero"/></clipPath><clipPath id="6eefa2d926"><path d="M 152.378906 236.863281 L 174.988281 217.195312 L 224.160156 273.71875 L 201.550781 293.390625 Z M 152.378906 236.863281 " clip-rule="nonzero"/></clipPath><clipPath id="e632eaae27"><path d="M 236 228.476562 L 262 228.476562 L 262 324 L 236 324 Z M 236 228.476562 " clip-rule="nonzero"/></clipPath><clipPath id="910fd4e710"><path d="M 212.375 228.476562 L 238 228.476562 L 238 325 L 212.375 325 Z M 212.375 228.476562 " clip-rule="nonzero"/></clipPath><clipPath id="c7ab588a2a"><path d="M 235 310 L 242 310 L 242 337.863281 L 235 337.863281 Z M 235 310 " clip-rule="nonzero"/></clipPath><clipPath id="4c32ee8603"><path d="M 430 279 L 495.574219 279 L 495.574219 313 L 430 313 Z M 430 279 " clip-rule="nonzero"/></clipPath><clipPath id="d71f16a011"><path d="M 214 272 L 251 272 L 251 299.761719 L 214 299.761719 Z M 214 272 " clip-rule="nonzero"/></clipPath><clipPath id="ff29b973f8"><path d="M 212.375 280 L 219 280 L 219 297 L 212.375 297 Z M 212.375 280 " clip-rule="nonzero"/></clipPath><clipPath id="6d4f766ef6"><path d="M 222 245.070312 L 236 245.070312 L 236 253 L 222 253 Z M 222 245.070312 " clip-rule="nonzero"/></clipPath><clipPath id="62f7bbf145"><path d="M 230 297 L 234 297 L 234 299.761719 L 230 299.761719 Z M 230 297 " clip-rule="nonzero"/></clipPath><clipPath id="d3d1a80bf7"><path d="M 156 157 L 272 157 L 272 255 L 156 255 Z M 156 157 " clip-rule="nonzero"/></clipPath><clipPath id="044069f901"><path d="M 145.402344 234.277344 L 261.484375 149.324219 L 279.183594 173.507812 L 163.101562 258.460938 Z M 145.402344 234.277344 " clip-rule="nonzero"/></clipPath><clipPath id="26bd795d99"><path d="M 145.402344 234.277344 L 261.484375 149.324219 L 279.183594 173.507812 L 163.101562 258.460938 Z M 145.402344 234.277344 " clip-rule="nonzero"/></clipPath><clipPath id="15de89a365"><path d="M 172 237 L 176 237 L 176 241 L 172 241 Z M 172 237 " clip-rule="nonzero"/></clipPath><clipPath id="0cf4e3cd1b"><path d="M 145.402344 234.277344 L 261.484375 149.324219 L 279.183594 173.507812 L 163.101562 258.460938 Z M 145.402344 234.277344 " clip-rule="nonzero"/></clipPath><clipPath id="4be7155c77"><path d="M 145.402344 234.277344 L 261.484375 149.324219 L 279.183594 173.507812 L 163.101562 258.460938 Z M 145.402344 234.277344 " clip-rule="nonzero"/></clipPath><clipPath id="5c2d72c15f"><path d="M 224 198 L 228 198 L 228 202 L 224 202 Z M 224 198 " clip-rule="nonzero"/></clipPath><clipPath id="83c03d393a"><path d="M 145.402344 234.277344 L 261.484375 149.324219 L 279.183594 173.507812 L 163.101562 258.460938 Z M 145.402344 234.277344 " clip-rule="nonzero"/></clipPath><clipPath id="f1c70d01b7"><path d="M 145.402344 234.277344 L 261.484375 149.324219 L 279.183594 173.507812 L 163.101562 258.460938 Z M 145.402344 234.277344 " clip-rule="nonzero"/></clipPath><clipPath id="7c3c92b08c"><path d="M 163 244 L 166 244 L 166 247 L 163 247 Z M 163 244 " clip-rule="nonzero"/></clipPath><clipPath id="bc1e145499"><path d="M 145.402344 234.277344 L 261.484375 149.324219 L 279.183594 173.507812 L 163.101562 258.460938 Z M 145.402344 234.277344 " clip-rule="nonzero"/></clipPath><clipPath id="722d872992"><path d="M 145.402344 234.277344 L 261.484375 149.324219 L 279.183594 173.507812 L 163.101562 258.460938 Z M 145.402344 234.277344 " clip-rule="nonzero"/></clipPath><clipPath id="9ecb2c6ad8"><path d="M 185 232 L 188 232 L 188 235 L 185 235 Z M 185 232 " clip-rule="nonzero"/></clipPath><clipPath id="03ce09a0fe"><path d="M 145.402344 234.277344 L 261.484375 149.324219 L 279.183594 173.507812 L 163.101562 258.460938 Z M 145.402344 234.277344 " clip-rule="nonzero"/></clipPath><clipPath id="59eb78f89d"><path d="M 145.402344 234.277344 L 261.484375 149.324219 L 279.183594 173.507812 L 163.101562 258.460938 Z M 145.402344 234.277344 " clip-rule="nonzero"/></clipPath><clipPath id="3942faa4c9"><path d="M 179 235 L 183 235 L 183 237 L 179 237 Z M 179 235 " clip-rule="nonzero"/></clipPath><clipPath id="16c7672466"><path d="M 145.402344 234.277344 L 261.484375 149.324219 L 279.183594 173.507812 L 163.101562 258.460938 Z M 145.402344 234.277344 " clip-rule="nonzero"/></clipPath><clipPath id="b7ef218236"><path d="M 145.402344 234.277344 L 261.484375 149.324219 L 279.183594 173.507812 L 163.101562 258.460938 Z M 145.402344 234.277344 " clip-rule="nonzero"/></clipPath><clipPath id="34033359f7"><path d="M 259 169 L 262 169 L 262 173 L 259 173 Z M 259 169 " clip-rule="nonzero"/></clipPath><clipPath id="4c62cc008b"><path d="M 145.402344 234.277344 L 261.484375 149.324219 L 279.183594 173.507812 L 163.101562 258.460938 Z M 145.402344 234.277344 " clip-rule="nonzero"/></clipPath><clipPath id="137b84a881"><path d="M 145.402344 234.277344 L 261.484375 149.324219 L 279.183594 173.507812 L 163.101562 258.460938 Z M 145.402344 234.277344 " clip-rule="nonzero"/></clipPath><clipPath id="0822737695"><path d="M 263 161 L 267 161 L 267 164 L 263 164 Z M 263 161 " clip-rule="nonzero"/></clipPath><clipPath id="3eacb2d505"><path d="M 145.402344 234.277344 L 261.484375 149.324219 L 279.183594 173.507812 L 163.101562 258.460938 Z M 145.402344 234.277344 " clip-rule="nonzero"/></clipPath><clipPath id="5499950bca"><path d="M 145.402344 234.277344 L 261.484375 149.324219 L 279.183594 173.507812 L 163.101562 258.460938 Z M 145.402344 234.277344 " clip-rule="nonzero"/></clipPath><clipPath id="d718635d73"><path d="M 214 210 L 217 210 L 217 213 L 214 213 Z M 214 210 " clip-rule="nonzero"/></clipPath><clipPath id="765cf49055"><path d="M 145.402344 234.277344 L 261.484375 149.324219 L 279.183594 173.507812 L 163.101562 258.460938 Z M 145.402344 234.277344 " clip-rule="nonzero"/></clipPath><clipPath id="f645f0ea1d"><path d="M 145.402344 234.277344 L 261.484375 149.324219 L 279.183594 173.507812 L 163.101562 258.460938 Z M 145.402344 234.277344 " clip-rule="nonzero"/></clipPath><clipPath id="01519cce70"><path d="M 167 245 L 170 245 L 170 248 L 167 248 Z M 167 245 " clip-rule="nonzero"/></clipPath><clipPath id="9be028b04f"><path d="M 145.402344 234.277344 L 261.484375 149.324219 L 279.183594 173.507812 L 163.101562 258.460938 Z M 145.402344 234.277344 " clip-rule="nonzero"/></clipPath><clipPath id="3a5af85747"><path d="M 145.402344 234.277344 L 261.484375 149.324219 L 279.183594 173.507812 L 163.101562 258.460938 Z M 145.402344 234.277344 " clip-rule="nonzero"/></clipPath><clipPath id="3e6d711be1"><path d="M 189 227 L 192 227 L 192 230 L 189 230 Z M 189 227 " clip-rule="nonzero"/></clipPath><clipPath id="cbc70e3b16"><path d="M 145.402344 234.277344 L 261.484375 149.324219 L 279.183594 173.507812 L 163.101562 258.460938 Z M 145.402344 234.277344 " clip-rule="nonzero"/></clipPath><clipPath id="1203eae852"><path d="M 145.402344 234.277344 L 261.484375 149.324219 L 279.183594 173.507812 L 163.101562 258.460938 Z M 145.402344 234.277344 " clip-rule="nonzero"/></clipPath><clipPath id="b94d3e9d14"><path d="M 249 175 L 251 175 L 251 178 L 249 178 Z M 249 175 " clip-rule="nonzero"/></clipPath><clipPath id="e99db08bc7"><path d="M 145.402344 234.277344 L 261.484375 149.324219 L 279.183594 173.507812 L 163.101562 258.460938 Z M 145.402344 234.277344 " clip-rule="nonzero"/></clipPath><clipPath id="637dd37230"><path d="M 145.402344 234.277344 L 261.484375 149.324219 L 279.183594 173.507812 L 163.101562 258.460938 Z M 145.402344 234.277344 " clip-rule="nonzero"/></clipPath><clipPath id="3204b19981"><path d="M 232 195 L 235 195 L 235 198 L 232 198 Z M 232 195 " clip-rule="nonzero"/></clipPath><clipPath id="8782366711"><path d="M 145.402344 234.277344 L 261.484375 149.324219 L 279.183594 173.507812 L 163.101562 258.460938 Z M 145.402344 234.277344 " clip-rule="nonzero"/></clipPath><clipPath id="913ebc369a"><path d="M 145.402344 234.277344 L 261.484375 149.324219 L 279.183594 173.507812 L 163.101562 258.460938 Z M 145.402344 234.277344 " clip-rule="nonzero"/></clipPath><clipPath id="e5649d5009"><path d="M 201 215 L 205 215 L 205 218 L 201 218 Z M 201 215 " clip-rule="nonzero"/></clipPath><clipPath id="cc67119ab5"><path d="M 145.402344 234.277344 L 261.484375 149.324219 L 279.183594 173.507812 L 163.101562 258.460938 Z M 145.402344 234.277344 " clip-rule="nonzero"/></clipPath><clipPath id="6685f9f2c2"><path d="M 145.402344 234.277344 L 261.484375 149.324219 L 279.183594 173.507812 L 163.101562 258.460938 Z M 145.402344 234.277344 " clip-rule="nonzero"/></clipPath><clipPath id="924db3a742"><path d="M 247 179 L 249 179 L 249 182 L 247 182 Z M 247 179 " clip-rule="nonzero"/></clipPath><clipPath id="60ad694445"><path d="M 145.402344 234.277344 L 261.484375 149.324219 L 279.183594 173.507812 L 163.101562 258.460938 Z M 145.402344 234.277344 " clip-rule="nonzero"/></clipPath><clipPath id="75b9da732d"><path d="M 145.402344 234.277344 L 261.484375 149.324219 L 279.183594 173.507812 L 163.101562 258.460938 Z M 145.402344 234.277344 " clip-rule="nonzero"/></clipPath><clipPath id="033a6384fb"><path d="M 267 164 L 270 164 L 270 166 L 267 166 Z M 267 164 " clip-rule="nonzero"/></clipPath><clipPath id="b94519973f"><path d="M 145.402344 234.277344 L 261.484375 149.324219 L 279.183594 173.507812 L 163.101562 258.460938 Z M 145.402344 234.277344 " clip-rule="nonzero"/></clipPath><clipPath id="d823c3a46a"><path d="M 145.402344 234.277344 L 261.484375 149.324219 L 279.183594 173.507812 L 163.101562 258.460938 Z M 145.402344 234.277344 " clip-rule="nonzero"/></clipPath><clipPath id="80226cf4d6"><path d="M 160 248 L 162 248 L 162 251 L 160 251 Z M 160 248 " clip-rule="nonzero"/></clipPath><clipPath id="1d8a78edfc"><path d="M 145.402344 234.277344 L 261.484375 149.324219 L 279.183594 173.507812 L 163.101562 258.460938 Z M 145.402344 234.277344 " clip-rule="nonzero"/></clipPath><clipPath id="58c3df5023"><path d="M 145.402344 234.277344 L 261.484375 149.324219 L 279.183594 173.507812 L 163.101562 258.460938 Z M 145.402344 234.277344 " clip-rule="nonzero"/></clipPath><clipPath id="13ba198541"><path d="M 205 215 L 208 215 L 208 218 L 205 218 Z M 205 215 " clip-rule="nonzero"/></clipPath><clipPath id="050c61e5c7"><path d="M 145.402344 234.277344 L 261.484375 149.324219 L 279.183594 173.507812 L 163.101562 258.460938 Z M 145.402344 234.277344 " clip-rule="nonzero"/></clipPath><clipPath id="8135b1ea2a"><path d="M 145.402344 234.277344 L 261.484375 149.324219 L 279.183594 173.507812 L 163.101562 258.460938 Z M 145.402344 234.277344 " clip-rule="nonzero"/></clipPath></defs><g clip-path="url(#698465b775)"><path fill="#000000" d="M 275.394531 383.136719 C 275.128906 383.636719 274.796875 383.984375 274.308594 384.25 C 272.527344 385.21875 270.59375 385.746094 268.625 386.09375 C 263.675781 386.976562 258.730469 387.019531 253.800781 385.9375 C 252.167969 385.582031 250.585938 385.066406 249.136719 384.203125 C 247.25 383.082031 246.335938 381.46875 246.332031 379.273438 C 246.324219 375.660156 246.878906 372.140625 247.949219 368.695312 C 248.066406 368.320312 248.132812 368.023438 247.808594 367.707031 C 246.96875 366.886719 247.042969 365.445312 247.796875 364.402344 C 248.488281 363.445312 249.445312 362.867188 250.542969 362.492188 C 250.945312 362.351562 251.363281 362.234375 251.847656 362.085938 C 251.769531 360.945312 251.722656 359.828125 251.605469 358.71875 C 251.25 355.351562 250.917969 351.980469 250.472656 348.628906 C 249.480469 341.117188 247.875 333.730469 245.722656 326.464844 C 245.007812 324.046875 244.238281 321.648438 243.453125 319.25 C 243.175781 318.410156 243.195312 317.683594 243.898438 317.078125 C 244.527344 316.53125 245.707031 316.410156 246.433594 316.898438 C 246.765625 317.125 247.050781 317.503906 247.234375 317.871094 C 248.652344 320.699219 249.691406 323.675781 250.632812 326.6875 C 252.398438 332.332031 253.808594 338.0625 254.765625 343.894531 C 255.5625 348.742188 256.210938 353.613281 256.425781 358.523438 C 256.46875 359.515625 256.433594 360.511719 256.433594 361.609375 C 257.972656 361.667969 259.242188 362.210938 260.371094 363.085938 C 261.652344 364.078125 261.832031 364.785156 261.375 366.359375 C 261.300781 366.621094 261.4375 366.996094 261.578125 367.265625 C 262.230469 368.496094 262.917969 369.707031 263.644531 371.019531 C 263.917969 371.019531 264.3125 371.035156 264.703125 371.015625 C 266.671875 370.925781 268.574219 371.253906 270.367188 372.035156 C 273.332031 373.328125 275.328125 375.488281 275.996094 378.691406 C 276.296875 380.214844 276.160156 381.714844 275.394531 383.136719 Z M 232.121094 369.160156 C 231.988281 368.726562 231.917969 368.40625 232.273438 367.992188 C 233.195312 366.917969 233.136719 365.929688 232.160156 364.886719 C 231.214844 363.871094 230.054688 363.277344 228.636719 363.234375 C 228.25 363.222656 227.863281 363.199219 227.367188 363.175781 C 227.367188 362.65625 227.375 362.230469 227.367188 361.804688 C 227.203125 354.957031 227.519531 348.132812 228.335938 341.332031 C 228.90625 336.585938 229.609375 331.863281 230.792969 327.222656 C 231.421875 324.75 232.214844 322.320312 232.898438 319.855469 C 233.070312 319.226562 233.175781 318.554688 233.167969 317.910156 C 233.15625 317.113281 232.496094 316.5 231.636719 316.28125 C 230.707031 316.046875 230.035156 316.273438 229.566406 317.0625 C 229.261719 317.570312 228.988281 318.117188 228.8125 318.679688 C 228.050781 321.082031 227.230469 323.472656 226.613281 325.910156 C 225.128906 331.738281 224.207031 337.675781 223.550781 343.648438 C 222.851562 350.015625 222.28125 356.394531 222.347656 362.8125 C 222.351562 363.070312 222.308594 363.332031 222.285156 363.628906 C 220.894531 363.582031 219.804688 364.207031 218.800781 365.003906 C 217.660156 365.902344 216.929688 367.84375 218.652344 369.191406 C 218.699219 369.234375 218.738281 369.292969 218.878906 369.46875 C 218.574219 370.03125 218.25 370.570312 217.988281 371.136719 C 217.738281 371.679688 217.359375 371.875 216.757812 371.921875 C 214.257812 372.109375 211.882812 372.753906 209.8125 374.214844 C 207.148438 376.085938 205.65625 378.652344 205.402344 381.898438 C 205.3125 383.058594 205.597656 384.09375 206.660156 384.742188 C 207.398438 385.191406 208.136719 385.65625 208.9375 385.96875 C 210.910156 386.742188 212.988281 387.078125 215.101562 387.144531 C 217.351562 387.214844 219.570312 386.945312 221.777344 386.542969 C 224.839844 385.992188 227.832031 385.179688 230.625 383.777344 C 231.453125 383.363281 232.21875 382.8125 232.972656 382.273438 C 233.636719 381.800781 233.957031 381.105469 233.957031 380.292969 C 233.957031 379.265625 233.980469 378.234375 233.894531 377.210938 C 233.652344 374.453125 232.933594 371.796875 232.121094 369.160156 Z M 232.121094 369.160156 " fill-opacity="1" fill-rule="nonzero"/></g><path fill="#ffffff" d="M 248.726562 368.546875 C 249.726562 368.84375 250.609375 369.253906 251.621094 369.039062 C 251.546875 368.546875 251.195312 368.566406 250.941406 368.464844 C 250.355469 368.234375 249.730469 368.074219 249.179688 367.773438 C 247.851562 367.042969 247.609375 365.867188 248.601562 364.71875 C 249.066406 364.183594 249.722656 363.792969 250.339844 363.425781 C 250.761719 363.175781 251.265625 363.066406 251.808594 362.871094 C 251.878906 363.351562 251.902344 363.773438 252.003906 364.175781 C 252.078125 364.484375 252.1875 364.839844 252.402344 365.050781 C 253.570312 366.21875 255.765625 365.648438 256.21875 364.066406 C 256.359375 363.570312 256.386719 363.035156 256.480469 362.414062 C 258.183594 362.546875 259.570312 363.203125 260.613281 364.515625 C 260.949219 364.9375 260.96875 365.457031 260.652344 365.914062 C 260.371094 366.320312 260.035156 366.695312 259.730469 367.085938 C 259.601562 367.253906 259.484375 367.429688 259.339844 367.628906 C 259.960938 368.027344 260.214844 367.347656 260.761719 367.324219 C 261.445312 368.539062 262.152344 369.800781 262.902344 371.125 C 261.957031 371.378906 261.085938 371.5625 260.25 371.851562 C 257.546875 372.785156 255.335938 374.363281 253.804688 376.800781 C 253.609375 377.109375 253.4375 377.4375 253.324219 377.78125 C 253.269531 377.953125 253.363281 378.175781 253.421875 378.582031 C 253.707031 378.261719 253.886719 378.125 253.988281 377.945312 C 255.742188 374.816406 258.480469 373.042969 261.917969 372.222656 C 264.699219 371.554688 267.429688 371.667969 270.054688 372.820312 C 272.789062 374.015625 274.597656 376.027344 275.195312 379 C 275.46875 380.378906 275.183594 381.710938 274.746094 383.011719 C 274.660156 383.261719 274.300781 383.476562 274.023438 383.605469 C 271.824219 384.609375 269.507812 385.214844 267.121094 385.558594 C 263.835938 386.039062 260.535156 386.132812 257.234375 385.761719 C 255.140625 385.527344 253.0625 385.175781 251.117188 384.339844 C 250.183594 383.933594 249.277344 383.390625 248.476562 382.761719 C 247.4375 381.941406 246.972656 380.816406 247.019531 379.441406 C 247.148438 375.78125 247.71875 372.191406 248.726562 368.546875 Z M 227.433594 377.125 C 223.738281 373.210938 219.234375 371.945312 214.035156 373.234375 C 209.582031 374.335938 206.769531 377.4375 206.21875 381.664062 C 205.988281 383.421875 206.25 383.957031 207.867188 384.710938 C 210.097656 385.746094 212.46875 386.269531 214.925781 386.375 C 216.832031 386.460938 218.730469 386.285156 220.609375 385.984375 C 223.914062 385.464844 227.144531 384.664062 230.167969 383.199219 C 231.03125 382.78125 231.820312 382.214844 232.617188 381.675781 C 233.210938 381.273438 233.390625 380.691406 233.375 379.957031 C 233.296875 376.785156 232.738281 373.695312 231.859375 370.65625 C 231.6875 370.0625 231.515625 369.472656 231.339844 368.882812 C 230.296875 369.257812 230.296875 369.257812 229.707031 369.03125 C 230.0625 368.8125 230.375 368.640625 230.65625 368.433594 C 230.976562 368.195312 231.296875 367.949219 231.574219 367.667969 C 232.316406 366.921875 232.355469 366.265625 231.667969 365.476562 C 230.605469 364.261719 229.234375 363.828125 227.585938 363.988281 C 227.585938 364.425781 227.574219 364.8125 227.589844 365.195312 C 227.621094 366.007812 227.472656 366.296875 226.738281 366.550781 C 225.6875 366.914062 224.609375 367.097656 223.492188 366.851562 C 222.730469 366.6875 222.488281 366.441406 222.40625 365.65625 C 222.367188 365.242188 222.339844 364.824219 222.304688 364.425781 C 220.886719 364.320312 219.082031 365.332031 218.570312 366.453125 C 218.171875 367.328125 218.367188 368.074219 219.179688 368.621094 C 219.453125 368.808594 219.761719 368.980469 220.078125 369.042969 C 220.828125 369.191406 221.589844 369.265625 222.347656 369.378906 C 222.515625 369.402344 222.683594 369.460938 222.847656 369.507812 C 221.785156 370.1875 220.679688 369.957031 219.585938 369.777344 C 219.210938 370.472656 218.859375 371.128906 218.457031 371.859375 C 218.796875 371.925781 219.019531 371.988281 219.242188 372.007812 C 220.617188 372.136719 221.925781 372.519531 223.191406 373.042969 C 225.078125 373.828125 226.664062 375.011719 227.890625 376.648438 C 228.132812 376.96875 228.507812 377.273438 228.210938 377.929688 C 227.914062 377.617188 227.671875 377.375 227.433594 377.125 Z M 227.433594 377.125 " fill-opacity="1" fill-rule="nonzero"/><g clip-path="url(#6f6f3a2f2c)"><path fill="#000000" d="M 255.851562 359.507812 C 255.773438 360.792969 255.734375 362.082031 255.617188 363.367188 C 255.519531 364.425781 255.039062 364.859375 254.121094 364.878906 C 253.03125 364.898438 252.691406 364.589844 252.628906 363.503906 C 252.375 358.800781 252.050781 354.105469 251.398438 349.4375 C 250.222656 340.984375 248.464844 332.65625 245.921875 324.5 C 245.359375 322.695312 244.777344 320.898438 244.125 319.125 C 243.804688 318.261719 244.117188 317.796875 244.640625 317.539062 C 245.277344 317.230469 246.289062 317.460938 246.601562 318.042969 C 246.933594 318.652344 247.203125 319.296875 247.464844 319.941406 C 249.839844 325.800781 251.53125 331.863281 252.859375 338.03125 C 254.164062 344.074219 255.011719 350.175781 255.496094 356.332031 C 255.578125 357.386719 255.664062 358.449219 255.753906 359.503906 C 255.785156 359.5 255.820312 359.503906 255.851562 359.507812 Z M 226.964844 364.960938 C 226.847656 362.773438 226.640625 360.585938 226.625 358.398438 C 226.578125 351.71875 227.039062 345.070312 227.953125 338.445312 C 228.621094 333.609375 229.453125 328.804688 230.8125 324.109375 C 231.316406 322.359375 231.976562 320.652344 232.5625 318.925781 C 232.828125 318.136719 232.40625 317.332031 231.582031 317.011719 C 230.875 316.738281 230.078125 316.882812 229.902344 317.835938 C 229.875 317.996094 229.792969 318.148438 229.738281 318.304688 C 228.066406 322.90625 226.863281 327.625 225.972656 332.429688 C 224.933594 338.046875 224.222656 343.703125 223.710938 349.394531 C 223.273438 354.257812 222.957031 359.128906 222.96875 364.011719 C 222.96875 364.441406 222.964844 364.875 222.988281 365.304688 C 223.035156 365.984375 223.140625 366.109375 223.808594 366.199219 C 224.902344 366.347656 225.929688 366.136719 226.996094 365.625 C 226.984375 365.347656 226.976562 365.152344 226.964844 364.960938 Z M 226.964844 364.960938 " fill-opacity="1" fill-rule="nonzero"/></g><g clip-path="url(#d815b7b6a6)"><g clip-path="url(#e51c09fec7)"><g clip-path="url(#21979d6289)"><path fill="#000000" d="M 287.898438 239.785156 C 287.960938 240.144531 288.058594 240.496094 288.179688 240.839844 C 288.34375 241.300781 288.539062 241.75 288.738281 242.195312 C 289.152344 243.128906 289.234375 244.070312 288.988281 245.058594 C 288.839844 245.644531 288.6875 246.246094 288.652344 246.847656 C 288.613281 247.59375 288.699219 248.347656 288.738281 249.199219 C 288.722656 249.207031 288.601562 249.277344 288.484375 249.339844 C 287.351562 249.878906 286.84375 250.820312 287.019531 252.074219 C 287.144531 252.941406 287.519531 253.710938 287.996094 254.433594 C 288.238281 254.796875 288.503906 255.148438 288.800781 255.558594 C 288.664062 255.710938 288.527344 255.875 288.378906 256.023438 C 285.054688 259.21875 281.738281 262.421875 278.402344 265.601562 C 277.433594 266.515625 276.421875 267.386719 275.40625 268.246094 C 274.867188 268.703125 274.234375 268.988281 273.523438 269.148438 C 268.894531 270.191406 264.269531 271.253906 259.644531 272.320312 C 259.003906 272.46875 258.367188 272.617188 257.734375 272.808594 C 256.46875 273.191406 255.910156 274.433594 256.460938 275.660156 C 256.605469 275.96875 256.792969 276.269531 257.019531 276.515625 C 257.488281 277.007812 258.042969 277.226562 258.742188 277.0625 C 264.269531 275.78125 269.796875 274.53125 275.316406 273.226562 C 276.558594 272.933594 277.671875 272.269531 278.636719 271.460938 C 280.085938 270.246094 281.472656 268.960938 282.832031 267.648438 C 285.722656 264.875 288.578125 262.070312 291.445312 259.277344 C 291.632812 259.097656 291.816406 258.910156 292.011719 258.710938 C 292.589844 259.132812 293.097656 259.515625 293.617188 259.875 C 294.472656 260.457031 295.382812 260.921875 296.40625 261.148438 C 297.941406 261.492188 299.367188 260.78125 299.773438 259.109375 C 301.097656 259.125 302.242188 258.511719 303.410156 257.976562 C 307.597656 256.050781 311.488281 253.636719 315.101562 250.789062 C 316.15625 249.949219 317.1875 249.101562 317.867188 247.90625 C 318.179688 247.347656 318.308594 246.78125 318.195312 246.15625 C 318.042969 245.308594 317.546875 244.855469 316.695312 244.816406 C 316.003906 244.785156 315.328125 244.878906 314.699219 245.164062 C 314.15625 245.410156 313.621094 245.664062 313.078125 245.914062 C 313.058594 245.882812 313.035156 245.851562 313.011719 245.820312 C 313.375 245.507812 313.746094 245.214844 314.09375 244.890625 C 314.804688 244.226562 315.5625 243.613281 316.195312 242.878906 C 317.246094 241.664062 316.972656 240.125 315.625 239.21875 C 314.910156 238.734375 314.144531 238.667969 313.410156 239.085938 C 312.585938 239.550781 311.800781 240.070312 311.011719 240.601562 C 310.210938 241.136719 309.429688 241.703125 308.523438 242.164062 C 308.675781 241.972656 308.824219 241.773438 308.984375 241.582031 C 310.109375 240.179688 311.222656 238.769531 312.363281 237.386719 C 313.160156 236.425781 313.121094 235.449219 312.5 234.410156 C 312.179688 233.875 311.773438 233.433594 311.226562 233.125 C 310.632812 232.789062 310.023438 232.761719 309.503906 233.15625 C 308.949219 233.570312 308.445312 234.070312 307.96875 234.578125 C 307.355469 235.230469 306.796875 235.941406 306.136719 236.570312 C 306.363281 236.179688 306.609375 235.800781 306.824219 235.40625 C 307.078125 234.9375 307.351562 234.472656 307.527344 233.972656 C 307.84375 233.074219 307.585938 232.332031 306.824219 231.6875 C 306.011719 230.996094 305.039062 230.8125 304.253906 231.277344 C 303.824219 231.535156 303.40625 231.859375 303.085938 232.246094 C 301.960938 233.578125 300.835938 234.921875 299.800781 236.316406 C 298.292969 238.34375 296.644531 240.246094 294.855469 242.207031 C 294.773438 241.925781 294.703125 241.738281 294.65625 241.542969 C 294.304688 240.164062 293.699219 238.921875 292.664062 237.917969 C 292.371094 237.632812 292.027344 237.363281 291.667969 237.175781 C 290.75 236.6875 289.820312 236.703125 288.972656 237.316406 C 288.140625 237.917969 287.707031 238.722656 287.898438 239.785156 Z M 287.898438 239.785156 " fill-opacity="1" fill-rule="nonzero"/></g></g></g><g clip-path="url(#a1a5b8bf5c)"><g clip-path="url(#005991bea5)"><g clip-path="url(#91549cf2f7)"><path fill="#ffffff" d="M 306.3125 244.359375 C 306.242188 243.957031 306.492188 243.707031 306.699219 243.460938 C 307.726562 242.207031 308.78125 240.96875 309.808594 239.707031 C 310.558594 238.789062 311.269531 237.832031 312.015625 236.910156 C 312.507812 236.300781 312.527344 235.652344 312.171875 235 C 311.949219 234.597656 311.65625 234.214844 311.332031 233.898438 C 310.730469 233.3125 310.164062 233.289062 309.5 233.808594 C 309.144531 234.09375 308.816406 234.433594 308.523438 234.78125 C 306.808594 236.792969 305.105469 238.820312 303.394531 240.832031 C 303.234375 241.015625 303.023438 241.160156 302.84375 241.316406 C 302.523438 240.988281 302.71875 240.796875 302.851562 240.601562 C 303.851562 239.050781 304.859375 237.511719 305.847656 235.949219 C 306.234375 235.335938 306.613281 234.710938 306.910156 234.046875 C 307.308594 233.164062 307.109375 232.585938 306.339844 231.996094 C 305.585938 231.425781 304.847656 231.410156 304.140625 232 C 303.085938 232.871094 302.242188 233.941406 301.441406 235.039062 C 299.84375 237.238281 298.207031 239.40625 296.371094 241.410156 C 296.023438 241.789062 295.679688 242.15625 295.3125 242.515625 C 294.722656 243.089844 294.519531 243.019531 294.304688 242.238281 C 294.140625 241.648438 293.984375 241.054688 293.773438 240.480469 C 293.390625 239.449219 292.730469 238.59375 291.875 237.902344 C 290.671875 236.933594 289.117188 237.289062 288.523438 238.652344 C 288.269531 239.226562 288.398438 239.808594 288.582031 240.363281 C 288.734375 240.828125 288.925781 241.28125 289.140625 241.71875 C 289.726562 242.921875 289.835938 244.148438 289.472656 245.421875 C 289.367188 245.792969 289.296875 246.179688 289.234375 246.5625 C 288.972656 248.40625 289.535156 249.980469 290.84375 251.3125 C 291.070312 251.550781 291.3125 251.78125 291.574219 252.042969 C 290.765625 252.238281 290.503906 251.992188 289.019531 249.765625 C 287.828125 250.160156 287.34375 250.953125 287.578125 252.15625 C 287.738281 253.015625 288.160156 253.761719 288.667969 254.460938 C 289.550781 255.683594 290.617188 256.734375 291.769531 257.695312 C 292.710938 258.480469 293.707031 259.195312 294.714844 259.886719 C 295.339844 260.316406 296.074219 260.554688 296.839844 260.65625 C 297.613281 260.753906 298.300781 260.566406 298.828125 259.980469 C 299.324219 259.433594 299.335938 259.222656 298.949219 258.597656 C 299.046875 258.570312 299.132812 258.527344 299.222656 258.53125 C 300.253906 258.636719 301.195312 258.34375 302.117188 257.933594 C 306.371094 256.0625 310.355469 253.71875 314.050781 250.90625 C 314.804688 250.335938 315.546875 249.742188 316.234375 249.09375 C 316.6875 248.667969 317.050781 248.140625 317.417969 247.628906 C 317.714844 247.21875 317.792969 246.738281 317.699219 246.234375 C 317.59375 245.625 317.339844 245.332031 316.726562 245.359375 C 316.105469 245.390625 315.425781 245.4375 314.882812 245.703125 C 313.539062 246.375 312.265625 247.167969 310.964844 247.925781 C 310.417969 248.242188 309.890625 248.585938 309.347656 248.894531 C 309.167969 249 308.964844 249.039062 308.65625 249.152344 C 308.726562 248.933594 308.730469 248.824219 308.789062 248.773438 C 310.046875 247.671875 311.308594 246.578125 312.578125 245.484375 C 313.277344 244.882812 314 244.308594 314.679688 243.691406 C 315.121094 243.277344 315.5625 242.847656 315.90625 242.363281 C 316.652344 241.300781 316.203125 239.96875 314.976562 239.484375 C 314.449219 239.277344 313.953125 239.363281 313.503906 239.648438 C 312.585938 240.234375 311.667969 240.828125 310.773438 241.445312 C 309.519531 242.320312 308.292969 243.222656 307.039062 244.105469 C 306.835938 244.253906 306.640625 244.472656 306.3125 244.359375 Z M 299.921875 242.707031 C 299.949219 242.648438 299.976562 242.585938 300.007812 242.523438 C 300.160156 242.542969 300.324219 242.546875 300.46875 242.59375 C 301.164062 242.8125 301.714844 243.277344 302.210938 243.78125 C 303.238281 244.832031 304.238281 245.902344 305.214844 247.007812 C 306.238281 248.171875 307.054688 249.472656 307.679688 250.894531 C 307.792969 251.148438 307.84375 251.421875 307.941406 251.742188 C 307.542969 251.648438 307.546875 251.644531 306.882812 250.410156 C 306.609375 249.898438 306.316406 249.382812 305.988281 248.902344 C 305.664062 248.410156 305.296875 247.953125 304.929688 247.496094 C 304.582031 247.058594 304.210938 246.628906 303.835938 246.214844 C 303.441406 245.777344 303.027344 245.355469 302.609375 244.945312 C 302.1875 244.53125 301.765625 244.125 301.3125 243.753906 C 300.863281 243.378906 300.382812 243.054688 299.921875 242.707031 Z M 294.550781 244.53125 C 294.582031 244.472656 294.613281 244.40625 294.640625 244.34375 C 294.878906 244.441406 295.128906 244.507812 295.339844 244.636719 C 296.203125 245.164062 296.957031 245.820312 297.59375 246.613281 C 298.285156 247.488281 298.871094 248.425781 299.035156 249.542969 C 299.09375 249.9375 299.035156 250.355469 298.984375 250.765625 C 298.957031 250.976562 298.796875 251.09375 298.519531 250.933594 C 298.804688 249.65625 298.332031 248.558594 297.621094 247.519531 C 297.046875 246.679688 296.3125 246 295.523438 245.375 C 295.183594 245.105469 294.796875 244.894531 294.550781 244.53125 Z M 294.550781 244.53125 " fill-opacity="1" fill-rule="nonzero"/></g></g></g><g clip-path="url(#15dc17840a)"><g clip-path="url(#655b8cf415)"><g clip-path="url(#cbd4f4c829)"><path fill="#000000" d="M 291.660156 258.425781 C 290.792969 257.558594 290 256.765625 289.164062 255.929688 C 288.953125 256.097656 288.78125 256.21875 288.636719 256.363281 C 284.867188 260.042969 281.109375 263.722656 277.328125 267.390625 C 276.757812 267.945312 276.097656 268.410156 275.472656 268.902344 C 274.984375 269.292969 274.382812 269.402344 273.789062 269.539062 C 269.261719 270.582031 264.734375 271.636719 260.207031 272.683594 C 259.566406 272.832031 258.917969 272.957031 258.28125 273.109375 C 256.945312 273.433594 256.433594 274.753906 257.214844 275.890625 C 257.570312 276.398438 258.046875 276.636719 258.667969 276.535156 C 258.957031 276.488281 259.234375 276.40625 259.519531 276.34375 C 264.523438 275.199219 269.523438 274.035156 274.539062 272.917969 C 275.410156 272.71875 276.195312 272.390625 276.945312 271.9375 C 278.195312 271.179688 279.355469 270.335938 280.40625 269.308594 C 283.996094 265.796875 287.628906 262.328125 291.242188 258.847656 C 291.371094 258.710938 291.507812 258.574219 291.660156 258.425781 Z M 291.660156 258.425781 " fill-opacity="1" fill-rule="nonzero"/></g></g></g><g clip-path="url(#dabce9ea75)"><g clip-path="url(#91b4090dc2)"><g clip-path="url(#74afb6f881)"><path fill="#000000" d="M 189.3125 235.558594 C 189.222656 235.933594 189.097656 236.300781 188.945312 236.65625 C 188.742188 237.128906 188.503906 237.59375 188.269531 238.046875 C 187.769531 239.003906 187.625 239.996094 187.824219 241.066406 C 187.945312 241.703125 188.070312 242.355469 188.066406 242.992188 C 188.0625 243.792969 187.921875 244.585938 187.828125 245.484375 C 187.847656 245.496094 187.96875 245.582031 188.09375 245.65625 C 189.257812 246.324219 189.738281 247.371094 189.472656 248.6875 C 189.285156 249.59375 188.839844 250.382812 188.289062 251.109375 C 188.011719 251.476562 187.707031 251.824219 187.367188 252.234375 C 187.5 252.410156 187.636719 252.59375 187.785156 252.765625 C 191.109375 256.441406 194.425781 260.125 197.769531 263.785156 C 198.734375 264.84375 199.753906 265.851562 200.777344 266.851562 C 201.320312 267.378906 201.976562 267.738281 202.71875 267.96875 C 207.5625 269.472656 212.402344 270.996094 217.238281 272.519531 C 217.910156 272.730469 218.578125 272.945312 219.234375 273.199219 C 220.554688 273.714844 221.070312 275.082031 220.40625 276.339844 C 220.238281 276.652344 220.019531 276.957031 219.761719 277.199219 C 219.234375 277.679688 218.632812 277.867188 217.898438 277.632812 C 212.121094 275.804688 206.335938 274.003906 200.5625 272.148438 C 199.261719 271.730469 198.125 270.933594 197.148438 269.992188 C 195.691406 268.578125 194.300781 267.09375 192.9375 265.585938 C 190.046875 262.394531 187.195312 259.167969 184.328125 255.960938 C 184.140625 255.753906 183.960938 255.539062 183.761719 255.3125 C 183.125 255.710938 182.5625 256.074219 181.984375 256.410156 C 181.042969 256.957031 180.050781 257.375 178.953125 257.527344 C 177.300781 257.761719 175.832031 256.882812 175.503906 255.074219 C 174.101562 254.976562 172.925781 254.230469 171.71875 253.5625 C 167.398438 251.160156 163.425781 248.261719 159.769531 244.929688 C 158.707031 243.953125 157.664062 242.960938 157.019531 241.632812 C 156.71875 241.015625 156.617188 240.398438 156.78125 239.746094 C 156.996094 238.863281 157.546875 238.421875 158.453125 238.453125 C 159.1875 238.476562 159.902344 238.636719 160.546875 238.992188 C 161.109375 239.300781 161.664062 239.613281 162.21875 239.925781 C 162.246094 239.894531 162.273438 239.863281 162.296875 239.832031 C 161.933594 239.472656 161.558594 239.125 161.207031 238.75 C 160.496094 237.988281 159.730469 237.269531 159.105469 236.4375 C 158.066406 235.054688 158.453125 233.445312 159.941406 232.597656 C 160.726562 232.144531 161.542969 232.136719 162.296875 232.644531 C 163.140625 233.210938 163.941406 233.828125 164.742188 234.457031 C 165.5625 235.097656 166.355469 235.765625 167.285156 236.332031 C 167.136719 236.113281 166.992188 235.890625 166.832031 235.671875 C 165.726562 234.089844 164.636719 232.496094 163.511719 230.929688 C 162.730469 229.839844 162.832031 228.808594 163.550781 227.757812 C 163.925781 227.214844 164.386719 226.785156 164.988281 226.5 C 165.636719 226.191406 166.28125 226.21875 166.808594 226.679688 C 167.371094 227.167969 167.878906 227.738281 168.351562 228.320312 C 168.957031 229.066406 169.507812 229.867188 170.167969 230.589844 C 169.949219 230.160156 169.714844 229.738281 169.511719 229.296875 C 169.273438 228.777344 169.011719 228.261719 168.855469 227.714844 C 168.578125 226.734375 168.894531 225.964844 169.742188 225.347656 C 170.648438 224.679688 171.691406 224.570312 172.492188 225.132812 C 172.9375 225.441406 173.355469 225.820312 173.671875 226.257812 C 174.78125 227.769531 175.890625 229.289062 176.90625 230.859375 C 178.375 233.144531 180.003906 235.304688 181.777344 237.539062 C 181.886719 237.246094 181.972656 237.054688 182.035156 236.851562 C 182.492188 235.417969 183.210938 234.148438 184.371094 233.171875 C 184.703125 232.890625 185.082031 232.636719 185.476562 232.46875 C 186.476562 232.027344 187.464844 232.121094 188.324219 232.847656 C 189.167969 233.554688 189.578125 234.449219 189.3125 235.558594 Z M 189.3125 235.558594 " fill-opacity="1" fill-rule="nonzero"/></g></g></g><g clip-path="url(#c89d5fde6b)"><g clip-path="url(#cfac2984d7)"><g clip-path="url(#a4d4e96a89)"><path fill="#ffffff" d="M 169.492188 238.851562 C 169.59375 238.429688 169.34375 238.140625 169.140625 237.863281 C 168.128906 236.441406 167.085938 235.039062 166.078125 233.613281 C 165.335938 232.574219 164.644531 231.496094 163.910156 230.453125 C 163.425781 229.765625 163.449219 229.074219 163.867188 228.410156 C 164.125 228.003906 164.460938 227.621094 164.824219 227.3125 C 165.5 226.742188 166.101562 226.765625 166.773438 227.375 C 167.132812 227.707031 167.457031 228.097656 167.75 228.488281 C 169.4375 230.769531 171.121094 233.070312 172.808594 235.351562 C 172.96875 235.5625 173.179688 235.730469 173.363281 235.914062 C 173.722656 235.589844 173.527344 235.375 173.398438 235.152344 C 172.4375 233.421875 171.464844 231.703125 170.515625 229.960938 C 170.140625 229.273438 169.78125 228.578125 169.503906 227.847656 C 169.136719 226.875 169.386719 226.277344 170.238281 225.71875 C 171.070312 225.175781 171.859375 225.21875 172.570312 225.910156 C 173.632812 226.921875 174.464844 228.128906 175.242188 229.367188 C 176.800781 231.835938 178.402344 234.28125 180.222656 236.5625 C 180.566406 236.996094 180.910156 237.417969 181.273438 237.828125 C 181.867188 238.488281 182.085938 238.429688 182.363281 237.617188 C 182.570312 237.007812 182.773438 236.390625 183.035156 235.796875 C 183.507812 234.734375 184.257812 233.882812 185.210938 233.21875 C 186.546875 232.296875 188.171875 232.804688 188.71875 234.300781 C 188.949219 234.933594 188.78125 235.539062 188.546875 236.113281 C 188.359375 236.59375 188.125 237.0625 187.871094 237.507812 C 187.175781 238.734375 186.980469 240.027344 187.289062 241.410156 C 187.375 241.8125 187.429688 242.230469 187.46875 242.644531 C 187.628906 244.625 186.933594 246.25 185.464844 247.550781 C 185.207031 247.785156 184.9375 248.011719 184.644531 248.265625 C 185.488281 248.539062 185.78125 248.300781 187.496094 246.066406 C 188.738281 246.585938 189.199219 247.464844 188.875 248.726562 C 188.648438 249.625 188.15625 250.378906 187.578125 251.082031 C 186.5625 252.304688 185.363281 253.332031 184.082031 254.253906 C 183.039062 255.007812 181.9375 255.683594 180.824219 256.328125 C 180.132812 256.730469 179.339844 256.921875 178.519531 256.964844 C 177.695312 257.003906 176.980469 256.75 176.453125 256.078125 C 175.960938 255.457031 175.960938 255.230469 176.414062 254.597656 C 176.308594 254.5625 176.222656 254.507812 176.128906 254.507812 C 175.023438 254.53125 174.046875 254.140625 173.097656 253.625 C 168.699219 251.277344 164.621094 248.449219 160.875 245.144531 C 160.113281 244.476562 159.363281 243.785156 158.671875 243.035156 C 158.21875 242.542969 157.871094 241.953125 157.511719 241.378906 C 157.222656 240.917969 157.167969 240.402344 157.300781 239.871094 C 157.453125 239.234375 157.738281 238.945312 158.386719 239.027344 C 159.042969 239.109375 159.761719 239.222656 160.320312 239.550781 C 161.703125 240.375 163.007812 241.328125 164.335938 242.242188 C 164.898438 242.625 165.433594 243.035156 165.992188 243.410156 C 166.171875 243.535156 166.390625 243.59375 166.707031 243.742188 C 166.648438 243.503906 166.652344 243.386719 166.59375 243.328125 C 165.328125 242.050781 164.054688 240.78125 162.78125 239.511719 C 162.078125 238.816406 161.34375 238.144531 160.664062 237.425781 C 160.21875 236.953125 159.777344 236.457031 159.445312 235.914062 C 158.71875 234.722656 159.28125 233.347656 160.609375 232.933594 C 161.183594 232.761719 161.703125 232.894531 162.160156 233.234375 C 163.097656 233.933594 164.035156 234.644531 164.945312 235.375 C 166.222656 236.410156 167.464844 237.472656 168.738281 238.519531 C 168.945312 238.695312 169.136719 238.941406 169.492188 238.851562 Z M 176.375 237.640625 C 176.351562 237.574219 176.324219 237.503906 176.296875 237.4375 C 176.132812 237.445312 175.957031 237.433594 175.800781 237.46875 C 175.050781 237.644531 174.4375 238.09375 173.882812 238.585938 C 172.726562 239.613281 171.597656 240.664062 170.492188 241.757812 C 169.335938 242.90625 168.386719 244.21875 167.632812 245.675781 C 167.5 245.9375 167.425781 246.222656 167.304688 246.550781 C 167.730469 246.488281 167.726562 246.480469 168.511719 245.230469 C 168.835938 244.707031 169.175781 244.1875 169.550781 243.703125 C 169.929688 243.210938 170.34375 242.753906 170.761719 242.300781 C 171.160156 241.863281 171.582031 241.441406 172.003906 241.03125 C 172.449219 240.601562 172.914062 240.1875 173.386719 239.789062 C 173.855469 239.386719 174.332031 238.988281 174.835938 238.632812 C 175.335938 238.273438 175.867188 237.96875 176.375 237.640625 Z M 181.957031 240.035156 C 181.929688 239.96875 181.898438 239.894531 181.871094 239.828125 C 181.617188 239.910156 181.347656 239.960938 181.117188 240.078125 C 180.167969 240.5625 179.324219 241.199219 178.597656 241.988281 C 177.808594 242.855469 177.132812 243.800781 176.886719 244.972656 C 176.800781 245.390625 176.835938 245.839844 176.863281 246.277344 C 176.882812 246.503906 177.042969 246.644531 177.347656 246.496094 C 177.125 245.113281 177.695312 243.988281 178.515625 242.945312 C 179.175781 242.105469 179.996094 241.441406 180.871094 240.847656 C 181.25 240.589844 181.671875 240.398438 181.957031 240.035156 Z M 181.957031 240.035156 " fill-opacity="1" fill-rule="nonzero"/></g></g></g><g clip-path="url(#45e47ec54a)"><g clip-path="url(#2f365a0100)"><g clip-path="url(#6eefa2d926)"><path fill="#000000" d="M 184.15625 255.035156 C 185.128906 254.191406 186.019531 253.414062 186.957031 252.597656 C 187.171875 252.792969 187.347656 252.9375 187.488281 253.105469 C 191.257812 257.332031 195.011719 261.5625 198.792969 265.777344 C 199.363281 266.414062 200.035156 266.96875 200.667969 267.542969 C 201.160156 268 201.789062 268.164062 202.414062 268.359375 C 207.152344 269.855469 211.882812 271.363281 216.621094 272.855469 C 217.292969 273.070312 217.972656 273.253906 218.636719 273.472656 C 220.035156 273.929688 220.492188 275.378906 219.59375 276.515625 C 219.1875 277.027344 218.664062 277.242188 218.015625 277.078125 C 217.710938 277.003906 217.417969 276.894531 217.121094 276.804688 C 211.882812 275.164062 206.652344 273.5 201.40625 271.886719 C 200.496094 271.601562 199.679688 271.183594 198.914062 270.640625 C 197.636719 269.730469 196.460938 268.734375 195.40625 267.554688 C 191.820312 263.515625 188.183594 259.523438 184.570312 255.519531 C 184.441406 255.367188 184.308594 255.210938 184.15625 255.035156 Z M 184.15625 255.035156 " fill-opacity="1" fill-rule="nonzero"/></g></g></g><g clip-path="url(#e632eaae27)"><path fill="#599636" d="M 236.835938 228.890625 L 239.75 234.375 C 240.386719 235.367188 241.121094 236.277344 241.953125 237.113281 C 244.394531 239.554688 246.71875 242.113281 248.800781 244.855469 C 253.742188 251.347656 257.074219 258.554688 259.457031 266.355469 C 260.886719 271.121094 261.660156 276.007812 261.722656 280.949219 C 261.960938 295.71875 256.898438 308.402344 246.652344 318.945312 C 244.992188 320.617188 243.207031 322.148438 241.296875 323.53125 C 240.277344 323.53125 239.804688 322.730469 239.386719 322.042969 C 238.585938 320.703125 238.136719 319.242188 237.898438 317.753906 C 237.539062 315.96875 237.300781 314.183594 237.421875 312.335938 L 237.421875 311.5 C 237.363281 311.320312 236.472656 229.3125 236.828125 228.894531 Z M 236.835938 228.890625 " fill-opacity="1" fill-rule="nonzero"/></g><g clip-path="url(#910fd4e710)"><path fill="#6cac48" d="M 236.835938 228.714844 C 236.714844 228.476562 236.59375 228.65625 236.476562 228.773438 C 236.535156 229.964844 236.117188 231.035156 235.460938 232.050781 C 234.746094 233.066406 233.792969 233.835938 232.839844 234.671875 C 227.539062 239.257812 223.371094 244.796875 220.035156 250.988281 C 215.628906 259.328125 213.308594 268.261719 212.652344 277.671875 C 212.359375 281.070312 213.722656 293.039062 214.800781 296.492188 C 217.714844 305.664062 222.957031 313.34375 229.773438 320.015625 C 231.441406 321.621094 233.230469 323.113281 235.074219 324.539062 C 235.609375 324.539062 235.671875 324.0625 235.789062 323.707031 C 236.023438 322.945312 236.203125 322.167969 236.324219 321.382812 C 236.859375 318.40625 237.15625 315.425781 237.515625 312.449219 L 236.859375 228.714844 Z M 236.835938 228.714844 " fill-opacity="1" fill-rule="nonzero"/></g><g clip-path="url(#c7ab588a2a)"><path fill="#c2bfbf" d="M 239.757812 327.164062 C 239.878906 325.792969 240.558594 324.664062 241.246094 323.53125 C 240.53125 323.238281 239.996094 322.636719 239.578125 321.980469 C 239.21875 321.382812 238.921875 320.644531 238.683594 320.015625 C 237.851562 317.515625 237.667969 314.894531 237.433594 312.332031 L 237.433594 310.78125 C 237.140625 311.019531 237.074219 313.042969 237.074219 313.34375 C 236.894531 316.082031 236.539062 318.761719 236.003906 321.382812 C 235.828125 322.453125 235.710938 323.527344 235.054688 324.476562 C 235.054688 324.597656 235.054688 324.71875 235.113281 324.894531 C 236.183594 328.050781 236.480469 331.269531 236.664062 334.542969 L 236.664062 335.734375 C 236.664062 337.164062 236.605469 336.867188 237.792969 337.339844 C 238.269531 337.519531 238.8125 337.582031 239.285156 337.9375 C 239.640625 337.9375 239.703125 337.640625 239.703125 337.402344 L 239.523438 335.433594 L 239.523438 329.953125 C 239.464844 329 239.640625 328.046875 239.761719 327.152344 Z M 239.757812 327.164062 " fill-opacity="1" fill-rule="nonzero"/></g><path fill="#47474a" d="M 284.976562 302.253906 L 284.976562 307.925781 C 284.972656 308.152344 284.984375 308.375 285.015625 308.597656 C 285.089844 309.269531 285.503906 309.679688 286.109375 309.867188 C 286.675781 310.015625 287.25 310.128906 287.828125 310.203125 C 288.164062 310.242188 288.277344 310.386719 288.316406 310.75 C 288.351562 312.019531 288.242188 312.167969 287.007812 312.09375 C 284.136719 311.941406 281.261719 311.90625 278.390625 312.09375 L 278.117188 312.09375 C 277.21875 312.128906 277.148438 312.054688 277.148438 311.160156 C 277.148438 311.007812 277.183594 310.824219 277.183594 310.671875 C 277.183594 310.398438 277.371094 310.261719 277.632812 310.261719 C 278.234375 310.1875 278.789062 310.039062 279.351562 309.925781 C 280.136719 309.742188 280.582031 309.253906 280.65625 308.472656 C 280.765625 307.613281 280.765625 306.71875 280.765625 305.859375 L 280.804688 295.859375 C 280.816406 295.5625 280.75 295.285156 280.601562 295.027344 C 280.453125 294.773438 280.25 294.574219 279.988281 294.4375 C 279.308594 294.0625 278.597656 293.761719 277.855469 293.542969 C 277.632812 293.46875 277.410156 293.433594 277.222656 293.320312 C 276.675781 293.054688 276.664062 292.574219 277.183594 292.273438 C 277.371094 292.164062 277.59375 292.085938 277.816406 292.046875 C 280.089844 291.714844 282.300781 291.152344 284.460938 290.371094 C 284.90625 290.21875 285.019531 290.261719 285.058594 290.707031 C 285.097656 290.976562 285.058594 291.304688 285.023438 291.5625 C 284.949219 292.046875 284.949219 292.53125 284.949219 292.984375 C 284.949219 293.167969 284.984375 293.355469 285.171875 293.46875 C 285.359375 293.582031 285.546875 293.46875 285.71875 293.359375 C 286.5 292.757812 287.285156 292.203125 288.144531 291.722656 C 289.371094 291.050781 290.683594 290.449219 292.101562 290.265625 C 293.824219 290.042969 295.3125 290.488281 296.617188 291.609375 C 297.160156 292.09375 297.632812 292.640625 298.035156 293.25 C 298.410156 293.796875 298.445312 293.808594 298.933594 293.4375 C 300.351562 292.390625 301.84375 291.457031 303.449219 290.785156 C 305.128906 290.078125 306.84375 289.96875 308.558594 290.5625 C 310.3125 291.195312 311.507812 292.429688 312.21875 294.109375 C 312.820312 295.453125 313.078125 296.839844 313.078125 298.285156 L 313.078125 308.285156 C 313.078125 308.957031 313.347656 309.378906 314.011719 309.707031 C 314.71875 309.980469 315.503906 310.117188 316.25 310.265625 C 316.734375 310.375 316.734375 310.375 316.734375 310.867188 C 316.660156 312.09375 316.550781 312.171875 315.355469 312.09375 C 312.355469 311.925781 309.359375 311.925781 306.363281 312.09375 C 305.761719 312.132812 305.761719 312.132812 305.726562 311.535156 L 305.726562 311.351562 C 305.691406 310.339844 305.691406 310.339844 306.664062 310.121094 L 307.632812 309.859375 C 307.96875 309.777344 308.246094 309.605469 308.460938 309.332031 C 308.679688 309.058594 308.789062 308.75 308.789062 308.402344 L 308.898438 305.605469 L 308.824219 298.292969 C 308.796875 297.632812 308.660156 297 308.414062 296.386719 C 307.480469 294.109375 305.429688 293.292969 303.449219 293.515625 C 301.957031 293.664062 300.652344 294.261719 299.421875 295.121094 C 299.160156 295.304688 298.972656 295.53125 299.011719 295.90625 C 299.347656 298.292969 299.121094 300.683594 299.160156 303.070312 L 299.160156 308.257812 C 299.160156 309.191406 299.535156 309.640625 300.429688 309.863281 L 302.152344 310.238281 C 302.414062 310.277344 302.5625 310.386719 302.5625 310.6875 L 302.5625 310.960938 C 302.523438 312.003906 302.453125 312.050781 301.402344 312.039062 C 298.417969 311.890625 295.429688 311.929688 292.484375 312.039062 C 291.472656 312.078125 291.390625 311.96875 291.4375 310.949219 C 291.476562 310.347656 291.546875 310.316406 292.109375 310.203125 L 293.339844 309.980469 C 294.429688 309.753906 294.832031 309.34375 294.90625 308.1875 L 295.015625 305.6875 L 294.941406 298.183594 C 294.867188 297.25 294.667969 296.355469 294.160156 295.496094 C 293.414062 294.117188 292.246094 293.410156 290.648438 293.332031 C 289.042969 293.222656 287.625 293.816406 286.28125 294.5625 C 285.347656 295.105469 284.9375 295.753906 285.011719 296.839844 L 285.011719 302.285156 Z M 355.285156 302.480469 L 355.285156 307.742188 C 355.289062 308.117188 355.316406 308.488281 355.359375 308.863281 C 355.375 309.117188 355.464844 309.339844 355.632812 309.535156 C 355.796875 309.726562 356.003906 309.851562 356.253906 309.90625 C 356.898438 310.097656 357.558594 310.207031 358.230469 310.242188 C 358.605469 310.28125 358.679688 310.429688 358.714844 310.730469 L 358.714844 310.992188 C 358.679688 312.296875 358.53125 312.449219 357.261719 312.375 C 354.421875 312.1875 351.589844 312.222656 348.753906 312.375 L 347.660156 312.410156 C 347.4375 312.410156 347.386719 312.304688 347.324219 312.148438 C 347.214844 311.628906 347.214844 311.105469 347.324219 310.582031 C 347.363281 310.359375 347.511719 310.308594 347.734375 310.246094 C 348.28125 310.171875 348.742188 310.0625 349.261719 309.972656 C 350.195312 309.75 350.53125 309.371094 350.566406 308.40625 L 350.675781 305.269531 L 350.675781 296.089844 C 350.675781 295.417969 350.414062 295.007812 349.820312 294.707031 C 349.148438 294.335938 348.4375 294.074219 347.691406 293.8125 C 347.464844 293.738281 347.242188 293.664062 347.054688 293.550781 C 346.570312 293.214844 346.511719 292.730469 346.984375 292.355469 C 347.199219 292.179688 347.449219 292.078125 347.726562 292.058594 C 350.117188 291.683594 352.429688 291.160156 354.667969 290.265625 C 354.933594 290.15625 355.042969 290.226562 355.15625 290.449219 C 355.269531 290.675781 355.304688 290.9375 355.265625 291.195312 L 355.15625 292.949219 C 355.15625 293.171875 355.046875 293.496094 355.230469 293.582031 C 355.453125 293.734375 355.601562 293.398438 355.789062 293.308594 C 356.894531 292.382812 358.101562 291.609375 359.410156 290.996094 C 360.566406 290.449219 361.757812 290.101562 363.105469 290.179688 C 365.605469 290.328125 367.398438 291.597656 368.550781 293.800781 C 369.152344 294.957031 369.410156 296.222656 369.523438 297.53125 L 369.628906 300.261719 L 369.667969 308.511719 C 369.707031 309.144531 369.929688 309.554688 370.566406 309.78125 C 371.222656 310 371.894531 310.160156 372.578125 310.265625 C 373.179688 310.339844 373.214844 310.453125 373.25 311.011719 L 373.25 311.195312 C 373.179688 312.464844 373.101562 312.503906 371.832031 312.425781 C 369.046875 312.277344 366.257812 312.277344 363.472656 312.425781 C 363.097656 312.464844 362.726562 312.425781 362.382812 312.464844 C 362.15625 312.464844 362.007812 312.425781 361.972656 312.203125 C 361.898438 311.714844 361.820312 311.230469 361.933594 310.707031 C 361.972656 310.484375 362.082031 310.371094 362.34375 310.332031 L 364.0625 310.0625 C 364.664062 309.910156 364.996094 309.515625 365.074219 308.96875 L 365.148438 307.921875 L 365.109375 300.125 C 365.109375 299.226562 365.070312 298.332031 364.886719 297.4375 C 364.4375 295.523438 362.980469 294.160156 361.007812 293.96875 C 359.289062 293.78125 357.730469 294.230469 356.304688 295.160156 C 355.59375 295.609375 355.296875 296.242188 355.296875 297.027344 L 355.296875 302.664062 C 355.296875 302.554688 355.296875 302.554688 355.332031 302.554688 Z M 355.285156 302.480469 " fill-opacity="1" fill-rule="nonzero"/><g clip-path="url(#4c32ee8603)"><path fill="#c2bfbf" d="M 464.574219 291.917969 C 464.164062 289.191406 463.152344 286.765625 461.398438 284.640625 C 459.847656 282.730469 457.929688 281.3125 455.652344 280.386719 C 453.304688 279.417969 450.800781 279.117188 448.261719 279.042969 C 447.214844 279.003906 432.960938 279.226562 431.917969 279.042969 C 431.65625 279.003906 431.46875 279.082031 431.316406 279.304688 C 431.128906 279.578125 430.941406 279.863281 430.828125 280.160156 C 430.382812 281.171875 430.382812 281.09375 431.464844 281.242188 C 432.359375 281.394531 433.214844 281.46875 434.078125 281.730469 C 434.859375 281.992188 435.421875 282.4375 435.605469 283.296875 C 435.679688 283.707031 435.757812 296.839844 435.757812 302.964844 L 435.605469 307.332031 C 435.566406 307.667969 435.53125 308.003906 435.421875 308.300781 C 435.269531 308.75 435.011719 309.121094 434.5625 309.3125 C 434.066406 309.546875 433.542969 309.683594 432.996094 309.722656 C 431.984375 309.832031 431.835938 309.871094 431.5 310.992188 L 431.390625 311.402344 C 431.320312 311.886719 431.355469 311.960938 431.839844 311.960938 L 442.996094 312.070312 L 447.367188 311.996094 L 450.390625 311.621094 C 453.820312 310.988281 456.882812 309.570312 459.492188 307.292969 C 461 305.964844 462.195312 304.398438 463.078125 302.59375 C 464.121094 300.503906 464.570312 298.222656 464.683594 295.914062 C 464.867188 294.605469 464.792969 293.265625 464.574219 291.921875 Z M 459.160156 297.214844 C 459.011719 299.605469 458.527344 301.917969 457.296875 304.007812 C 455.726562 306.730469 453.488281 308.636719 450.390625 309.304688 C 449.050781 309.578125 447.707031 309.714844 446.296875 309.527344 C 445.285156 309.417969 444.320312 309.304688 443.386719 308.96875 C 441.707031 308.367188 441.109375 307.332031 441.074219 305.691406 L 441.035156 283.191406 C 441.035156 281.847656 441.636719 281.550781 442.601562 281.511719 C 444.058594 281.402344 445.550781 281.4375 447.007812 281.585938 C 448.5625 281.734375 450.070312 282.097656 451.523438 282.675781 C 452.605469 283.128906 453.585938 283.738281 454.472656 284.507812 C 456.488281 286.226562 457.832031 288.382812 458.566406 290.921875 C 459.167969 292.976562 459.277344 295.066406 459.167969 297.15625 Z M 495.585938 300.875 C 495.585938 300.652344 495.585938 300.464844 495.550781 300.242188 C 495.214844 298.1875 494.128906 296.621094 492.453125 295.425781 C 491.371094 294.644531 490.140625 294.121094 488.871094 293.746094 C 488.644531 293.671875 488.460938 293.597656 488.238281 293.5625 C 488.273438 293.375 488.386719 293.335938 488.5 293.300781 C 489.242188 292.925781 489.953125 292.515625 490.585938 291.957031 C 491.746094 290.988281 492.5 289.789062 492.902344 288.335938 C 493.125 287.550781 493.125 286.765625 493.050781 285.945312 C 492.988281 284.972656 492.71875 284.058594 492.242188 283.207031 C 491.761719 282.355469 491.125 281.652344 490.324219 281.09375 C 488.605469 279.824219 486.59375 279.300781 484.503906 279.261719 C 480.472656 279.1875 476.40625 279.261719 472.378906 279.261719 C 471.222656 279.261719 470.066406 279.335938 468.871094 279.152344 C 468.648438 279.117188 468.324219 279.042969 468.160156 279.304688 C 467.886719 279.789062 467.558594 280.273438 467.449219 280.832031 C 467.414062 281.09375 467.488281 281.242188 467.785156 281.28125 L 470.363281 281.65625 C 471.371094 281.804688 472.082031 282.367188 472.152344 283.261719 C 472.226562 283.878906 472.261719 284.503906 472.261719 285.125 L 472.1875 292.101562 L 472.148438 305.910156 C 472.148438 306.730469 472.039062 307.515625 471.886719 308.335938 C 471.851562 308.601562 471.742188 308.835938 471.566406 309.039062 C 471.394531 309.242188 471.175781 309.378906 470.917969 309.453125 C 470.171875 309.679688 469.464844 309.902344 468.679688 309.902344 C 468.464844 309.882812 468.265625 309.929688 468.082031 310.050781 C 467.902344 310.167969 467.777344 310.332031 467.710938 310.535156 C 467.558594 310.871094 467.4375 311.246094 467.375 311.582031 C 467.300781 312.03125 467.414062 312.183594 467.859375 312.128906 C 468.195312 312.089844 480.511719 312.390625 482.824219 312.167969 C 484.207031 312.015625 485.554688 311.832031 486.929688 311.421875 C 489.277344 310.675781 491.445312 309.589844 493.160156 307.761719 C 494.578125 306.269531 495.398438 304.476562 495.472656 302.386719 C 495.582031 301.902344 495.582031 301.417969 495.582031 300.894531 Z M 477.488281 285.582031 L 477.597656 282.597656 C 477.597656 282.039062 477.820312 281.777344 478.382812 281.664062 C 479.277344 281.476562 480.171875 281.554688 481.070312 281.589844 C 481.964844 281.664062 482.820312 281.777344 483.71875 282.039062 C 485.355469 282.523438 486.628906 283.457031 487.375 285.023438 C 487.71875 285.742188 487.894531 286.5 487.898438 287.300781 C 487.9375 288.34375 487.859375 289.351562 487.449219 290.359375 C 486.816406 291.738281 485.8125 292.636719 484.351562 292.898438 C 482.894531 293.160156 478.753906 293.046875 478.121094 293.046875 C 477.5625 293.046875 477.519531 292.972656 477.519531 292.414062 L 477.519531 288.898438 C 477.433594 287.804688 477.421875 286.710938 477.484375 285.613281 Z M 489.613281 305.660156 C 488.980469 307.339844 487.820312 308.5 486.179688 309.125 C 485.285156 309.460938 484.390625 309.671875 483.449219 309.613281 C 482.292969 309.574219 481.136719 309.613281 479.980469 309.390625 C 478.414062 309.054688 477.703125 307.558594 477.59375 306.476562 C 477.40625 304.574219 477.519531 302.632812 477.484375 301.214844 L 477.484375 296.289062 C 477.484375 295.6875 477.558594 295.503906 478.191406 295.503906 L 481.703125 295.542969 L 484.089844 295.816406 C 485.769531 296.191406 487.300781 296.828125 488.496094 298.128906 C 489.464844 299.175781 489.988281 300.441406 490.101562 301.824219 C 490.210938 303.128906 490.140625 304.398438 489.652344 305.632812 Z M 489.613281 305.660156 " fill-opacity="1" fill-rule="nonzero"/></g><path fill="#47474a" d="M 394.804688 294.417969 L 395.773438 294.566406 C 396.820312 294.605469 398.050781 294.230469 398.421875 292.773438 C 398.632812 292.066406 398.632812 291.355469 398.421875 290.644531 C 398.199219 290.644531 398.085938 290.832031 397.976562 290.90625 C 397.414062 291.355469 396.78125 291.617188 396.109375 291.691406 C 394.765625 291.839844 393.421875 291.765625 392.117188 291.28125 L 390.289062 290.648438 C 389 290.226562 387.679688 290.054688 386.328125 290.128906 C 384.425781 290.277344 382.632812 290.914062 380.953125 291.808594 C 379.164062 292.777344 377.894531 294.234375 377.296875 296.214844 C 376.960938 297.371094 376.921875 298.5625 377.070312 299.757812 C 377.445312 302.484375 378.863281 304.386719 381.398438 305.394531 C 381.550781 305.433594 381.660156 305.503906 381.808594 305.542969 C 382.144531 305.730469 382.183594 305.917969 381.882812 306.175781 L 380.949219 306.8125 L 378.710938 308.191406 C 378.152344 308.527344 378.078125 308.792969 378.261719 309.386719 C 378.488281 310.097656 378.886719 310.695312 379.457031 311.179688 C 379.972656 311.621094 380.542969 311.96875 381.171875 312.222656 C 381.582031 312.410156 381.582031 312.496094 381.210938 312.824219 L 379.082031 314.355469 C 378.371094 314.898438 377.660156 315.445312 377.066406 316.144531 C 376.644531 316.59375 376.355469 317.117188 376.199219 317.710938 C 376.039062 318.308594 376.03125 318.90625 376.171875 319.503906 C 376.457031 320.832031 377.101562 321.953125 378.109375 322.863281 C 379.09375 323.777344 380.238281 324.398438 381.542969 324.726562 C 383.628906 325.328125 385.796875 325.363281 387.921875 324.953125 C 390.980469 324.390625 393.65625 323.039062 395.761719 320.734375 C 397.214844 319.207031 398.074219 317.414062 398.148438 315.273438 C 398.191406 314.65625 398.125 314.046875 397.949219 313.453125 C 397.773438 312.855469 397.5 312.308594 397.132812 311.8125 C 396.765625 311.3125 396.320312 310.890625 395.800781 310.550781 C 395.285156 310.210938 394.722656 309.96875 394.121094 309.824219 L 392.105469 309.453125 L 385.945312 308.90625 C 385.273438 308.867188 384.601562 308.753906 384.042969 308.417969 C 383.332031 307.972656 383.148438 307.113281 383.59375 306.554688 C 383.929688 306.144531 384.339844 305.882812 384.863281 305.84375 L 386.058594 305.734375 C 387.238281 305.617188 388.367188 305.308594 389.445312 304.816406 C 390.527344 304.324219 391.5 303.675781 392.363281 302.863281 C 393.304688 301.988281 393.941406 300.933594 394.265625 299.6875 C 394.714844 298.082031 394.714844 296.414062 394.339844 294.773438 C 394.230469 294.363281 394.265625 294.324219 394.789062 294.398438 Z M 385.65625 313.003906 C 385.882812 313.042969 386.105469 313.003906 386.328125 313.003906 C 387.894531 313.078125 389.5 313.191406 391.03125 313.605469 C 391.53125 313.753906 392.015625 313.941406 392.484375 314.164062 C 393.980469 314.984375 394.539062 316.40625 394.351562 317.933594 C 394.128906 319.613281 393.195312 320.804688 391.738281 321.59375 C 390.769531 322.140625 389.683594 322.375 388.566406 322.488281 C 388.15625 322.527344 387.78125 322.488281 387.371094 322.488281 C 386.066406 322.527344 384.796875 322.378906 383.566406 321.855469 C 382.707031 321.519531 381.996094 321.035156 381.363281 320.363281 C 380.058594 319.054688 379.453125 316.667969 381.402344 314.726562 C 382.597656 313.632812 383.941406 312.859375 385.65625 313.003906 Z M 389.910156 301.359375 C 389.128906 303.335938 387.410156 303.9375 385.695312 303.671875 C 384.128906 303.449219 382.96875 302.59375 382.226562 301.171875 C 381.257812 299.269531 381 297.292969 381.554688 295.238281 C 381.964844 293.707031 382.898438 292.550781 384.539062 292.289062 C 386.628906 291.914062 388.636719 292.664062 389.691406 294.753906 C 390.234375 295.761719 390.472656 296.992188 390.472656 298.746094 C 390.4375 299.453125 390.289062 300.425781 389.914062 301.359375 Z M 342.894531 298.820312 C 342.558594 296.804688 341.8125 294.976562 340.433594 293.445312 C 338.378906 291.167969 335.769531 290.167969 332.820312 290.160156 C 330.242188 290.125 327.820312 290.871094 325.652344 292.214844 C 324.589844 292.851562 323.679688 293.664062 322.921875 294.652344 C 322.167969 295.636719 321.625 296.730469 321.289062 297.925781 C 320.652344 300.089844 320.6875 302.292969 321.179688 304.492188 C 322.484375 310.390625 327.039062 312.925781 332.484375 312.554688 C 334.089844 312.445312 335.617188 311.921875 337.070312 311.210938 C 339.234375 310.199219 340.804688 308.597656 341.882812 306.46875 C 342.742188 304.714844 343.113281 302.847656 343.078125 300.722656 L 342.890625 298.816406 Z M 337.597656 307.105469 C 337.464844 307.527344 337.273438 307.917969 337.027344 308.28125 C 336.777344 308.648438 336.484375 308.96875 336.140625 309.246094 C 335.800781 309.523438 335.425781 309.75 335.019531 309.917969 C 334.613281 310.085938 334.191406 310.195312 333.753906 310.242188 C 332.113281 310.464844 330.578125 310.054688 329.199219 309.082031 C 328.191406 308.339844 327.40625 307.40625 326.851562 306.285156 C 325.320312 303.148438 325.058594 299.867188 325.839844 296.507812 C 326.097656 295.445312 326.617188 294.539062 327.40625 293.78125 C 328.789062 292.511719 330.390625 292.214844 332.183594 292.589844 C 333.90625 292.964844 335.207031 293.894531 336.28125 295.316406 C 337.355469 296.734375 337.847656 298.375 338.144531 300.09375 C 338.296875 300.949219 338.296875 301.847656 338.332031 302.40625 C 338.332031 304.199219 338.183594 305.683594 337.621094 307.109375 Z M 424.433594 299.121094 C 424.160156 296.957031 423.351562 294.980469 421.820312 293.335938 C 419.804688 291.136719 417.191406 290.203125 414.28125 290.164062 C 411.78125 290.125 409.46875 290.835938 407.339844 292.066406 C 404.953125 293.488281 403.3125 295.5 402.675781 298.226562 C 402.296875 299.710938 402.1875 301.21875 402.339844 302.746094 C 402.496094 304.269531 402.90625 305.726562 403.574219 307.105469 C 404.800781 309.71875 406.894531 311.398438 409.65625 312.144531 C 412.714844 312.964844 415.628906 312.59375 418.464844 311.210938 C 420.925781 310.015625 422.679688 308.152344 423.6875 305.613281 C 424.289062 304.117188 424.507812 302.515625 424.542969 300.648438 C 424.582031 300.3125 424.507812 299.714844 424.433594 299.117188 Z M 419.28125 306.621094 C 418.679688 308.636719 417.417969 309.945312 415.289062 310.242188 C 413.722656 310.46875 412.230469 310.09375 410.886719 309.199219 C 409.726562 308.414062 408.910156 307.367188 408.308594 306.140625 C 407.636719 304.835938 407.265625 303.453125 407.117188 302.035156 C 406.894531 300.28125 406.894531 298.566406 407.304688 296.8125 C 407.382812 296.464844 407.492188 296.128906 407.640625 295.804688 C 408.683594 293.191406 410.996094 291.996094 413.722656 292.59375 C 415.550781 293.003906 416.929688 294.015625 417.976562 295.542969 C 418.988281 297.039062 419.46875 298.679688 419.695312 300.460938 C 419.804688 301.167969 419.847656 301.914062 419.804688 302.546875 C 419.804688 304.003906 419.695312 305.347656 419.261719 306.652344 Z M 419.28125 306.621094 " fill-opacity="1" fill-rule="nonzero"/><g clip-path="url(#d71f16a011)"><path fill="#000000" d="M 234.582031 299.753906 C 229.925781 299.753906 224.507812 298.496094 220.996094 295.980469 C 217.113281 293.203125 214.972656 288.769531 214.972656 284.507812 C 214.972656 279.980469 216.28125 272.019531 222.570312 272.019531 C 225.519531 272.019531 228.835938 273.953125 230.464844 275.449219 C 231.011719 275.957031 231.660156 276.652344 232.40625 277.460938 C 235.257812 280.542969 239.566406 285.378906 244.292969 285.378906 C 244.953125 285.378906 245.609375 285.289062 246.246094 285.109375 C 248.390625 284.5 249.941406 284.902344 250.535156 285.90625 C 251.515625 287.570312 249.875 290.859375 249.121094 292.195312 C 246.488281 296.882812 241.070312 299.753906 234.582031 299.753906 " fill-opacity="1" fill-rule="nonzero"/></g><path fill="#ffffff" d="M 222.9375 273.257812 C 219.957031 273.257812 216.402344 275.238281 216.402344 284.6875 C 216.402344 293.457031 225.839844 298.882812 234.582031 298.882812 C 240.8125 298.882812 245.824219 296.324219 248.335938 291.859375 C 249.449219 289.878906 250.410156 287.363281 249.753906 286.253906 C 249.511719 285.839844 249.039062 285.640625 248.3125 285.640625 C 247.800781 285.640625 247.167969 285.746094 246.433594 285.953125 C 245.734375 286.148438 245.015625 286.25 244.292969 286.25 C 239.265625 286.25 234.832031 281.460938 231.898438 278.292969 C 231.160156 277.496094 230.523438 276.808594 229.996094 276.320312 C 228.460938 274.910156 225.6875 273.257812 222.9375 273.257812 " fill-opacity="1" fill-rule="nonzero"/><path fill="#ffffff" d="M 236.859375 265.582031 C 236.859375 272.109375 240.410156 277.214844 244.792969 277.214844 C 249.171875 277.214844 252.722656 272.109375 252.722656 265.582031 C 252.722656 259.054688 249.171875 253.765625 244.792969 253.765625 C 240.410156 253.765625 236.859375 259.054688 236.859375 265.582031 " fill-opacity="1" fill-rule="nonzero"/><path fill="#000000" d="M 239.699219 266.417969 C 239.699219 267.886719 240.5 269.078125 241.484375 269.078125 C 242.472656 269.078125 243.269531 267.886719 243.269531 266.417969 C 243.269531 264.949219 242.472656 263.757812 241.484375 263.757812 C 240.5 263.757812 239.699219 264.949219 239.699219 266.417969 " fill-opacity="1" fill-rule="nonzero"/><path fill="#000000" d="M 244.976562 277.375 C 240.410156 277.375 236.328125 272.285156 236.328125 265.582031 C 236.328125 258.875 240.226562 253.238281 244.792969 253.238281 C 249.355469 253.238281 253.253906 258.875 253.253906 265.582031 C 253.253906 272.285156 249.542969 277.375 244.976562 277.375 Z M 244.792969 254.109375 C 240.609375 254.109375 237.203125 259.253906 237.203125 265.582031 C 237.203125 271.90625 240.609375 277.054688 244.792969 277.054688 C 248.976562 277.054688 252.378906 271.90625 252.378906 265.582031 C 252.378906 259.253906 248.976562 254.109375 244.792969 254.109375 " fill-opacity="1" fill-rule="nonzero"/><path fill="#ffffff" d="M 238.378906 272.734375 C 239.980469 270.492188 240.980469 267.308594 240.980469 263.777344 C 240.980469 256.984375 237.285156 251.476562 232.722656 251.476562 C 228.160156 251.476562 224.464844 256.984375 224.464844 263.777344 C 224.464844 264.3125 224.488281 264.839844 224.535156 265.359375 C 228.015625 265.988281 233.300781 267.773438 238.378906 272.734375 " fill-opacity="1" fill-rule="nonzero"/><path fill="#000000" d="M 228.574219 266.460938 C 229.03125 265.957031 229.332031 265.148438 229.332031 264.234375 C 229.332031 262.707031 228.5 261.464844 227.472656 261.464844 C 226.445312 261.464844 225.613281 262.707031 225.613281 264.234375 C 225.613281 264.75 225.707031 265.230469 225.871094 265.644531 C 226.707031 265.84375 227.613281 266.109375 228.574219 266.460938 " fill-opacity="1" fill-rule="nonzero"/><path fill="#000000" d="M 240.253906 275.46875 C 236.328125 271.507812 227.949219 266.324219 224.472656 265.699219 L 224.210938 265.652344 L 223.453125 265.390625 C 223.40625 264.839844 223.378906 264.296875 223.378906 263.777344 C 223.378906 256.804688 227.976562 250.949219 232.722656 250.949219 C 237.46875 250.949219 241.511719 256.804688 241.511719 263.777344 C 241.511719 267.273438 240.5625 270.527344 238.84375 272.9375 Z M 224.859375 265.070312 C 228.355469 265.742188 232.421875 267.484375 238.140625 272.386719 C 239.613281 270.152344 240.636719 266.925781 240.636719 263.777344 C 240.636719 257.183594 237.085938 251.820312 232.722656 251.820312 C 228.359375 251.820312 224.808594 257.183594 224.808594 263.777344 C 224.808594 264.195312 224.824219 264.628906 224.859375 265.070312 " fill-opacity="1" fill-rule="nonzero"/><path fill="#000000" d="M 230.925781 267.835938 C 223.945312 265.121094 221.28125 265.257812 221.28125 265.257812 C 221.382812 265.222656 223.871094 264.539062 231.175781 267.378906 L 230.925781 267.835938 " fill-opacity="1" fill-rule="nonzero"/><g clip-path="url(#ff29b973f8)"><path fill="#000000" d="M 218.273438 296.5625 C 215.722656 295.324219 213.679688 292.28125 212.929688 287.507812 C 212.375 284.007812 213.613281 280.824219 213.613281 280.824219 C 213.613281 280.882812 213.527344 283.972656 213.988281 287.410156 C 214.664062 292.460938 218.273438 296.5625 218.273438 296.5625 " fill-opacity="1" fill-rule="nonzero"/></g><path fill="#000000" d="M 222.535156 295.570312 L 221.851562 295.46875 L 225.269531 273.316406 L 225.953125 273.417969 L 222.535156 295.570312 " fill-opacity="1" fill-rule="nonzero"/><path fill="#000000" d="M 232.507812 298.789062 L 231.828125 298.667969 L 234.90625 281.1875 L 235.585938 281.304688 L 232.507812 298.789062 " fill-opacity="1" fill-rule="nonzero"/><path fill="#000000" d="M 242.375 297.910156 L 241.703125 297.753906 L 244.453125 285.992188 L 245.128906 286.148438 L 242.375 297.910156 " fill-opacity="1" fill-rule="nonzero"/><g clip-path="url(#6d4f766ef6)"><path fill="#000000" d="M 235.195312 245.074219 C 235.195312 245.074219 221.273438 246.433594 222.921875 252.019531 C 223.5625 254.191406 224.570312 248.875 235.195312 245.074219 " fill-opacity="1" fill-rule="nonzero"/></g><path fill="#000000" d="M 245.472656 249.015625 C 245.472656 249.015625 252.046875 253.746094 251.496094 255.160156 C 250.945312 256.574219 257.328125 252.746094 245.472656 249.015625 " fill-opacity="1" fill-rule="nonzero"/><path fill="#000000" d="M 248.628906 292.371094 C 229.613281 291.90625 216.332031 280.371094 216.199219 280.253906 L 216.660156 279.742188 C 216.789062 279.855469 229.890625 291.226562 248.644531 291.683594 L 248.628906 292.371094 " fill-opacity="1" fill-rule="nonzero"/><path fill="#000000" d="M 224.140625 273.316406 C 224.140625 273.316406 225.1875 273.785156 224.9375 275.46875 C 224.769531 276.617188 225.558594 275.984375 225.558594 275.984375 C 225.558594 275.984375 226.046875 273.800781 226.910156 274.253906 C 227.769531 274.707031 226.910156 273.316406 226.910156 273.316406 L 225.296875 272.734375 L 224.140625 273.316406 " fill-opacity="1" fill-rule="nonzero"/><path fill="#000000" d="M 234.164062 280.703125 C 234.164062 280.703125 234.777344 280.992188 234.566406 282.679688 C 234.371094 284.210938 235.113281 283.984375 235.113281 283.984375 C 235.113281 283.984375 235.550781 281.996094 236.328125 282.675781 C 237.0625 283.3125 236.175781 281.597656 236.175781 281.597656 L 234.648438 280.824219 L 234.164062 280.703125 " fill-opacity="1" fill-rule="nonzero"/><path fill="#000000" d="M 222.167969 293.421875 C 222.167969 293.421875 222.0625 295.050781 221.234375 294.320312 C 220.40625 293.589844 220.160156 294.589844 220.160156 294.589844 L 222.742188 296.351562 L 223.378906 295.835938 C 223.378906 295.835938 222.636719 294.925781 222.8125 293.777344 C 222.988281 292.632812 222.167969 293.421875 222.167969 293.421875 " fill-opacity="1" fill-rule="nonzero"/><g clip-path="url(#62f7bbf145)"><path fill="#000000" d="M 231.097656 298.601562 C 231.097656 298.601562 231.894531 298.289062 232.042969 297.449219 C 232.191406 296.609375 232.722656 297.449219 232.722656 297.449219 C 232.722656 297.449219 232.511719 298.886719 233.425781 298.882812 C 234.335938 298.882812 233.707031 299.371094 233.707031 299.371094 L 230.539062 299.121094 L 231.097656 298.601562 " fill-opacity="1" fill-rule="nonzero"/></g><g clip-path="url(#d3d1a80bf7)"><g clip-path="url(#044069f901)"><g clip-path="url(#26bd795d99)"><path fill="#513f18" d="M 267.054688 167.914062 C 264.234375 169.527344 262.664062 172.046875 253.839844 180.710938 C 252.21875 182.296875 250.78125 184.070312 249.21875 185.722656 C 248.09375 186.917969 246.886719 188.027344 245.75 189.207031 C 245.304688 189.667969 244.742188 190.0625 244.652344 190.808594 C 245.269531 191.054688 245.859375 190.832031 246.457031 190.820312 C 247.488281 190.800781 248.441406 190.546875 249.386719 190.128906 C 251.628906 189.128906 253.9375 188.257812 256.238281 187.363281 C 257.25 186.96875 258.195312 186.449219 259.148438 185.953125 C 259.386719 185.832031 259.601562 185.492188 259.941406 185.769531 C 260.261719 186.035156 260.351562 186.8125 260.140625 187.167969 C 259.890625 187.574219 259.507812 187.792969 259.097656 187.984375 C 255.875 189.527344 252.734375 191.234375 249.367188 192.496094 C 247.929688 193.027344 246.578125 193.789062 245.097656 194.164062 C 243.21875 194.640625 241.4375 195.519531 239.40625 195.445312 C 238.703125 195.414062 238.140625 195.664062 237.710938 196.160156 C 234.933594 199.328125 231.308594 201.480469 228.179688 204.222656 C 224.453125 207.488281 220.394531 210.339844 216.515625 213.414062 C 208.066406 220.125 208.230469 220.648438 200.421875 225.601562 C 198 227.136719 195.53125 228.597656 193.183594 230.246094 C 190.773438 231.933594 188.191406 233.363281 185.890625 235.199219 C 181.867188 238.417969 180.664062 239.007812 177.757812 240.679688 C 172.238281 243.855469 169.339844 248.527344 164.273438 251.09375 C 163.351562 251.558594 162.847656 252.3125 161.445312 253.617188 C 160.753906 254.257812 160.742188 254.277344 160.058594 253.507812 C 158.835938 252.125 157.511719 250.824219 156.492188 249.265625 C 155.988281 248.503906 156 248.519531 156.714844 248.09375 C 157.128906 247.855469 157.53125 247.570312 157.875 247.230469 C 161.484375 243.71875 167.476562 241.78125 174.523438 235.453125 C 179.546875 230.941406 184.90625 226.859375 190.550781 223.171875 C 193.609375 221.175781 196.507812 218.964844 199.480469 216.851562 C 219.625 202.535156 223.445312 200.339844 228.929688 194.777344 C 232.117188 191.535156 235.277344 188.261719 238.546875 185.113281 C 244.246094 179.625 248.898438 173.882812 251.042969 172.503906 C 251.957031 171.914062 251.402344 171.132812 251.171875 170.566406 C 250.519531 168.992188 250.1875 167.421875 250.25 165.71875 C 250.304688 164.214844 250.035156 162.667969 250.015625 161.140625 C 250.003906 159.945312 250.328125 158.84375 250.578125 157.71875 C 250.671875 157.265625 251.894531 156.925781 252.292969 157.195312 C 252.460938 157.3125 252.445312 157.476562 252.441406 157.625 C 252.386719 159.0625 252.566406 160.511719 252.355469 161.953125 C 252.019531 164.273438 252.765625 166.449219 253.996094 168.515625 C 254.589844 169.5 254.90625 168.042969 256.507812 166.34375 C 259.417969 163.253906 264.832031 159.960938 266.742188 158.628906 C 267.757812 157.921875 267.132812 159.414062 270.726562 163.667969 C 271.1875 164.210938 271.128906 164.5625 270.667969 165.109375 C 269.851562 166.085938 268.433594 167.007812 267.054688 167.914062 Z M 267.054688 167.914062 " fill-opacity="1" fill-rule="nonzero"/></g></g></g><g clip-path="url(#15de89a365)"><g clip-path="url(#0cf4e3cd1b)"><g clip-path="url(#4be7155c77)"><path fill="#886a1f" d="M 173.078125 239.75 C 172.871094 239.890625 172.753906 240.125 172.550781 239.945312 C 172.355469 239.769531 172.496094 239.585938 172.613281 239.449219 C 173.34375 238.59375 174.296875 238.011719 175.128906 237.269531 C 175.339844 237.078125 175.714844 237.375 175.417969 237.667969 C 174.652344 238.410156 173.730469 238.992188 173.078125 239.75 Z M 173.078125 239.75 " fill-opacity="1" fill-rule="nonzero"/></g></g></g><g clip-path="url(#5c2d72c15f)"><g clip-path="url(#83c03d393a)"><g clip-path="url(#f1c70d01b7)"><path fill="#886a1f" d="M 226.839844 198.554688 C 226.960938 198.496094 227.089844 198.363281 227.21875 198.574219 C 227.292969 198.703125 227.246094 198.8125 227.171875 198.882812 C 226.371094 199.652344 225.605469 200.457031 224.984375 201.398438 C 224.898438 201.527344 224.730469 201.558594 224.585938 201.4375 C 224.410156 201.285156 224.574219 201.15625 224.632812 201.039062 C 225.320312 199.820312 226.652344 198.644531 226.839844 198.554688 Z M 226.839844 198.554688 " fill-opacity="1" fill-rule="nonzero"/></g></g></g><g clip-path="url(#7c3c92b08c)"><g clip-path="url(#bc1e145499)"><g clip-path="url(#722d872992)"><path fill="#886a1f" d="M 163.40625 246.429688 C 163.328125 246.476562 163.164062 246.449219 163.085938 246.390625 C 162.996094 246.320312 163.011719 246.164062 163.09375 246.09375 C 163.707031 245.546875 164.335938 245.042969 165.066406 244.679688 C 165.113281 244.652344 165.246094 244.683594 165.277344 244.726562 C 165.335938 244.820312 165.371094 244.945312 165.269531 245.039062 C 164.671875 245.53125 164.058594 246.007812 163.40625 246.429688 Z M 163.40625 246.429688 " fill-opacity="1" fill-rule="nonzero"/></g></g></g><g clip-path="url(#9ecb2c6ad8)"><g clip-path="url(#03ce09a0fe)"><g clip-path="url(#59eb78f89d)"><path fill="#886a1f" d="M 185.234375 234.300781 C 185.199219 234.265625 185.246094 234.058594 185.320312 233.996094 C 185.980469 233.410156 186.664062 232.839844 187.339844 232.269531 C 187.585938 232.0625 187.800781 232.441406 187.640625 232.59375 C 185.921875 234.269531 185.542969 234.601562 185.234375 234.300781 Z M 185.234375 234.300781 " fill-opacity="1" fill-rule="nonzero"/></g></g></g><g clip-path="url(#3942faa4c9)"><g clip-path="url(#16c7672466)"><g clip-path="url(#b7ef218236)"><path fill="#886a1f" d="M 180.0625 236.550781 C 179.984375 236.59375 179.78125 236.578125 179.75 236.519531 C 179.660156 236.386719 179.675781 236.21875 179.816406 236.117188 C 180.386719 235.699219 180.96875 235.300781 181.632812 235.042969 C 181.929688 234.925781 182.203125 235.285156 181.871094 235.464844 C 181.253906 235.808594 180.683594 236.21875 180.0625 236.550781 Z M 180.0625 236.550781 " fill-opacity="1" fill-rule="nonzero"/></g></g></g><g clip-path="url(#34033359f7)"><g clip-path="url(#4c62cc008b)"><g clip-path="url(#137b84a881)"><path fill="#886a1f" d="M 261.242188 169.792969 C 261.375 169.703125 261.503906 169.484375 261.6875 169.675781 C 261.917969 169.898438 261.808594 169.960938 260.054688 171.886719 C 259.953125 171.996094 259.800781 172.101562 259.667969 172.007812 C 259.441406 171.84375 259.582031 171.679688 259.695312 171.535156 C 260.183594 170.933594 260.652344 170.316406 261.242188 169.792969 Z M 261.242188 169.792969 " fill-opacity="1" fill-rule="nonzero"/></g></g></g><g clip-path="url(#0822737695)"><g clip-path="url(#3eacb2d505)"><g clip-path="url(#5499950bca)"><path fill="#886a1f" d="M 265.171875 162.582031 C 264.226562 163.179688 263.894531 163.667969 263.71875 163.269531 C 263.671875 163.152344 263.6875 163.039062 263.777344 162.964844 C 264.40625 162.460938 265.03125 161.945312 265.757812 161.582031 C 265.910156 161.503906 266.136719 161.492188 266.230469 161.742188 C 266.324219 161.984375 266.125 161.972656 265.171875 162.582031 Z M 265.171875 162.582031 " fill-opacity="1" fill-rule="nonzero"/></g></g></g><g clip-path="url(#d718635d73)"><g clip-path="url(#765cf49055)"><g clip-path="url(#f645f0ea1d)"><path fill="#886a1f" d="M 215.445312 212.148438 C 215.25 212.316406 214.96875 212.515625 214.792969 212.277344 C 214.589844 212 214.921875 211.921875 215.054688 211.777344 C 216.320312 210.4375 216.453125 210.246094 216.644531 210.34375 C 216.816406 210.433594 216.792969 210.625 216.71875 210.746094 C 216.40625 211.234375 215.773438 211.851562 215.445312 212.148438 Z M 215.445312 212.148438 " fill-opacity="1" fill-rule="nonzero"/></g></g></g><g clip-path="url(#01519cce70)"><g clip-path="url(#9be028b04f)"><g clip-path="url(#3a5af85747)"><path fill="#886a1f" d="M 169.597656 245.15625 C 169.792969 244.996094 170.089844 245.277344 169.929688 245.511719 C 169.742188 245.773438 169.546875 245.964844 168.238281 246.910156 C 168.078125 247.027344 167.882812 247.292969 167.683594 247.082031 C 167.394531 246.785156 167.707031 246.71875 169.597656 245.15625 Z M 169.597656 245.15625 " fill-opacity="1" fill-rule="nonzero"/></g></g></g><g clip-path="url(#3e6d711be1)"><g clip-path="url(#cbc70e3b16)"><g clip-path="url(#1203eae852)"><path fill="#886a1f" d="M 190.394531 228.582031 C 191.28125 227.898438 191.375 227.738281 191.558594 228.011719 C 191.664062 228.171875 191.570312 228.3125 191.453125 228.398438 C 190.890625 228.8125 190.316406 229.222656 189.742188 229.617188 C 189.65625 229.675781 189.535156 229.695312 189.441406 229.589844 C 189.148438 229.304688 189.648438 229.164062 190.394531 228.582031 Z M 190.394531 228.582031 " fill-opacity="1" fill-rule="nonzero"/></g></g></g><g clip-path="url(#b94d3e9d14)"><g clip-path="url(#e99db08bc7)"><g clip-path="url(#637dd37230)"><path fill="#886a1f" d="M 250.058594 175.902344 C 250.164062 175.796875 250.300781 175.714844 250.417969 175.636719 C 250.519531 175.5625 250.675781 175.441406 250.773438 175.613281 C 250.875 175.792969 250.878906 175.84375 250.296875 176.441406 C 250.023438 176.722656 249.726562 176.988281 249.382812 177.191406 C 249.300781 177.242188 249.160156 177.136719 249.121094 177.066406 C 249.011719 176.855469 249.144531 176.804688 250.058594 175.902344 Z M 250.058594 175.902344 " fill-opacity="1" fill-rule="nonzero"/></g></g></g><g clip-path="url(#3204b19981)"><g clip-path="url(#8782366711)"><g clip-path="url(#913ebc369a)"><path fill="#886a1f" d="M 232.484375 197.398438 C 232.375 197.226562 232.5 197.160156 233.832031 195.859375 C 233.9375 195.757812 234.089844 195.632812 234.210938 195.746094 C 234.382812 195.910156 234.28125 196.101562 234.152344 196.25 C 233.75 196.691406 232.816406 197.925781 232.484375 197.398438 Z M 232.484375 197.398438 " fill-opacity="1" fill-rule="nonzero"/></g></g></g><g clip-path="url(#e5649d5009)"><g clip-path="url(#cc67119ab5)"><g clip-path="url(#6685f9f2c2)"><path fill="#886a1f" d="M 203.183594 216.472656 C 202.824219 216.710938 202.554688 216.925781 202.28125 217.101562 C 202.199219 217.152344 202.042969 217.101562 201.992188 217.019531 C 201.9375 216.933594 201.9375 216.796875 202.007812 216.726562 C 202.511719 216.238281 203.050781 215.792969 203.726562 215.550781 C 203.804688 215.519531 203.960938 215.570312 204.027344 215.640625 C 204.230469 215.855469 204.019531 215.925781 203.183594 216.472656 Z M 203.183594 216.472656 " fill-opacity="1" fill-rule="nonzero"/></g></g></g><g clip-path="url(#924db3a742)"><g clip-path="url(#60ad694445)"><g clip-path="url(#75b9da732d)"><path fill="#886a1f" d="M 247.613281 181.65625 C 247.386719 181.855469 247.21875 181.960938 247.109375 181.859375 C 246.9375 181.695312 247.027344 181.523438 247.164062 181.375 C 248.453125 179.980469 248.460938 179.792969 248.714844 180.050781 C 248.949219 180.277344 248.601562 180.542969 247.613281 181.65625 Z M 247.613281 181.65625 " fill-opacity="1" fill-rule="nonzero"/></g></g></g><g clip-path="url(#033a6384fb)"><g clip-path="url(#b94519973f)"><g clip-path="url(#d823c3a46a)"><path fill="#886a1f" d="M 268.269531 165.375 C 267.695312 165.871094 267.527344 166.039062 267.363281 165.804688 C 267.246094 165.644531 267.324219 165.476562 267.429688 165.394531 C 267.882812 165.007812 268.347656 164.636719 268.820312 164.277344 C 269.0625 164.085938 269.28125 164.445312 269.09375 164.628906 C 268.828125 164.886719 268.546875 165.136719 268.269531 165.375 Z M 268.269531 165.375 " fill-opacity="1" fill-rule="nonzero"/></g></g></g><g clip-path="url(#80226cf4d6)"><g clip-path="url(#1d8a78edfc)"><g clip-path="url(#58c3df5023)"><path fill="#886a1f" d="M 161.316406 249.773438 C 161.070312 250.007812 160.777344 250.339844 160.578125 250.03125 C 160.472656 249.863281 160.757812 249.507812 160.929688 249.40625 C 161.246094 249.207031 161.636719 248.621094 161.914062 248.972656 C 162.203125 249.34375 161.65625 249.441406 161.316406 249.773438 Z M 161.316406 249.773438 " fill-opacity="1" fill-rule="nonzero"/></g></g></g><g clip-path="url(#13ba198541)"><g clip-path="url(#050c61e5c7)"><g clip-path="url(#8135b1ea2a)"><path fill="#886a1f" d="M 206.359375 216.355469 C 206.804688 216.03125 207.054688 215.675781 207.246094 215.949219 C 207.542969 216.367188 206.914062 216.550781 206.632812 216.773438 C 206.375 216.980469 205.949219 217.453125 205.746094 217.15625 C 205.511719 216.785156 205.953125 216.652344 206.359375 216.355469 Z M 206.359375 216.355469 " fill-opacity="1" fill-rule="nonzero"/></g></g></g></svg>